ISO-10303-21;
HEADER;
FILE_DESCRIPTION(('Open CASCADE Model'),'2;1');
FILE_NAME('m0_fixed_collar','2026-07-11T16:47:30',('Author'),(
    'Open CASCADE'),'Open CASCADE STEP processor 7.9','build123d',
  'Unknown');
FILE_SCHEMA(('AUTOMOTIVE_DESIGN { 1 0 10303 214 1 1 1 1 }'));
ENDSEC;
DATA;
#1 = APPLICATION_PROTOCOL_DEFINITION('international standard',
  'automotive_design',2000,#2);
#2 = APPLICATION_CONTEXT(
  'core data for automotive mechanical design processes');
#3 = SHAPE_DEFINITION_REPRESENTATION(#4,#10);
#4 = PRODUCT_DEFINITION_SHAPE('','',#5);
#5 = PRODUCT_DEFINITION('design','',#6,#9);
#6 = PRODUCT_DEFINITION_FORMATION('','',#7);
#7 = PRODUCT('m0_fixed_collar','m0_fixed_collar','',(#8));
#8 = PRODUCT_CONTEXT('',#2,'mechanical');
#9 = PRODUCT_DEFINITION_CONTEXT('part definition',#2,'design');
#10 = ADVANCED_BREP_SHAPE_REPRESENTATION('',(#11,#15),#841);
#11 = AXIS2_PLACEMENT_3D('',#12,#13,#14);
#12 = CARTESIAN_POINT('',(0.,0.,0.));
#13 = DIRECTION('',(0.,0.,1.));
#14 = DIRECTION('',(1.,0.,-0.));
#15 = MANIFOLD_SOLID_BREP('',#16);
#16 = CLOSED_SHELL('',(#17,#316,#640,#670,#705,#784,#834));
#17 = ADVANCED_FACE('',(#18),#32,.T.);
#18 = FACE_BOUND('',#19,.T.);
#19 = EDGE_LOOP('',(#20,#50,#77,#78,#175,#198,#225,#226));
#20 = ORIENTED_EDGE('',*,*,#21,.T.);
#21 = EDGE_CURVE('',#22,#24,#26,.T.);
#22 = VERTEX_POINT('',#23);
#23 = CARTESIAN_POINT('',(9.,-2.204364238465E-15,5.));
#24 = VERTEX_POINT('',#25);
#25 = CARTESIAN_POINT('',(9.,-2.204364238465E-15,7.));
#26 = SEAM_CURVE('',#27,(#31,#43),.PCURVE_S1.);
#27 = LINE('',#28,#29);
#28 = CARTESIAN_POINT('',(9.,-2.204364238465E-15,0.));
#29 = VECTOR('',#30,1.);
#30 = DIRECTION('',(0.,0.,1.));
#31 = PCURVE('',#32,#37);
#32 = CYLINDRICAL_SURFACE('',#33,9.);
#33 = AXIS2_PLACEMENT_3D('',#34,#35,#36);
#34 = CARTESIAN_POINT('',(0.,0.,0.));
#35 = DIRECTION('',(0.,0.,1.));
#36 = DIRECTION('',(1.,0.,-0.));
#37 = DEFINITIONAL_REPRESENTATION('',(#38),#42);
#38 = LINE('',#39,#40);
#39 = CARTESIAN_POINT('',(6.28318530718,-0.));
#40 = VECTOR('',#41,1.);
#41 = DIRECTION('',(0.,1.));
#42 = ( GEOMETRIC_REPRESENTATION_CONTEXT(2) 
PARAMETRIC_REPRESENTATION_CONTEXT() REPRESENTATION_CONTEXT('2D SPACE',''
  ) );
#43 = PCURVE('',#32,#44);
#44 = DEFINITIONAL_REPRESENTATION('',(#45),#49);
#45 = LINE('',#46,#47);
#46 = CARTESIAN_POINT('',(0.,-0.));
#47 = VECTOR('',#48,1.);
#48 = DIRECTION('',(0.,1.));
#49 = ( GEOMETRIC_REPRESENTATION_CONTEXT(2) 
PARAMETRIC_REPRESENTATION_CONTEXT() REPRESENTATION_CONTEXT('2D SPACE',''
  ) );
#50 = ORIENTED_EDGE('',*,*,#51,.F.);
#51 = EDGE_CURVE('',#24,#24,#52,.T.);
#52 = SURFACE_CURVE('',#53,(#58,#65),.PCURVE_S1.);
#53 = CIRCLE('',#54,9.);
#54 = AXIS2_PLACEMENT_3D('',#55,#56,#57);
#55 = CARTESIAN_POINT('',(0.,0.,7.));
#56 = DIRECTION('',(0.,0.,1.));
#57 = DIRECTION('',(1.,0.,-0.));
#58 = PCURVE('',#32,#59);
#59 = DEFINITIONAL_REPRESENTATION('',(#60),#64);
#60 = LINE('',#61,#62);
#61 = CARTESIAN_POINT('',(0.,7.));
#62 = VECTOR('',#63,1.);
#63 = DIRECTION('',(1.,0.));
#64 = ( GEOMETRIC_REPRESENTATION_CONTEXT(2) 
PARAMETRIC_REPRESENTATION_CONTEXT() REPRESENTATION_CONTEXT('2D SPACE',''
  ) );
#65 = PCURVE('',#66,#71);
#66 = PLANE('',#67);
#67 = AXIS2_PLACEMENT_3D('',#68,#69,#70);
#68 = CARTESIAN_POINT('',(0.,0.,7.));
#69 = DIRECTION('',(0.,0.,1.));
#70 = DIRECTION('',(1.,0.,-0.));
#71 = DEFINITIONAL_REPRESENTATION('',(#72),#76);
#72 = CIRCLE('',#73,9.);
#73 = AXIS2_PLACEMENT_2D('',#74,#75);
#74 = CARTESIAN_POINT('',(0.,0.));
#75 = DIRECTION('',(1.,0.));
#76 = ( GEOMETRIC_REPRESENTATION_CONTEXT(2) 
PARAMETRIC_REPRESENTATION_CONTEXT() REPRESENTATION_CONTEXT('2D SPACE',''
  ) );
#77 = ORIENTED_EDGE('',*,*,#21,.F.);
#78 = ORIENTED_EDGE('',*,*,#79,.F.);
#79 = EDGE_CURVE('',#80,#22,#82,.T.);
#80 = VERTEX_POINT('',#81);
#81 = CARTESIAN_POINT('',(9.,-1.285879139105E-15,2.));
#82 = SURFACE_CURVE('',#83,(#110,#140),.PCURVE_S1.);
#83 = B_SPLINE_CURVE_WITH_KNOTS('',7,(#84,#85,#86,#87,#88,#89,#90,#91,
    #92,#93,#94,#95,#96,#97,#98,#99,#100,#101,#102,#103,#104,#105,#106,
    #107,#108,#109),.UNSPECIFIED.,.F.,.F.,(8,6,6,6,8),(0.,0.248576577188
    ,0.500127010526,0.751530932759,1.),.UNSPECIFIED.);
#84 = CARTESIAN_POINT('',(9.,-1.836970198721E-16,2.));
#85 = CARTESIAN_POINT('',(9.,0.196752354316,2.));
#86 = CARTESIAN_POINT('',(8.994981677791,0.38904208231,2.030108714717));
#87 = CARTESIAN_POINT('',(8.985356016871,0.571418639802,2.087869200938)
  );
#88 = CARTESIAN_POINT('',(8.97233076739,0.73920318941,2.169704449073));
#89 = CARTESIAN_POINT('',(8.957648919279,0.888696353554,2.270961565395)
  );
#90 = CARTESIAN_POINT('',(8.942951739279,1.017537312699,2.38595073427));
#91 = CARTESIAN_POINT('',(8.915665376655,1.23408352367,2.631574196441));
#92 = CARTESIAN_POINT('',(8.902790445218,1.323763726859,2.765198679441)
  );
#93 = CARTESIAN_POINT('',(8.891689331957,1.394737328977,2.905913094716)
  );
#94 = CARTESIAN_POINT('',(8.882988960952,1.447529253396,3.051496687934)
  );
#95 = CARTESIAN_POINT('',(8.877071651208,1.482535724257,3.20012222302));
#96 = CARTESIAN_POINT('',(8.874119674649,1.5,3.3501524236));
#97 = CARTESIAN_POINT('',(8.874119674649,1.5,3.649760300327));
#98 = CARTESIAN_POINT('',(8.877068207585,1.482556068492,3.799796004792)
  );
#99 = CARTESIAN_POINT('',(8.882985229974,1.44755142195,3.948471968027));
#100 = CARTESIAN_POINT('',(8.891689469118,1.394739393545,4.094107974558)
  );
#101 = CARTESIAN_POINT('',(8.902794521891,1.323739120961,4.234848978329)
  );
#102 = CARTESIAN_POINT('',(8.915669632233,1.23404975115,4.368464110963)
  );
#103 = CARTESIAN_POINT('',(8.942949567925,1.017554544699,4.614029719863)
  );
#104 = CARTESIAN_POINT('',(8.957647062213,0.888715003265,4.729027278339)
  );
#105 = CARTESIAN_POINT('',(8.972331222462,0.739206149429,4.83030133883)
  );
#106 = CARTESIAN_POINT('',(8.985358690973,0.571395934533,4.912146886456)
  );
#107 = CARTESIAN_POINT('',(8.994983776795,0.388998225106,4.969903858095)
  );
#108 = CARTESIAN_POINT('',(9.,0.196711277311,5.));
#109 = CARTESIAN_POINT('',(9.,2.755455298082E-16,5.));
#110 = PCURVE('',#32,#111);
#111 = DEFINITIONAL_REPRESENTATION('',(#112),#139);
#112 = B_SPLINE_CURVE_WITH_KNOTS('',7,(#113,#114,#115,#116,#117,#118,
    #119,#120,#121,#122,#123,#124,#125,#126,#127,#128,#129,#130,#131,
    #132,#133,#134,#135,#136,#137,#138),.UNSPECIFIED.,.F.,.F.,(8,6,6,6,8
    ),(0.,0.248576577188,0.500127010526,0.751530932759,1.),
  .UNSPECIFIED.);
#113 = CARTESIAN_POINT('',(0.,2.));
#114 = CARTESIAN_POINT('',(2.186137270175E-02,2.));
#115 = CARTESIAN_POINT('',(4.322691814879E-02,2.030108714717));
#116 = CARTESIAN_POINT('',(6.350793426212E-02,2.087869200938));
#117 = CARTESIAN_POINT('',(8.21986961162E-02,2.169704449073));
#118 = CARTESIAN_POINT('',(9.888562527996E-02,2.270961565395));
#119 = CARTESIAN_POINT('',(0.113293113084,2.38595073427));
#120 = CARTESIAN_POINT('',(0.137544066246,2.631574196441));
#121 = CARTESIAN_POINT('',(0.147609201488,2.765198679441));
#122 = CARTESIAN_POINT('',(0.155590454598,2.905913094716));
#123 = CARTESIAN_POINT('',(0.161535292039,3.051496687934));
#124 = CARTESIAN_POINT('',(0.165480079117,3.20012222302));
#125 = CARTESIAN_POINT('',(0.16744807922,3.3501524236));
#126 = CARTESIAN_POINT('',(0.16744807922,3.649760300327));
#127 = CARTESIAN_POINT('',(0.165482371727,3.799796004792));
#128 = CARTESIAN_POINT('',(0.16153779,3.948471968027));
#129 = CARTESIAN_POINT('',(0.155590677638,4.094107974558));
#130 = CARTESIAN_POINT('',(0.147606432283,4.234848978329));
#131 = CARTESIAN_POINT('',(0.137540284071,4.368464110963));
#132 = CARTESIAN_POINT('',(0.113295042891,4.614029719863));
#133 = CARTESIAN_POINT('',(9.888770744232E-02,4.729027278339));
#134 = CARTESIAN_POINT('',(8.219901590476E-02,4.83030133883));
#135 = CARTESIAN_POINT('',(6.350540037541E-02,4.912146886456));
#136 = CARTESIAN_POINT('',(4.322204501664E-02,4.969903858095));
#137 = CARTESIAN_POINT('',(2.18568085901E-02,5.));
#138 = CARTESIAN_POINT('',(0.,5.));
#139 = ( GEOMETRIC_REPRESENTATION_CONTEXT(2) 
PARAMETRIC_REPRESENTATION_CONTEXT() REPRESENTATION_CONTEXT('2D SPACE',''
  ) );
#140 = PCURVE('',#141,#146);
#141 = CYLINDRICAL_SURFACE('',#142,1.5);
#142 = AXIS2_PLACEMENT_3D('',#143,#144,#145);
#143 = CARTESIAN_POINT('',(0.,0.,3.5));
#144 = DIRECTION('',(1.,0.,0.));
#145 = DIRECTION('',(0.,0.,-1.));
#146 = DEFINITIONAL_REPRESENTATION('',(#147),#174);
#147 = B_SPLINE_CURVE_WITH_KNOTS('',7,(#148,#149,#150,#151,#152,#153,
    #154,#155,#156,#157,#158,#159,#160,#161,#162,#163,#164,#165,#166,
    #167,#168,#169,#170,#171,#172,#173),.UNSPECIFIED.,.F.,.F.,(8,6,6,6,8
    ),(0.,0.248576577188,0.500127010526,0.751530932759,1.),
  .UNSPECIFIED.);
#148 = CARTESIAN_POINT('',(0.,9.));
#149 = CARTESIAN_POINT('',(0.13116823621,9.));
#150 = CARTESIAN_POINT('',(0.25936129614,8.994981677791));
#151 = CARTESIAN_POINT('',(0.384632070766,8.985356016871));
#152 = CARTESIAN_POINT('',(0.506793858414,8.97233076739));
#153 = CARTESIAN_POINT('',(0.625423345412,8.957648919279));
#154 = CARTESIAN_POINT('',(0.739729224443,8.942951739279));
#155 = CARTESIAN_POINT('',(0.958028862204,8.915665376655));
#156 = CARTESIAN_POINT('',(1.06438885914,8.902790445218));
#157 = CARTESIAN_POINT('',(1.168208139362,8.891689331957));
#158 = CARTESIAN_POINT('',(1.270165202175,8.882988960952));
#159 = CARTESIAN_POINT('',(1.370877947144,8.877071651208));
#160 = CARTESIAN_POINT('',(1.470897942528,8.874119674649));
#161 = CARTESIAN_POINT('',(1.670636527013,8.874119674649));
#162 = CARTESIAN_POINT('',(1.770660173002,8.877068207585));
#163 = CARTESIAN_POINT('',(1.871403760239,8.882985229974));
#164 = CARTESIAN_POINT('',(1.973396147398,8.891689469118));
#165 = CARTESIAN_POINT('',(2.077238476377,8.902794521891));
#166 = CARTESIAN_POINT('',(2.183597837371,8.915669632233));
#167 = CARTESIAN_POINT('',(2.401846057616,8.942949567925));
#168 = CARTESIAN_POINT('',(2.51615551119,8.957647062213));
#169 = CARTESIAN_POINT('',(2.6347993613,8.972331222462));
#170 = CARTESIAN_POINT('',(2.756977998727,8.985358690973));
#171 = CARTESIAN_POINT('',(2.882260601297,8.994983776795));
#172 = CARTESIAN_POINT('',(3.010451802049,9.));
#173 = CARTESIAN_POINT('',(3.14159265359,9.));
#174 = ( GEOMETRIC_REPRESENTATION_CONTEXT(2) 
PARAMETRIC_REPRESENTATION_CONTEXT() REPRESENTATION_CONTEXT('2D SPACE',''
  ) );
#175 = ORIENTED_EDGE('',*,*,#176,.F.);
#176 = EDGE_CURVE('',#177,#80,#179,.T.);
#177 = VERTEX_POINT('',#178);
#178 = CARTESIAN_POINT('',(9.,-2.204364238465E-15,0.));
#179 = SEAM_CURVE('',#180,(#184,#191),.PCURVE_S1.);
#180 = LINE('',#181,#182);
#181 = CARTESIAN_POINT('',(9.,-2.204364238465E-15,0.));
#182 = VECTOR('',#183,1.);
#183 = DIRECTION('',(0.,0.,1.));
#184 = PCURVE('',#32,#185);
#185 = DEFINITIONAL_REPRESENTATION('',(#186),#190);
#186 = LINE('',#187,#188);
#187 = CARTESIAN_POINT('',(6.28318530718,-0.));
#188 = VECTOR('',#189,1.);
#189 = DIRECTION('',(0.,1.));
#190 = ( GEOMETRIC_REPRESENTATION_CONTEXT(2) 
PARAMETRIC_REPRESENTATION_CONTEXT() REPRESENTATION_CONTEXT('2D SPACE',''
  ) );
#191 = PCURVE('',#32,#192);
#192 = DEFINITIONAL_REPRESENTATION('',(#193),#197);
#193 = LINE('',#194,#195);
#194 = CARTESIAN_POINT('',(0.,-0.));
#195 = VECTOR('',#196,1.);
#196 = DIRECTION('',(0.,1.));
#197 = ( GEOMETRIC_REPRESENTATION_CONTEXT(2) 
PARAMETRIC_REPRESENTATION_CONTEXT() REPRESENTATION_CONTEXT('2D SPACE',''
  ) );
#198 = ORIENTED_EDGE('',*,*,#199,.T.);
#199 = EDGE_CURVE('',#177,#177,#200,.T.);
#200 = SURFACE_CURVE('',#201,(#206,#213),.PCURVE_S1.);
#201 = CIRCLE('',#202,9.);
#202 = AXIS2_PLACEMENT_3D('',#203,#204,#205);
#203 = CARTESIAN_POINT('',(0.,0.,0.));
#204 = DIRECTION('',(0.,0.,1.));
#205 = DIRECTION('',(1.,0.,-0.));
#206 = PCURVE('',#32,#207);
#207 = DEFINITIONAL_REPRESENTATION('',(#208),#212);
#208 = LINE('',#209,#210);
#209 = CARTESIAN_POINT('',(0.,0.));
#210 = VECTOR('',#211,1.);
#211 = DIRECTION('',(1.,0.));
#212 = ( GEOMETRIC_REPRESENTATION_CONTEXT(2) 
PARAMETRIC_REPRESENTATION_CONTEXT() REPRESENTATION_CONTEXT('2D SPACE',''
  ) );
#213 = PCURVE('',#214,#219);
#214 = PLANE('',#215);
#215 = AXIS2_PLACEMENT_3D('',#216,#217,#218);
#216 = CARTESIAN_POINT('',(0.,0.,0.));
#217 = DIRECTION('',(0.,0.,1.));
#218 = DIRECTION('',(1.,0.,-0.));
#219 = DEFINITIONAL_REPRESENTATION('',(#220),#224);
#220 = CIRCLE('',#221,9.);
#221 = AXIS2_PLACEMENT_2D('',#222,#223);
#222 = CARTESIAN_POINT('',(0.,0.));
#223 = DIRECTION('',(1.,0.));
#224 = ( GEOMETRIC_REPRESENTATION_CONTEXT(2) 
PARAMETRIC_REPRESENTATION_CONTEXT() REPRESENTATION_CONTEXT('2D SPACE',''
  ) );
#225 = ORIENTED_EDGE('',*,*,#176,.T.);
#226 = ORIENTED_EDGE('',*,*,#227,.F.);
#227 = EDGE_CURVE('',#22,#80,#228,.T.);
#228 = SURFACE_CURVE('',#229,(#256,#286),.PCURVE_S1.);
#229 = B_SPLINE_CURVE_WITH_KNOTS('',7,(#230,#231,#232,#233,#234,#235,
    #236,#237,#238,#239,#240,#241,#242,#243,#244,#245,#246,#247,#248,
    #249,#250,#251,#252,#253,#254,#255),.UNSPECIFIED.,.F.,.F.,(8,6,6,6,8
    ),(0.,0.248763238917,0.500390813851,0.75168388694,1.),
  .UNSPECIFIED.);
#230 = CARTESIAN_POINT('',(9.,-8.881784197001E-16,5.));
#231 = CARTESIAN_POINT('',(9.,-0.196752354316,5.));
#232 = CARTESIAN_POINT('',(8.994981677791,-0.38904208231,4.969891285284)
  );
#233 = CARTESIAN_POINT('',(8.985356016871,-0.571418639803,4.912130799062
    ));
#234 = CARTESIAN_POINT('',(8.97233076739,-0.73920318941,4.830295550927)
  );
#235 = CARTESIAN_POINT('',(8.957648919279,-0.888696353554,4.729038434605
    ));
#236 = CARTESIAN_POINT('',(8.942951739279,-1.017537312699,4.61404926573)
  );
#237 = CARTESIAN_POINT('',(8.915671469212,-1.234035172776,4.368480646883
    ));
#238 = CARTESIAN_POINT('',(8.902788228543,-1.323792538719,4.23479688159)
  );
#239 = CARTESIAN_POINT('',(8.891679603769,-1.394792022666,4.093991103962
    ));
#240 = CARTESIAN_POINT('',(8.882986775785,-1.447541783577,3.948403344315
    ));
#241 = CARTESIAN_POINT('',(8.877076079507,-1.482509608608,3.79988498206)
  );
#242 = CARTESIAN_POINT('',(8.874119674649,-1.5,3.649959649621));
#243 = CARTESIAN_POINT('',(8.874119674649,-1.5,3.350239699673));
#244 = CARTESIAN_POINT('',(8.877068207585,-1.482556068492,3.200203995208
    ));
#245 = CARTESIAN_POINT('',(8.882985229974,-1.44755142195,3.051528031972)
  );
#246 = CARTESIAN_POINT('',(8.891689469118,-1.394739393545,2.905892025442
    ));
#247 = CARTESIAN_POINT('',(8.902794521891,-1.323739120961,2.765151021671
    ));
#248 = CARTESIAN_POINT('',(8.915669632233,-1.23404975115,2.631535889037)
  );
#249 = CARTESIAN_POINT('',(8.94294719843,-1.017573349148,2.385991609598)
  );
#250 = CARTESIAN_POINT('',(8.957645701685,-0.888730036912,2.270978884187
    ));
#251 = CARTESIAN_POINT('',(8.972332726319,-0.739199393869,2.169686488132
    ));
#252 = CARTESIAN_POINT('',(8.985361809407,-0.571363156582,2.087834537981
    ));
#253 = CARTESIAN_POINT('',(8.994985724621,-0.388950875176,2.030084419303
    ));
#254 = CARTESIAN_POINT('',(9.,-0.196672967409,2.));
#255 = CARTESIAN_POINT('',(9.,-1.33226762955E-15,2.));
#256 = PCURVE('',#32,#257);
#257 = DEFINITIONAL_REPRESENTATION('',(#258),#285);
#258 = B_SPLINE_CURVE_WITH_KNOTS('',7,(#259,#260,#261,#262,#263,#264,
    #265,#266,#267,#268,#269,#270,#271,#272,#273,#274,#275,#276,#277,
    #278,#279,#280,#281,#282,#283,#284),.UNSPECIFIED.,.F.,.F.,(8,6,6,6,8
    ),(0.,0.248763238917,0.500390813851,0.75168388694,1.),
  .UNSPECIFIED.);
#259 = CARTESIAN_POINT('',(6.28318530718,5.));
#260 = CARTESIAN_POINT('',(6.261323934478,5.));
#261 = CARTESIAN_POINT('',(6.239958389031,4.969891285284));
#262 = CARTESIAN_POINT('',(6.219677372917,4.912130799062));
#263 = CARTESIAN_POINT('',(6.200986611063,4.830295550927));
#264 = CARTESIAN_POINT('',(6.1842996819,4.729038434605));
#265 = CARTESIAN_POINT('',(6.169892194095,4.61404926573));
#266 = CARTESIAN_POINT('',(6.145646655737,4.368480646883));
#267 = CARTESIAN_POINT('',(6.13557289983,4.23479688159));
#268 = CARTESIAN_POINT('',(6.127588686734,4.093991103962));
#269 = CARTESIAN_POINT('',(6.121648598837,3.948403344315));
#270 = CARTESIAN_POINT('',(6.11770817196,3.79988498206));
#271 = CARTESIAN_POINT('',(6.11573722796,3.649959649621));
#272 = CARTESIAN_POINT('',(6.11573722796,3.350239699673));
#273 = CARTESIAN_POINT('',(6.117702935452,3.200203995208));
#274 = CARTESIAN_POINT('',(6.121647517179,3.051528031972));
#275 = CARTESIAN_POINT('',(6.127594629541,2.905892025442));
#276 = CARTESIAN_POINT('',(6.135578874897,2.765151021671));
#277 = CARTESIAN_POINT('',(6.145645023109,2.631535889037));
#278 = CARTESIAN_POINT('',(6.169888158383,2.385991609598));
#279 = CARTESIAN_POINT('',(6.184295923545,2.270978884187));
#280 = CARTESIAN_POINT('',(6.200987055635,2.169686488132));
#281 = CARTESIAN_POINT('',(6.21968355994,2.087834537981));
#282 = CARTESIAN_POINT('',(6.239968522898,2.030084419303));
#283 = CARTESIAN_POINT('',(6.261332755245,2.));
#284 = CARTESIAN_POINT('',(6.28318530718,2.));
#285 = ( GEOMETRIC_REPRESENTATION_CONTEXT(2) 
PARAMETRIC_REPRESENTATION_CONTEXT() REPRESENTATION_CONTEXT('2D SPACE',''
  ) );
#286 = PCURVE('',#141,#287);
#287 = DEFINITIONAL_REPRESENTATION('',(#288),#315);
#288 = B_SPLINE_CURVE_WITH_KNOTS('',7,(#289,#290,#291,#292,#293,#294,
    #295,#296,#297,#298,#299,#300,#301,#302,#303,#304,#305,#306,#307,
    #308,#309,#310,#311,#312,#313,#314),.UNSPECIFIED.,.F.,.F.,(8,6,6,6,8
    ),(0.,0.248763238917,0.500390813851,0.75168388694,1.),
  .UNSPECIFIED.);
#289 = CARTESIAN_POINT('',(3.14159265359,9.));
#290 = CARTESIAN_POINT('',(3.2727608898,9.));
#291 = CARTESIAN_POINT('',(3.40095394973,8.994981677791));
#292 = CARTESIAN_POINT('',(3.526224724356,8.985356016871));
#293 = CARTESIAN_POINT('',(3.648386512004,8.97233076739));
#294 = CARTESIAN_POINT('',(3.767015999002,8.957648919279));
#295 = CARTESIAN_POINT('',(3.881321878032,8.942951739279));
#296 = CARTESIAN_POINT('',(4.09957277339,8.915671469212));
#297 = CARTESIAN_POINT('',(4.205996344605,8.902788228543));
#298 = CARTESIAN_POINT('',(4.309870345804,8.891679603769));
#299 = CARTESIAN_POINT('',(4.411821190796,8.882986775785));
#300 = CARTESIAN_POINT('',(4.512465724568,8.877076079507));
#301 = CARTESIAN_POINT('',(4.612415880637,8.874119674649));
#302 = CARTESIAN_POINT('',(4.812229180602,8.874119674649));
#303 = CARTESIAN_POINT('',(4.912252826592,8.877068207585));
#304 = CARTESIAN_POINT('',(5.012996413829,8.882985229974));
#305 = CARTESIAN_POINT('',(5.114988800987,8.891689469118));
#306 = CARTESIAN_POINT('',(5.218831129967,8.902794521891));
#307 = CARTESIAN_POINT('',(5.32519049096,8.915669632233));
#308 = CARTESIAN_POINT('',(5.543419754493,8.94294719843));
#309 = CARTESIAN_POINT('',(5.657738461655,8.957645701685));
#310 = CARTESIAN_POINT('',(5.776399957426,8.972332726319));
#311 = CARTESIAN_POINT('',(5.898594634364,8.985361809407));
#312 = CARTESIAN_POINT('',(6.023884825938,8.994985724621));
#313 = CARTESIAN_POINT('',(6.152069995573,9.));
#314 = CARTESIAN_POINT('',(6.28318530718,9.));
#315 = ( GEOMETRIC_REPRESENTATION_CONTEXT(2) 
PARAMETRIC_REPRESENTATION_CONTEXT() REPRESENTATION_CONTEXT('2D SPACE',''
  ) );
#316 = ADVANCED_FACE('',(#317),#141,.F.);
#317 = FACE_BOUND('',#318,.F.);
#318 = EDGE_LOOP('',(#319,#320,#343,#494,#638,#639));
#319 = ORIENTED_EDGE('',*,*,#79,.F.);
#320 = ORIENTED_EDGE('',*,*,#321,.F.);
#321 = EDGE_CURVE('',#322,#80,#324,.T.);
#322 = VERTEX_POINT('',#323);
#323 = CARTESIAN_POINT('',(4.025,-6.766173565289E-16,2.));
#324 = SEAM_CURVE('',#325,(#329,#336),.PCURVE_S1.);
#325 = LINE('',#326,#327);
#326 = CARTESIAN_POINT('',(0.,-3.673940397442E-16,2.));
#327 = VECTOR('',#328,1.);
#328 = DIRECTION('',(1.,0.,0.));
#329 = PCURVE('',#141,#330);
#330 = DEFINITIONAL_REPRESENTATION('',(#331),#335);
#331 = LINE('',#332,#333);
#332 = CARTESIAN_POINT('',(6.28318530718,-0.));
#333 = VECTOR('',#334,1.);
#334 = DIRECTION('',(0.,1.));
#335 = ( GEOMETRIC_REPRESENTATION_CONTEXT(2) 
PARAMETRIC_REPRESENTATION_CONTEXT() REPRESENTATION_CONTEXT('2D SPACE',''
  ) );
#336 = PCURVE('',#141,#337);
#337 = DEFINITIONAL_REPRESENTATION('',(#338),#342);
#338 = LINE('',#339,#340);
#339 = CARTESIAN_POINT('',(0.,-0.));
#340 = VECTOR('',#341,1.);
#341 = DIRECTION('',(0.,1.));
#342 = ( GEOMETRIC_REPRESENTATION_CONTEXT(2) 
PARAMETRIC_REPRESENTATION_CONTEXT() REPRESENTATION_CONTEXT('2D SPACE',''
  ) );
#343 = ORIENTED_EDGE('',*,*,#344,.T.);
#344 = EDGE_CURVE('',#322,#345,#347,.T.);
#345 = VERTEX_POINT('',#346);
#346 = CARTESIAN_POINT('',(4.025,-9.858406733136E-16,5.));
#347 = SURFACE_CURVE('',#348,(#393,#441),.PCURVE_S1.);
#348 = B_SPLINE_CURVE_WITH_KNOTS('',7,(#349,#350,#351,#352,#353,#354,
    #355,#356,#357,#358,#359,#360,#361,#362,#363,#364,#365,#366,#367,
    #368,#369,#370,#371,#372,#373,#374,#375,#376,#377,#378,#379,#380,
    #381,#382,#383,#384,#385,#386,#387,#388,#389,#390,#391,#392),
  .UNSPECIFIED.,.F.,.F.,(8,6,6,6,6,6,6,8),(0.,0.144974388386,
    0.210730557972,0.481250453773,0.519337881488,0.790506283151,
    0.85564701235,1.),.UNSPECIFIED.);
#349 = CARTESIAN_POINT('',(4.025,-1.836970198721E-16,2.));
#350 = CARTESIAN_POINT('',(4.025,0.113090254305,2.));
#351 = CARTESIAN_POINT('',(4.021292949706,0.22552359094,2.009947345091)
  );
#352 = CARTESIAN_POINT('',(4.01395625566,0.335923853122,2.029633855778)
  );
#353 = CARTESIAN_POINT('',(4.003316107731,0.442952231739,2.058543071079)
  );
#354 = CARTESIAN_POINT('',(3.989929348722,0.54535932811,2.095854035223)
  );
#355 = CARTESIAN_POINT('',(3.974518325933,0.642042155892,2.140430261376)
  );
#356 = CARTESIAN_POINT('',(3.950302413682,0.772956461786,2.213637342799)
  );
#357 = CARTESIAN_POINT('',(3.942465556899,0.812573209366,2.237743037763)
  );
#358 = CARTESIAN_POINT('',(3.934402964832,0.850937045203,2.263031045695)
  );
#359 = CARTESIAN_POINT('',(3.926168339481,0.888032203366,2.289424348798)
  );
#360 = CARTESIAN_POINT('',(3.917813842691,0.92384624511,2.316848685716)
  );
#361 = CARTESIAN_POINT('',(3.909389664485,0.958369872318,2.345232414151)
  );
#362 = CARTESIAN_POINT('',(3.866196573387,1.128291580361,2.494939003281)
  );
#363 = CARTESIAN_POINT('',(3.831015840669,1.243287500647,2.630657298273)
  );
#364 = CARTESIAN_POINT('',(3.79858646927,1.336555299184,2.777440493905)
  );
#365 = CARTESIAN_POINT('',(3.771446265529,1.408421185773,2.932118089929)
  );
#366 = CARTESIAN_POINT('',(3.751379218874,1.45921353458,3.092172434765)
  );
#367 = CARTESIAN_POINT('',(3.739427399343,1.489092739355,3.255494342987)
  );
#368 = CARTESIAN_POINT('',(3.735411955825,1.499107832564,3.443303493058)
  );
#369 = CARTESIAN_POINT('',(3.735083723737,1.499925109032,3.466499134892)
  );
#370 = CARTESIAN_POINT('',(3.734923511055,1.500323624412,3.489704733537)
  );
#371 = CARTESIAN_POINT('',(3.734931650739,1.50030337695,3.51291346834));
#372 = CARTESIAN_POINT('',(3.7351081317,1.499864366706,3.53611851822));
#373 = CARTESIAN_POINT('',(3.735452598799,1.499006595562,3.559313061667)
  );
#374 = CARTESIAN_POINT('',(3.739607852448,1.488641657416,3.747503477794)
  );
#375 = CARTESIAN_POINT('',(3.751720584764,1.458352787409,3.911171603222)
  );
#376 = CARTESIAN_POINT('',(3.771975561459,1.407051964619,4.071524799888)
  );
#377 = CARTESIAN_POINT('',(3.799314657171,1.334574781702,4.226438883744)
  );
#378 = CARTESIAN_POINT('',(3.831931936066,1.240587186811,4.373373594012)
  );
#379 = CARTESIAN_POINT('',(3.867259934332,1.124758425205,4.509124841774)
  );
#380 = CARTESIAN_POINT('',(3.910442263745,0.954059450697,4.658317230518)
  );
#381 = CARTESIAN_POINT('',(3.918780534956,0.919723706207,4.686335144621)
  );
#382 = CARTESIAN_POINT('',(3.927046260748,0.884121989894,4.713405735995)
  );
#383 = CARTESIAN_POINT('',(3.935190448408,0.847263763661,4.739458952548)
  );
#384 = CARTESIAN_POINT('',(3.943162232801,0.809161554489,4.764422270983)
  );
#385 = CARTESIAN_POINT('',(3.950909295565,0.76983113143,4.788220564301)
  );
#386 = CARTESIAN_POINT('',(3.974929693132,0.639455559656,4.860759138653)
  );
#387 = CARTESIAN_POINT('',(3.990226762891,0.543078482414,4.904974725488)
  );
#388 = CARTESIAN_POINT('',(4.003505005236,0.44104697013,4.941970120376)
  );
#389 = CARTESIAN_POINT('',(4.01405381998,0.334451293573,4.970627933619)
  );
#390 = CARTESIAN_POINT('',(4.021325760434,0.224524896426,4.99014069988)
  );
#391 = CARTESIAN_POINT('',(4.025,0.112588658392,5.));
#392 = CARTESIAN_POINT('',(4.025,2.755455298082E-16,5.));
#393 = PCURVE('',#141,#394);
#394 = DEFINITIONAL_REPRESENTATION('',(#395),#440);
#395 = B_SPLINE_CURVE_WITH_KNOTS('',7,(#396,#397,#398,#399,#400,#401,
    #402,#403,#404,#405,#406,#407,#408,#409,#410,#411,#412,#413,#414,
    #415,#416,#417,#418,#419,#420,#421,#422,#423,#424,#425,#426,#427,
    #428,#429,#430,#431,#432,#433,#434,#435,#436,#437,#438,#439),
  .UNSPECIFIED.,.F.,.F.,(8,6,6,6,6,6,6,8),(0.,0.144974388386,
    0.210730557972,0.481250453773,0.519337881488,0.790506283151,
    0.85564701235,1.),.UNSPECIFIED.);
#396 = CARTESIAN_POINT('',(0.,4.025));
#397 = CARTESIAN_POINT('',(7.539350287026E-02,4.025));
#398 = CARTESIAN_POINT('',(0.150348934324,4.021292949706));
#399 = CARTESIAN_POINT('',(0.224649540601,4.01395625566));
#400 = CARTESIAN_POINT('',(0.298064348184,4.003316107731));
#401 = CARTESIAN_POINT('',(0.370324266589,3.989929348722));
#402 = CARTESIAN_POINT('',(0.441085168344,3.974518325933));
#403 = CARTESIAN_POINT('',(0.541080351024,3.950302413682));
#404 = CARTESIAN_POINT('',(0.57197565448,3.942465556899));
#405 = CARTESIAN_POINT('',(0.602576222478,3.934402964832));
#406 = CARTESIAN_POINT('',(0.632893087069,3.926168339481));
#407 = CARTESIAN_POINT('',(0.662936175266,3.917813842691));
#408 = CARTESIAN_POINT('',(0.692714537923,3.909389664485));
#409 = CARTESIAN_POINT('',(0.843689811386,3.866196573387));
#410 = CARTESIAN_POINT('',(0.961025515437,3.831015840669));
#411 = CARTESIAN_POINT('',(1.075293833845,3.79858646927));
#412 = CARTESIAN_POINT('',(1.187300125016,3.771446265529));
#413 = CARTESIAN_POINT('',(1.29782406312,3.751379218874));
#414 = CARTESIAN_POINT('',(1.407611417668,3.739427399343));
#415 = CARTESIAN_POINT('',(1.532995412645,3.735411955825));
#416 = CARTESIAN_POINT('',(1.548466251681,3.735083723737));
#417 = CARTESIAN_POINT('',(1.563934899353,3.734923511055));
#418 = CARTESIAN_POINT('',(1.579402856992,3.734931650739));
#419 = CARTESIAN_POINT('',(1.594871625847,3.7351081317));
#420 = CARTESIAN_POINT('',(1.610342707082,3.735452598799));
#421 = CARTESIAN_POINT('',(1.735993129842,3.739607852448));
#422 = CARTESIAN_POINT('',(1.846050398048,3.751720584764));
#423 = CARTESIAN_POINT('',(1.956856668129,3.771975561459));
#424 = CARTESIAN_POINT('',(2.069164472307,3.799314657171));
#425 = CARTESIAN_POINT('',(2.183761213449,3.831931936066));
#426 = CARTESIAN_POINT('',(2.301460221598,3.867259934332));
#427 = CARTESIAN_POINT('',(2.452598875757,3.910442263745));
#428 = CARTESIAN_POINT('',(2.482126238849,3.918780534956));
#429 = CARTESIAN_POINT('',(2.511914462498,3.927046260748));
#430 = CARTESIAN_POINT('',(2.541972194188,3.935190448408));
#431 = CARTESIAN_POINT('',(2.572308943163,3.943162232801));
#432 = CARTESIAN_POINT('',(2.602935293616,3.950909295565));
#433 = CARTESIAN_POINT('',(2.702399713797,3.974929693132));
#434 = CARTESIAN_POINT('',(2.772877308517,3.990226762891));
#435 = CARTESIAN_POINT('',(2.844834983323,4.003505005236));
#436 = CARTESIAN_POINT('',(2.917934098257,4.01405381998));
#437 = CARTESIAN_POINT('',(2.991909514535,4.021325760434));
#438 = CARTESIAN_POINT('',(3.066533547995,4.025));
#439 = CARTESIAN_POINT('',(3.14159265359,4.025));
#440 = ( GEOMETRIC_REPRESENTATION_CONTEXT(2) 
PARAMETRIC_REPRESENTATION_CONTEXT() REPRESENTATION_CONTEXT('2D SPACE',''
  ) );
#441 = PCURVE('',#442,#447);
#442 = CYLINDRICAL_SURFACE('',#443,4.025);
#443 = AXIS2_PLACEMENT_3D('',#444,#445,#446);
#444 = CARTESIAN_POINT('',(0.,0.,-1.));
#445 = DIRECTION('',(0.,0.,1.));
#446 = DIRECTION('',(1.,0.,-0.));
#447 = DEFINITIONAL_REPRESENTATION('',(#448),#493);
#448 = B_SPLINE_CURVE_WITH_KNOTS('',7,(#449,#450,#451,#452,#453,#454,
    #455,#456,#457,#458,#459,#460,#461,#462,#463,#464,#465,#466,#467,
    #468,#469,#470,#471,#472,#473,#474,#475,#476,#477,#478,#479,#480,
    #481,#482,#483,#484,#485,#486,#487,#488,#489,#490,#491,#492),
  .UNSPECIFIED.,.F.,.F.,(8,6,6,6,6,6,6,8),(0.,0.144974388386,
    0.210730557972,0.481250453773,0.519337881488,0.790506283151,
    0.85564701235,1.),.UNSPECIFIED.);
#449 = CARTESIAN_POINT('',(0.,3.));
#450 = CARTESIAN_POINT('',(2.80969575914E-02,3.));
#451 = CARTESIAN_POINT('',(5.603074805784E-02,3.009947345091));
#452 = CARTESIAN_POINT('',(8.349545922739E-02,3.029633855778));
#453 = CARTESIAN_POINT('',(0.110193393681,3.058543071079));
#454 = CARTESIAN_POINT('',(0.135835806537,3.095854035223));
#455 = CARTESIAN_POINT('',(0.160152157607,3.140430261376));
#456 = CARTESIAN_POINT('',(0.193229211388,3.213637342799));
#457 = CARTESIAN_POINT('',(0.203261842182,3.237743037763));
#458 = CARTESIAN_POINT('',(0.213000382016,3.263031045695));
#459 = CARTESIAN_POINT('',(0.22243989257,3.289424348798));
#460 = CARTESIAN_POINT('',(0.231575909272,3.316848685716));
#461 = CARTESIAN_POINT('',(0.240404465059,3.345232414151));
#462 = CARTESIAN_POINT('',(0.283963594809,3.494939003281));
#463 = CARTESIAN_POINT('',(0.313806730564,3.630657298273));
#464 = CARTESIAN_POINT('',(0.338319932356,3.777440493905));
#465 = CARTESIAN_POINT('',(0.357402431852,3.932118089929));
#466 = CARTESIAN_POINT('',(0.370970586636,4.092172434765));
#467 = CARTESIAN_POINT('',(0.378965861658,4.255494342987));
#468 = CARTESIAN_POINT('',(0.381646627477,4.443303493058));
#469 = CARTESIAN_POINT('',(0.38186544121,4.466499134892));
#470 = CARTESIAN_POINT('',(0.38197215283,4.489704733537));
#471 = CARTESIAN_POINT('',(0.381966731135,4.51291346834));
#472 = CARTESIAN_POINT('',(0.381849177164,4.53611851822));
#473 = CARTESIAN_POINT('',(0.381619524199,4.559313061667));
#474 = CARTESIAN_POINT('',(0.378845156682,4.747503477794));
#475 = CARTESIAN_POINT('',(0.370740533457,4.911171603222));
#476 = CARTESIAN_POINT('',(0.3570377447,5.071524799888));
#477 = CARTESIAN_POINT('',(0.337795827123,5.226438883744));
#478 = CARTESIAN_POINT('',(0.313098828783,5.373373594012));
#479 = CARTESIAN_POINT('',(0.283047784922,5.509124841774));
#480 = CARTESIAN_POINT('',(0.239302127345,5.658317230518));
#481 = CARTESIAN_POINT('',(0.230523968142,5.686335144621));
#482 = CARTESIAN_POINT('',(0.221444315814,5.713405735995));
#483 = CARTESIAN_POINT('',(0.212067116234,5.739458952548));
#484 = CARTESIAN_POINT('',(0.202396800458,5.764422270983));
#485 = CARTESIAN_POINT('',(0.192438261844,5.788220564301));
#486 = CARTESIAN_POINT('',(0.15950164932,5.860759138653));
#487 = CARTESIAN_POINT('',(0.135264712984,5.904974725488));
#488 = CARTESIAN_POINT('',(0.109718142226,5.941970120376));
#489 = CARTESIAN_POINT('',(8.312912793026E-02,5.970627933619));
#490 = CARTESIAN_POINT('',(5.578262488986E-02,5.99014069988));
#491 = CARTESIAN_POINT('',(2.797233748873E-02,6.));
#492 = CARTESIAN_POINT('',(0.,6.));
#493 = ( GEOMETRIC_REPRESENTATION_CONTEXT(2) 
PARAMETRIC_REPRESENTATION_CONTEXT() REPRESENTATION_CONTEXT('2D SPACE',''
  ) );
#494 = ORIENTED_EDGE('',*,*,#495,.T.);
#495 = EDGE_CURVE('',#345,#322,#496,.T.);
#496 = SURFACE_CURVE('',#497,(#542,#590),.PCURVE_S1.);
#497 = B_SPLINE_CURVE_WITH_KNOTS('',7,(#498,#499,#500,#501,#502,#503,
    #504,#505,#506,#507,#508,#509,#510,#511,#512,#513,#514,#515,#516,
    #517,#518,#519,#520,#521,#522,#523,#524,#525,#526,#527,#528,#529,
    #530,#531,#532,#533,#534,#535,#536,#537,#538,#539,#540,#541),
  .UNSPECIFIED.,.F.,.F.,(8,6,6,6,6,6,6,8),(0.,0.144974388386,
    0.210730557972,0.481250453773,0.519337881488,0.790506283151,
    0.85564701235,1.),.UNSPECIFIED.);
#498 = CARTESIAN_POINT('',(4.025,-2.22044604925E-16,5.));
#499 = CARTESIAN_POINT('',(4.025,-0.113090254305,5.));
#500 = CARTESIAN_POINT('',(4.021292949706,-0.22552359094,4.990052654909)
  );
#501 = CARTESIAN_POINT('',(4.01395625566,-0.335923853122,4.970366144222)
  );
#502 = CARTESIAN_POINT('',(4.003316107731,-0.442952231739,4.941456928921
    ));
#503 = CARTESIAN_POINT('',(3.989929348722,-0.54535932811,4.904145964777)
  );
#504 = CARTESIAN_POINT('',(3.974518325933,-0.642042155892,4.859569738624
    ));
#505 = CARTESIAN_POINT('',(3.950302413682,-0.772956461786,4.786362657201
    ));
#506 = CARTESIAN_POINT('',(3.942465556899,-0.812573209366,4.762256962237
    ));
#507 = CARTESIAN_POINT('',(3.934402964832,-0.850937045203,4.736968954305
    ));
#508 = CARTESIAN_POINT('',(3.926168339481,-0.888032203366,4.710575651202
    ));
#509 = CARTESIAN_POINT('',(3.917813842691,-0.92384624511,4.683151314284)
  );
#510 = CARTESIAN_POINT('',(3.909389664485,-0.958369872318,4.654767585849
    ));
#511 = CARTESIAN_POINT('',(3.866196573387,-1.128291580361,4.505060996719
    ));
#512 = CARTESIAN_POINT('',(3.831015840669,-1.243287500646,4.369342701727
    ));
#513 = CARTESIAN_POINT('',(3.79858646927,-1.336555299185,4.222559506094)
  );
#514 = CARTESIAN_POINT('',(3.771446265529,-1.408421185772,4.067881910072
    ));
#515 = CARTESIAN_POINT('',(3.751379218874,-1.45921353458,3.907827565235)
  );
#516 = CARTESIAN_POINT('',(3.739427399343,-1.489092739355,3.744505657013
    ));
#517 = CARTESIAN_POINT('',(3.735411955825,-1.499107832564,3.556696506942
    ));
#518 = CARTESIAN_POINT('',(3.735083723737,-1.499925109032,3.533500865108
    ));
#519 = CARTESIAN_POINT('',(3.734923511055,-1.500323624412,3.510295266463
    ));
#520 = CARTESIAN_POINT('',(3.734931650739,-1.50030337695,3.48708653166)
  );
#521 = CARTESIAN_POINT('',(3.7351081317,-1.499864366706,3.46388148178));
#522 = CARTESIAN_POINT('',(3.735452598799,-1.499006595562,3.440686938333
    ));
#523 = CARTESIAN_POINT('',(3.739607852448,-1.488641657416,3.252496522206
    ));
#524 = CARTESIAN_POINT('',(3.751720584764,-1.458352787409,3.088828396778
    ));
#525 = CARTESIAN_POINT('',(3.771975561459,-1.407051964619,2.928475200112
    ));
#526 = CARTESIAN_POINT('',(3.799314657171,-1.334574781702,2.773561116256
    ));
#527 = CARTESIAN_POINT('',(3.831931936066,-1.240587186811,2.626626405988
    ));
#528 = CARTESIAN_POINT('',(3.867259934332,-1.124758425204,2.490875158225
    ));
#529 = CARTESIAN_POINT('',(3.910442263745,-0.954059450697,2.341682769482
    ));
#530 = CARTESIAN_POINT('',(3.918780534956,-0.919723706207,2.313664855379
    ));
#531 = CARTESIAN_POINT('',(3.927046260748,-0.884121989894,2.286594264005
    ));
#532 = CARTESIAN_POINT('',(3.935190448408,-0.847263763661,2.260541047452
    ));
#533 = CARTESIAN_POINT('',(3.943162232801,-0.809161554489,2.235577729017
    ));
#534 = CARTESIAN_POINT('',(3.950909295565,-0.76983113143,2.211779435699)
  );
#535 = CARTESIAN_POINT('',(3.974929693132,-0.639455559656,2.139240861347
    ));
#536 = CARTESIAN_POINT('',(3.990226762891,-0.543078482414,2.095025274512
    ));
#537 = CARTESIAN_POINT('',(4.003505005236,-0.44104697013,2.058029879625)
  );
#538 = CARTESIAN_POINT('',(4.01405381998,-0.334451293573,2.029372066381)
  );
#539 = CARTESIAN_POINT('',(4.021325760434,-0.224524896426,2.00985930012)
  );
#540 = CARTESIAN_POINT('',(4.025,-0.112588658392,2.));
#541 = CARTESIAN_POINT('',(4.025,-6.661338147751E-16,2.));
#542 = PCURVE('',#141,#543);
#543 = DEFINITIONAL_REPRESENTATION('',(#544),#589);
#544 = B_SPLINE_CURVE_WITH_KNOTS('',7,(#545,#546,#547,#548,#549,#550,
    #551,#552,#553,#554,#555,#556,#557,#558,#559,#560,#561,#562,#563,
    #564,#565,#566,#567,#568,#569,#570,#571,#572,#573,#574,#575,#576,
    #577,#578,#579,#580,#581,#582,#583,#584,#585,#586,#587,#588),
  .UNSPECIFIED.,.F.,.F.,(8,6,6,6,6,6,6,8),(0.,0.144974388386,
    0.210730557972,0.481250453773,0.519337881488,0.790506283151,
    0.85564701235,1.),.UNSPECIFIED.);
#545 = CARTESIAN_POINT('',(3.14159265359,4.025));
#546 = CARTESIAN_POINT('',(3.21698615646,4.025));
#547 = CARTESIAN_POINT('',(3.291941587913,4.021292949706));
#548 = CARTESIAN_POINT('',(3.366242194191,4.01395625566));
#549 = CARTESIAN_POINT('',(3.439657001774,4.003316107731));
#550 = CARTESIAN_POINT('',(3.511916920179,3.989929348722));
#551 = CARTESIAN_POINT('',(3.582677821934,3.974518325933));
#552 = CARTESIAN_POINT('',(3.682673004614,3.950302413682));
#553 = CARTESIAN_POINT('',(3.713568308069,3.942465556899));
#554 = CARTESIAN_POINT('',(3.744168876068,3.934402964832));
#555 = CARTESIAN_POINT('',(3.774485740659,3.926168339481));
#556 = CARTESIAN_POINT('',(3.804528828856,3.917813842691));
#557 = CARTESIAN_POINT('',(3.834307191513,3.909389664485));
#558 = CARTESIAN_POINT('',(3.985282464975,3.866196573387));
#559 = CARTESIAN_POINT('',(4.102618169027,3.831015840669));
#560 = CARTESIAN_POINT('',(4.216886487436,3.79858646927));
#561 = CARTESIAN_POINT('',(4.328892778605,3.771446265529));
#562 = CARTESIAN_POINT('',(4.43941671671,3.751379218874));
#563 = CARTESIAN_POINT('',(4.549204071257,3.739427399343));
#564 = CARTESIAN_POINT('',(4.674588066235,3.735411955825));
#565 = CARTESIAN_POINT('',(4.690058905271,3.735083723737));
#566 = CARTESIAN_POINT('',(4.705527552943,3.734923511055));
#567 = CARTESIAN_POINT('',(4.720995510582,3.734931650739));
#568 = CARTESIAN_POINT('',(4.736464279437,3.7351081317));
#569 = CARTESIAN_POINT('',(4.751935360671,3.735452598799));
#570 = CARTESIAN_POINT('',(4.877585783432,3.739607852448));
#571 = CARTESIAN_POINT('',(4.987643051637,3.751720584764));
#572 = CARTESIAN_POINT('',(5.098449321719,3.771975561459));
#573 = CARTESIAN_POINT('',(5.210757125897,3.799314657171));
#574 = CARTESIAN_POINT('',(5.325353867038,3.831931936066));
#575 = CARTESIAN_POINT('',(5.443052875188,3.867259934332));
#576 = CARTESIAN_POINT('',(5.594191529346,3.910442263745));
#577 = CARTESIAN_POINT('',(5.623718892439,3.918780534956));
#578 = CARTESIAN_POINT('',(5.653507116088,3.927046260748));
#579 = CARTESIAN_POINT('',(5.683564847778,3.935190448408));
#580 = CARTESIAN_POINT('',(5.713901596752,3.943162232801));
#581 = CARTESIAN_POINT('',(5.744527947205,3.950909295565));
#582 = CARTESIAN_POINT('',(5.843992367387,3.974929693132));
#583 = CARTESIAN_POINT('',(5.914469962107,3.990226762891));
#584 = CARTESIAN_POINT('',(5.986427636913,4.003505005236));
#585 = CARTESIAN_POINT('',(6.059526751847,4.01405381998));
#586 = CARTESIAN_POINT('',(6.133502168124,4.021325760434));
#587 = CARTESIAN_POINT('',(6.208126201585,4.025));
#588 = CARTESIAN_POINT('',(6.28318530718,4.025));
#589 = ( GEOMETRIC_REPRESENTATION_CONTEXT(2) 
PARAMETRIC_REPRESENTATION_CONTEXT() REPRESENTATION_CONTEXT('2D SPACE',''
  ) );
#590 = PCURVE('',#442,#591);
#591 = DEFINITIONAL_REPRESENTATION('',(#592),#637);
#592 = B_SPLINE_CURVE_WITH_KNOTS('',7,(#593,#594,#595,#596,#597,#598,
    #599,#600,#601,#602,#603,#604,#605,#606,#607,#608,#609,#610,#611,
    #612,#613,#614,#615,#616,#617,#618,#619,#620,#621,#622,#623,#624,
    #625,#626,#627,#628,#629,#630,#631,#632,#633,#634,#635,#636),
  .UNSPECIFIED.,.F.,.F.,(8,6,6,6,6,6,6,8),(0.,0.144974388386,
    0.210730557972,0.481250453773,0.519337881488,0.790506283151,
    0.85564701235,1.),.UNSPECIFIED.);
#593 = CARTESIAN_POINT('',(6.28318530718,6.));
#594 = CARTESIAN_POINT('',(6.255088349588,6.));
#595 = CARTESIAN_POINT('',(6.227154559122,5.990052654909));
#596 = CARTESIAN_POINT('',(6.199689847952,5.970366144222));
#597 = CARTESIAN_POINT('',(6.172991913498,5.941456928921));
#598 = CARTESIAN_POINT('',(6.147349500642,5.904145964777));
#599 = CARTESIAN_POINT('',(6.123033149572,5.859569738624));
#600 = CARTESIAN_POINT('',(6.089956095791,5.786362657201));
#601 = CARTESIAN_POINT('',(6.079923464998,5.762256962237));
#602 = CARTESIAN_POINT('',(6.070184925164,5.736968954305));
#603 = CARTESIAN_POINT('',(6.060745414609,5.710575651202));
#604 = CARTESIAN_POINT('',(6.051609397908,5.683151314284));
#605 = CARTESIAN_POINT('',(6.04278084212,5.654767585849));
#606 = CARTESIAN_POINT('',(5.999221712371,5.505060996719));
#607 = CARTESIAN_POINT('',(5.969378576616,5.369342701727));
#608 = CARTESIAN_POINT('',(5.944865374823,5.222559506094));
#609 = CARTESIAN_POINT('',(5.925782875328,5.067881910072));
#610 = CARTESIAN_POINT('',(5.912214720543,4.907827565235));
#611 = CARTESIAN_POINT('',(5.904219445522,4.744505657013));
#612 = CARTESIAN_POINT('',(5.901538679703,4.556696506942));
#613 = CARTESIAN_POINT('',(5.90131986597,4.533500865108));
#614 = CARTESIAN_POINT('',(5.901213154349,4.510295266463));
#615 = CARTESIAN_POINT('',(5.901218576044,4.48708653166));
#616 = CARTESIAN_POINT('',(5.901336130015,4.46388148178));
#617 = CARTESIAN_POINT('',(5.901565782981,4.440686938333));
#618 = CARTESIAN_POINT('',(5.904340150498,4.252496522206));
#619 = CARTESIAN_POINT('',(5.912444773723,4.088828396778));
#620 = CARTESIAN_POINT('',(5.92614756248,3.928475200112));
#621 = CARTESIAN_POINT('',(5.945389480057,3.773561116256));
#622 = CARTESIAN_POINT('',(5.970086478396,3.626626405988));
#623 = CARTESIAN_POINT('',(6.000137522258,3.490875158225));
#624 = CARTESIAN_POINT('',(6.043883179834,3.341682769482));
#625 = CARTESIAN_POINT('',(6.052661339038,3.313664855379));
#626 = CARTESIAN_POINT('',(6.061740991366,3.286594264005));
#627 = CARTESIAN_POINT('',(6.071118190945,3.260541047452));
#628 = CARTESIAN_POINT('',(6.080788506721,3.235577729017));
#629 = CARTESIAN_POINT('',(6.090747045335,3.211779435699));
#630 = CARTESIAN_POINT('',(6.12368365786,3.139240861347));
#631 = CARTESIAN_POINT('',(6.147920594195,3.095025274512));
#632 = CARTESIAN_POINT('',(6.173467164954,3.058029879625));
#633 = CARTESIAN_POINT('',(6.200056179249,3.029372066381));
#634 = CARTESIAN_POINT('',(6.22740268229,3.00985930012));
#635 = CARTESIAN_POINT('',(6.255212969691,3.));
#636 = CARTESIAN_POINT('',(6.28318530718,3.));
#637 = ( GEOMETRIC_REPRESENTATION_CONTEXT(2) 
PARAMETRIC_REPRESENTATION_CONTEXT() REPRESENTATION_CONTEXT('2D SPACE',''
  ) );
#638 = ORIENTED_EDGE('',*,*,#321,.T.);
#639 = ORIENTED_EDGE('',*,*,#227,.F.);
#640 = ADVANCED_FACE('',(#641,#644),#214,.F.);
#641 = FACE_BOUND('',#642,.F.);
#642 = EDGE_LOOP('',(#643));
#643 = ORIENTED_EDGE('',*,*,#199,.T.);
#644 = FACE_BOUND('',#645,.F.);
#645 = EDGE_LOOP('',(#646));
#646 = ORIENTED_EDGE('',*,*,#647,.F.);
#647 = EDGE_CURVE('',#648,#648,#650,.T.);
#648 = VERTEX_POINT('',#649);
#649 = CARTESIAN_POINT('',(4.025,-9.858406733136E-16,0.));
#650 = SURFACE_CURVE('',#651,(#656,#663),.PCURVE_S1.);
#651 = CIRCLE('',#652,4.025);
#652 = AXIS2_PLACEMENT_3D('',#653,#654,#655);
#653 = CARTESIAN_POINT('',(0.,0.,0.));
#654 = DIRECTION('',(0.,0.,1.));
#655 = DIRECTION('',(1.,0.,-0.));
#656 = PCURVE('',#214,#657);
#657 = DEFINITIONAL_REPRESENTATION('',(#658),#662);
#658 = CIRCLE('',#659,4.025);
#659 = AXIS2_PLACEMENT_2D('',#660,#661);
#660 = CARTESIAN_POINT('',(0.,0.));
#661 = DIRECTION('',(1.,0.));
#662 = ( GEOMETRIC_REPRESENTATION_CONTEXT(2) 
PARAMETRIC_REPRESENTATION_CONTEXT() REPRESENTATION_CONTEXT('2D SPACE',''
  ) );
#663 = PCURVE('',#442,#664);
#664 = DEFINITIONAL_REPRESENTATION('',(#665),#669);
#665 = LINE('',#666,#667);
#666 = CARTESIAN_POINT('',(0.,1.));
#667 = VECTOR('',#668,1.);
#668 = DIRECTION('',(1.,0.));
#669 = ( GEOMETRIC_REPRESENTATION_CONTEXT(2) 
PARAMETRIC_REPRESENTATION_CONTEXT() REPRESENTATION_CONTEXT('2D SPACE',''
  ) );
#670 = ADVANCED_FACE('',(#671,#674),#66,.T.);
#671 = FACE_BOUND('',#672,.T.);
#672 = EDGE_LOOP('',(#673));
#673 = ORIENTED_EDGE('',*,*,#51,.T.);
#674 = FACE_BOUND('',#675,.T.);
#675 = EDGE_LOOP('',(#676));
#676 = ORIENTED_EDGE('',*,*,#677,.F.);
#677 = EDGE_CURVE('',#678,#678,#680,.T.);
#678 = VERTEX_POINT('',#679);
#679 = CARTESIAN_POINT('',(5.9,-1.445083222994E-15,7.));
#680 = SURFACE_CURVE('',#681,(#686,#693),.PCURVE_S1.);
#681 = CIRCLE('',#682,5.9);
#682 = AXIS2_PLACEMENT_3D('',#683,#684,#685);
#683 = CARTESIAN_POINT('',(0.,0.,7.));
#684 = DIRECTION('',(0.,0.,1.));
#685 = DIRECTION('',(1.,0.,-0.));
#686 = PCURVE('',#66,#687);
#687 = DEFINITIONAL_REPRESENTATION('',(#688),#692);
#688 = CIRCLE('',#689,5.9);
#689 = AXIS2_PLACEMENT_2D('',#690,#691);
#690 = CARTESIAN_POINT('',(0.,0.));
#691 = DIRECTION('',(1.,0.));
#692 = ( GEOMETRIC_REPRESENTATION_CONTEXT(2) 
PARAMETRIC_REPRESENTATION_CONTEXT() REPRESENTATION_CONTEXT('2D SPACE',''
  ) );
#693 = PCURVE('',#694,#699);
#694 = CYLINDRICAL_SURFACE('',#695,5.9);
#695 = AXIS2_PLACEMENT_3D('',#696,#697,#698);
#696 = CARTESIAN_POINT('',(0.,0.,7.));
#697 = DIRECTION('',(0.,0.,1.));
#698 = DIRECTION('',(1.,0.,-0.));
#699 = DEFINITIONAL_REPRESENTATION('',(#700),#704);
#700 = LINE('',#701,#702);
#701 = CARTESIAN_POINT('',(0.,0.));
#702 = VECTOR('',#703,1.);
#703 = DIRECTION('',(1.,0.));
#704 = ( GEOMETRIC_REPRESENTATION_CONTEXT(2) 
PARAMETRIC_REPRESENTATION_CONTEXT() REPRESENTATION_CONTEXT('2D SPACE',''
  ) );
#705 = ADVANCED_FACE('',(#706),#442,.F.);
#706 = FACE_BOUND('',#707,.F.);
#707 = EDGE_LOOP('',(#708,#729,#730,#731,#732,#755,#782,#783));
#708 = ORIENTED_EDGE('',*,*,#709,.T.);
#709 = EDGE_CURVE('',#322,#648,#710,.T.);
#710 = SEAM_CURVE('',#711,(#715,#722),.PCURVE_S1.);
#711 = LINE('',#712,#713);
#712 = CARTESIAN_POINT('',(4.025,-9.858406733136E-16,9.));
#713 = VECTOR('',#714,1.);
#714 = DIRECTION('',(0.,0.,-1.));
#715 = PCURVE('',#442,#716);
#716 = DEFINITIONAL_REPRESENTATION('',(#717),#721);
#717 = LINE('',#718,#719);
#718 = CARTESIAN_POINT('',(0.,10.));
#719 = VECTOR('',#720,1.);
#720 = DIRECTION('',(-0.,-1.));
#721 = ( GEOMETRIC_REPRESENTATION_CONTEXT(2) 
PARAMETRIC_REPRESENTATION_CONTEXT() REPRESENTATION_CONTEXT('2D SPACE',''
  ) );
#722 = PCURVE('',#442,#723);
#723 = DEFINITIONAL_REPRESENTATION('',(#724),#728);
#724 = LINE('',#725,#726);
#725 = CARTESIAN_POINT('',(6.28318530718,10.));
#726 = VECTOR('',#727,1.);
#727 = DIRECTION('',(-0.,-1.));
#728 = ( GEOMETRIC_REPRESENTATION_CONTEXT(2) 
PARAMETRIC_REPRESENTATION_CONTEXT() REPRESENTATION_CONTEXT('2D SPACE',''
  ) );
#729 = ORIENTED_EDGE('',*,*,#647,.T.);
#730 = ORIENTED_EDGE('',*,*,#709,.F.);
#731 = ORIENTED_EDGE('',*,*,#495,.F.);
#732 = ORIENTED_EDGE('',*,*,#733,.F.);
#733 = EDGE_CURVE('',#734,#345,#736,.T.);
#734 = VERTEX_POINT('',#735);
#735 = CARTESIAN_POINT('',(4.025,-9.858406733136E-16,9.));
#736 = SEAM_CURVE('',#737,(#741,#748),.PCURVE_S1.);
#737 = LINE('',#738,#739);
#738 = CARTESIAN_POINT('',(4.025,-9.858406733136E-16,9.));
#739 = VECTOR('',#740,1.);
#740 = DIRECTION('',(0.,0.,-1.));
#741 = PCURVE('',#442,#742);
#742 = DEFINITIONAL_REPRESENTATION('',(#743),#747);
#743 = LINE('',#744,#745);
#744 = CARTESIAN_POINT('',(0.,10.));
#745 = VECTOR('',#746,1.);
#746 = DIRECTION('',(-0.,-1.));
#747 = ( GEOMETRIC_REPRESENTATION_CONTEXT(2) 
PARAMETRIC_REPRESENTATION_CONTEXT() REPRESENTATION_CONTEXT('2D SPACE',''
  ) );
#748 = PCURVE('',#442,#749);
#749 = DEFINITIONAL_REPRESENTATION('',(#750),#754);
#750 = LINE('',#751,#752);
#751 = CARTESIAN_POINT('',(6.28318530718,10.));
#752 = VECTOR('',#753,1.);
#753 = DIRECTION('',(-0.,-1.));
#754 = ( GEOMETRIC_REPRESENTATION_CONTEXT(2) 
PARAMETRIC_REPRESENTATION_CONTEXT() REPRESENTATION_CONTEXT('2D SPACE',''
  ) );
#755 = ORIENTED_EDGE('',*,*,#756,.F.);
#756 = EDGE_CURVE('',#734,#734,#757,.T.);
#757 = SURFACE_CURVE('',#758,(#763,#770),.PCURVE_S1.);
#758 = CIRCLE('',#759,4.025);
#759 = AXIS2_PLACEMENT_3D('',#760,#761,#762);
#760 = CARTESIAN_POINT('',(0.,0.,9.));
#761 = DIRECTION('',(0.,0.,1.));
#762 = DIRECTION('',(1.,0.,-0.));
#763 = PCURVE('',#442,#764);
#764 = DEFINITIONAL_REPRESENTATION('',(#765),#769);
#765 = LINE('',#766,#767);
#766 = CARTESIAN_POINT('',(0.,10.));
#767 = VECTOR('',#768,1.);
#768 = DIRECTION('',(1.,0.));
#769 = ( GEOMETRIC_REPRESENTATION_CONTEXT(2) 
PARAMETRIC_REPRESENTATION_CONTEXT() REPRESENTATION_CONTEXT('2D SPACE',''
  ) );
#770 = PCURVE('',#771,#776);
#771 = PLANE('',#772);
#772 = AXIS2_PLACEMENT_3D('',#773,#774,#775);
#773 = CARTESIAN_POINT('',(0.,0.,9.));
#774 = DIRECTION('',(0.,0.,1.));
#775 = DIRECTION('',(1.,0.,-0.));
#776 = DEFINITIONAL_REPRESENTATION('',(#777),#781);
#777 = CIRCLE('',#778,4.025);
#778 = AXIS2_PLACEMENT_2D('',#779,#780);
#779 = CARTESIAN_POINT('',(0.,0.));
#780 = DIRECTION('',(1.,0.));
#781 = ( GEOMETRIC_REPRESENTATION_CONTEXT(2) 
PARAMETRIC_REPRESENTATION_CONTEXT() REPRESENTATION_CONTEXT('2D SPACE',''
  ) );
#782 = ORIENTED_EDGE('',*,*,#733,.T.);
#783 = ORIENTED_EDGE('',*,*,#344,.F.);
#784 = ADVANCED_FACE('',(#785),#694,.T.);
#785 = FACE_BOUND('',#786,.T.);
#786 = EDGE_LOOP('',(#787,#811,#832,#833));
#787 = ORIENTED_EDGE('',*,*,#788,.F.);
#788 = EDGE_CURVE('',#789,#789,#791,.T.);
#789 = VERTEX_POINT('',#790);
#790 = CARTESIAN_POINT('',(5.9,-1.445083222994E-15,9.));
#791 = SURFACE_CURVE('',#792,(#797,#804),.PCURVE_S1.);
#792 = CIRCLE('',#793,5.9);
#793 = AXIS2_PLACEMENT_3D('',#794,#795,#796);
#794 = CARTESIAN_POINT('',(0.,0.,9.));
#795 = DIRECTION('',(0.,0.,1.));
#796 = DIRECTION('',(1.,0.,-0.));
#797 = PCURVE('',#694,#798);
#798 = DEFINITIONAL_REPRESENTATION('',(#799),#803);
#799 = LINE('',#800,#801);
#800 = CARTESIAN_POINT('',(0.,2.));
#801 = VECTOR('',#802,1.);
#802 = DIRECTION('',(1.,0.));
#803 = ( GEOMETRIC_REPRESENTATION_CONTEXT(2) 
PARAMETRIC_REPRESENTATION_CONTEXT() REPRESENTATION_CONTEXT('2D SPACE',''
  ) );
#804 = PCURVE('',#771,#805);
#805 = DEFINITIONAL_REPRESENTATION('',(#806),#810);
#806 = CIRCLE('',#807,5.9);
#807 = AXIS2_PLACEMENT_2D('',#808,#809);
#808 = CARTESIAN_POINT('',(0.,0.));
#809 = DIRECTION('',(1.,0.));
#810 = ( GEOMETRIC_REPRESENTATION_CONTEXT(2) 
PARAMETRIC_REPRESENTATION_CONTEXT() REPRESENTATION_CONTEXT('2D SPACE',''
  ) );
#811 = ORIENTED_EDGE('',*,*,#812,.F.);
#812 = EDGE_CURVE('',#678,#789,#813,.T.);
#813 = SEAM_CURVE('',#814,(#818,#825),.PCURVE_S1.);
#814 = LINE('',#815,#816);
#815 = CARTESIAN_POINT('',(5.9,-1.445083222994E-15,7.));
#816 = VECTOR('',#817,1.);
#817 = DIRECTION('',(0.,0.,1.));
#818 = PCURVE('',#694,#819);
#819 = DEFINITIONAL_REPRESENTATION('',(#820),#824);
#820 = LINE('',#821,#822);
#821 = CARTESIAN_POINT('',(6.28318530718,-0.));
#822 = VECTOR('',#823,1.);
#823 = DIRECTION('',(0.,1.));
#824 = ( GEOMETRIC_REPRESENTATION_CONTEXT(2) 
PARAMETRIC_REPRESENTATION_CONTEXT() REPRESENTATION_CONTEXT('2D SPACE',''
  ) );
#825 = PCURVE('',#694,#826);
#826 = DEFINITIONAL_REPRESENTATION('',(#827),#831);
#827 = LINE('',#828,#829);
#828 = CARTESIAN_POINT('',(0.,-0.));
#829 = VECTOR('',#830,1.);
#830 = DIRECTION('',(0.,1.));
#831 = ( GEOMETRIC_REPRESENTATION_CONTEXT(2) 
PARAMETRIC_REPRESENTATION_CONTEXT() REPRESENTATION_CONTEXT('2D SPACE',''
  ) );
#832 = ORIENTED_EDGE('',*,*,#677,.T.);
#833 = ORIENTED_EDGE('',*,*,#812,.T.);
#834 = ADVANCED_FACE('',(#835,#838),#771,.T.);
#835 = FACE_BOUND('',#836,.T.);
#836 = EDGE_LOOP('',(#837));
#837 = ORIENTED_EDGE('',*,*,#788,.T.);
#838 = FACE_BOUND('',#839,.T.);
#839 = EDGE_LOOP('',(#840));
#840 = ORIENTED_EDGE('',*,*,#756,.F.);
#841 = ( GEOMETRIC_REPRESENTATION_CONTEXT(3) 
GLOBAL_UNCERTAINTY_ASSIGNED_CONTEXT((#845)) GLOBAL_UNIT_ASSIGNED_CONTEXT
((#842,#843,#844)) REPRESENTATION_CONTEXT('Context #1',
  '3D Context with UNIT and UNCERTAINTY') );
#842 = ( LENGTH_UNIT() NAMED_UNIT(*) SI_UNIT(.MILLI.,.METRE.) );
#843 = ( NAMED_UNIT(*) PLANE_ANGLE_UNIT() SI_UNIT($,.RADIAN.) );
#844 = ( NAMED_UNIT(*) SI_UNIT($,.STERADIAN.) SOLID_ANGLE_UNIT() );
#845 = UNCERTAINTY_MEASURE_WITH_UNIT(LENGTH_MEASURE(1.E-07),#842,
  'distance_accuracy_value','confusion accuracy');
#846 = PRODUCT_RELATED_PRODUCT_CATEGORY('part',$,(#7));
ENDSEC;
END-ISO-10303-21;
