ISO-10303-21;
HEADER;
FILE_DESCRIPTION(('Open CASCADE Model'),'2;1');
FILE_NAME('m1_upper_collar','2026-07-11T16:47:30',('Author'),(
    'Open CASCADE'),'Open CASCADE STEP processor 7.9','build123d',
  'Unknown');
FILE_SCHEMA(('AUTOMOTIVE_DESIGN { 1 0 10303 214 1 1 1 1 }'));
ENDSEC;
DATA;
#1 = APPLICATION_PROTOCOL_DEFINITION('international standard',
  'automotive_design',2000,#2);
#2 = APPLICATION_CONTEXT(
  'core data for automotive mechanical design processes');
#3 = SHAPE_DEFINITION_REPRESENTATION(#4,#10);
#4 = PRODUCT_DEFINITION_SHAPE('','',#5);
#5 = PRODUCT_DEFINITION('design','',#6,#9);
#6 = PRODUCT_DEFINITION_FORMATION('','',#7);
#7 = PRODUCT('m1_upper_collar','m1_upper_collar','',(#8));
#8 = PRODUCT_CONTEXT('',#2,'mechanical');
#9 = PRODUCT_DEFINITION_CONTEXT('part definition',#2,'design');
#10 = ADVANCED_BREP_SHAPE_REPRESENTATION('',(#11,#15),#751);
#11 = AXIS2_PLACEMENT_3D('',#12,#13,#14);
#12 = CARTESIAN_POINT('',(0.,0.,0.));
#13 = DIRECTION('',(0.,0.,1.));
#14 = DIRECTION('',(1.,0.,-0.));
#15 = MANIFOLD_SOLID_BREP('',#16);
#16 = CLOSED_SHELL('',(#17,#316,#640,#670,#700));
#17 = ADVANCED_FACE('',(#18),#32,.T.);
#18 = FACE_BOUND('',#19,.T.);
#19 = EDGE_LOOP('',(#20,#50,#77,#78,#175,#198,#225,#226));
#20 = ORIENTED_EDGE('',*,*,#21,.T.);
#21 = EDGE_CURVE('',#22,#24,#26,.T.);
#22 = VERTEX_POINT('',#23);
#23 = CARTESIAN_POINT('',(8.,-1.959434878636E-15,1.5));
#24 = VERTEX_POINT('',#25);
#25 = CARTESIAN_POINT('',(8.,-1.959434878636E-15,4.5));
#26 = SEAM_CURVE('',#27,(#31,#43),.PCURVE_S1.);
#27 = LINE('',#28,#29);
#28 = CARTESIAN_POINT('',(8.,-1.959434878636E-15,-4.5));
#29 = VECTOR('',#30,1.);
#30 = DIRECTION('',(0.,0.,1.));
#31 = PCURVE('',#32,#37);
#32 = CYLINDRICAL_SURFACE('',#33,8.);
#33 = AXIS2_PLACEMENT_3D('',#34,#35,#36);
#34 = CARTESIAN_POINT('',(0.,0.,-4.5));
#35 = DIRECTION('',(0.,0.,1.));
#36 = DIRECTION('',(1.,0.,-0.));
#37 = DEFINITIONAL_REPRESENTATION('',(#38),#42);
#38 = LINE('',#39,#40);
#39 = CARTESIAN_POINT('',(6.28318530718,-0.));
#40 = VECTOR('',#41,1.);
#41 = DIRECTION('',(0.,1.));
#42 = ( GEOMETRIC_REPRESENTATION_CONTEXT(2) 
PARAMETRIC_REPRESENTATION_CONTEXT() REPRESENTATION_CONTEXT('2D SPACE',''
  ) );
#43 = PCURVE('',#32,#44);
#44 = DEFINITIONAL_REPRESENTATION('',(#45),#49);
#45 = LINE('',#46,#47);
#46 = CARTESIAN_POINT('',(0.,-0.));
#47 = VECTOR('',#48,1.);
#48 = DIRECTION('',(0.,1.));
#49 = ( GEOMETRIC_REPRESENTATION_CONTEXT(2) 
PARAMETRIC_REPRESENTATION_CONTEXT() REPRESENTATION_CONTEXT('2D SPACE',''
  ) );
#50 = ORIENTED_EDGE('',*,*,#51,.F.);
#51 = EDGE_CURVE('',#24,#24,#52,.T.);
#52 = SURFACE_CURVE('',#53,(#58,#65),.PCURVE_S1.);
#53 = CIRCLE('',#54,8.);
#54 = AXIS2_PLACEMENT_3D('',#55,#56,#57);
#55 = CARTESIAN_POINT('',(0.,0.,4.5));
#56 = DIRECTION('',(0.,0.,1.));
#57 = DIRECTION('',(1.,0.,-0.));
#58 = PCURVE('',#32,#59);
#59 = DEFINITIONAL_REPRESENTATION('',(#60),#64);
#60 = LINE('',#61,#62);
#61 = CARTESIAN_POINT('',(0.,9.));
#62 = VECTOR('',#63,1.);
#63 = DIRECTION('',(1.,0.));
#64 = ( GEOMETRIC_REPRESENTATION_CONTEXT(2) 
PARAMETRIC_REPRESENTATION_CONTEXT() REPRESENTATION_CONTEXT('2D SPACE',''
  ) );
#65 = PCURVE('',#66,#71);
#66 = PLANE('',#67);
#67 = AXIS2_PLACEMENT_3D('',#68,#69,#70);
#68 = CARTESIAN_POINT('',(0.,0.,4.5));
#69 = DIRECTION('',(0.,0.,1.));
#70 = DIRECTION('',(1.,0.,-0.));
#71 = DEFINITIONAL_REPRESENTATION('',(#72),#76);
#72 = CIRCLE('',#73,8.);
#73 = AXIS2_PLACEMENT_2D('',#74,#75);
#74 = CARTESIAN_POINT('',(0.,0.));
#75 = DIRECTION('',(1.,0.));
#76 = ( GEOMETRIC_REPRESENTATION_CONTEXT(2) 
PARAMETRIC_REPRESENTATION_CONTEXT() REPRESENTATION_CONTEXT('2D SPACE',''
  ) );
#77 = ORIENTED_EDGE('',*,*,#21,.F.);
#78 = ORIENTED_EDGE('',*,*,#79,.F.);
#79 = EDGE_CURVE('',#80,#22,#82,.T.);
#80 = VERTEX_POINT('',#81);
#81 = CARTESIAN_POINT('',(8.,-1.16341445919E-15,-1.5));
#82 = SURFACE_CURVE('',#83,(#110,#140),.PCURVE_S1.);
#83 = B_SPLINE_CURVE_WITH_KNOTS('',7,(#84,#85,#86,#87,#88,#89,#90,#91,
    #92,#93,#94,#95,#96,#97,#98,#99,#100,#101,#102,#103,#104,#105,#106,
    #107,#108,#109),.UNSPECIFIED.,.F.,.F.,(8,6,6,6,8),(0.,0.248647800436
    ,0.500017761411,0.751402173243,1.),.UNSPECIFIED.);
#84 = CARTESIAN_POINT('',(8.,-1.836970198721E-16,-1.5));
#85 = CARTESIAN_POINT('',(8.,0.196839229896,-1.5));
#86 = CARTESIAN_POINT('',(7.994349373926,0.389144131693,-1.46986470252)
  );
#87 = CARTESIAN_POINT('',(7.983518282573,0.57149236684,-1.412091561445)
  );
#88 = CARTESIAN_POINT('',(7.96886216133,0.739238956373,-1.330265420363)
  );
#89 = CARTESIAN_POINT('',(7.952329954698,0.888705496018,-1.229027120576)
  );
#90 = CARTESIAN_POINT('',(7.935769614961,1.01753565903,-1.114051141449)
  );
#91 = CARTESIAN_POINT('',(7.905022575294,1.23397587805,-0.868547903547)
  );
#92 = CARTESIAN_POINT('',(7.890498309909,1.323693737298,-0.734943674917)
  );
#93 = CARTESIAN_POINT('',(7.877963405463,1.394692825904,-0.594203105777)
  );
#94 = CARTESIAN_POINT('',(7.868143194979,1.447474621041,-0.44863661978)
  );
#95 = CARTESIAN_POINT('',(7.861460389731,1.482483852589,-0.300081774873)
  );
#96 = CARTESIAN_POINT('',(7.858116822751,1.5,-0.150069971171));
#97 = CARTESIAN_POINT('',(7.858116822751,1.5,0.150078598453));
#98 = CARTESIAN_POINT('',(7.86146076861,1.482481858175,0.300088369657));
#99 = CARTESIAN_POINT('',(7.868143507426,1.44747301273,0.448634816558));
#100 = CARTESIAN_POINT('',(7.877962834985,1.394695464647,0.594191878185)
  );
#101 = CARTESIAN_POINT('',(7.890496742203,1.323702352366,0.734927730892)
  );
#102 = CARTESIAN_POINT('',(7.905021080645,1.233986399464,0.868535969345)
  );
#103 = CARTESIAN_POINT('',(7.935767141307,1.017553072036,1.114031390271)
  );
#104 = CARTESIAN_POINT('',(7.952327838376,0.888724359883,1.229015826886)
  );
#105 = CARTESIAN_POINT('',(7.968862685278,0.739241946295,1.330271285947)
  );
#106 = CARTESIAN_POINT('',(7.983521327621,0.571469372283,1.41210784641)
  );
#107 = CARTESIAN_POINT('',(7.994351760739,0.38909976412,1.469877409154)
  );
#108 = CARTESIAN_POINT('',(8.,0.196797733952,1.5));
#109 = CARTESIAN_POINT('',(8.,2.755455298082E-16,1.5));
#110 = PCURVE('',#32,#111);
#111 = DEFINITIONAL_REPRESENTATION('',(#112),#139);
#112 = B_SPLINE_CURVE_WITH_KNOTS('',7,(#113,#114,#115,#116,#117,#118,
    #119,#120,#121,#122,#123,#124,#125,#126,#127,#128,#129,#130,#131,
    #132,#133,#134,#135,#136,#137,#138),.UNSPECIFIED.,.F.,.F.,(8,6,6,6,8
    ),(0.,0.248647800436,0.500017761411,0.751402173243,1.),
  .UNSPECIFIED.);
#113 = CARTESIAN_POINT('',(0.,3.));
#114 = CARTESIAN_POINT('',(2.460490373698E-02,3.));
#115 = CARTESIAN_POINT('',(4.864304399924E-02,3.03013529748));
#116 = CARTESIAN_POINT('',(7.146075202992E-02,3.087908438555));
#117 = CARTESIAN_POINT('',(9.249745848448E-02,3.169734579637));
#118 = CARTESIAN_POINT('',(0.111289933511,3.270972879424));
#119 = CARTESIAN_POINT('',(0.127524751443,3.385948858551));
#120 = CARTESIAN_POINT('',(0.154851406487,3.631452096453));
#121 = CARTESIAN_POINT('',(0.166210010434,3.765056325083));
#122 = CARTESIAN_POINT('',(0.175221292752,3.905796894223));
#123 = CARTESIAN_POINT('',(0.181932166684,4.05136338022));
#124 = CARTESIAN_POINT('',(0.186387334514,4.199918225127));
#125 = CARTESIAN_POINT('',(0.188616386175,4.349930028829));
#126 = CARTESIAN_POINT('',(0.188616386175,4.650078598453));
#127 = CARTESIAN_POINT('',(0.186387080726,4.800088369657));
#128 = CARTESIAN_POINT('',(0.181931961874,4.948634816558));
#129 = CARTESIAN_POINT('',(0.175221630353,5.094191878185));
#130 = CARTESIAN_POINT('',(0.166211104234,5.234927730892));
#131 = CARTESIAN_POINT('',(0.154852734868,5.368535969345));
#132 = CARTESIAN_POINT('',(0.127526949921,5.614031390271));
#133 = CARTESIAN_POINT('',(0.111292305864,5.729015826886));
#134 = CARTESIAN_POINT('',(9.249781908714E-02,5.830271285947));
#135 = CARTESIAN_POINT('',(7.145786172201E-02,5.91210784641));
#136 = CARTESIAN_POINT('',(4.86374979176E-02,5.969877409154));
#137 = CARTESIAN_POINT('',(2.459971674398E-02,6.));
#138 = CARTESIAN_POINT('',(0.,6.));
#139 = ( GEOMETRIC_REPRESENTATION_CONTEXT(2) 
PARAMETRIC_REPRESENTATION_CONTEXT() REPRESENTATION_CONTEXT('2D SPACE',''
  ) );
#140 = PCURVE('',#141,#146);
#141 = CYLINDRICAL_SURFACE('',#142,1.5);
#142 = AXIS2_PLACEMENT_3D('',#143,#144,#145);
#143 = CARTESIAN_POINT('',(0.,0.,0.));
#144 = DIRECTION('',(1.,0.,0.));
#145 = DIRECTION('',(0.,0.,-1.));
#146 = DEFINITIONAL_REPRESENTATION('',(#147),#174);
#147 = B_SPLINE_CURVE_WITH_KNOTS('',7,(#148,#149,#150,#151,#152,#153,
    #154,#155,#156,#157,#158,#159,#160,#161,#162,#163,#164,#165,#166,
    #167,#168,#169,#170,#171,#172,#173),.UNSPECIFIED.,.F.,.F.,(8,6,6,6,8
    ),(0.,0.248647800436,0.500017761411,0.751402173243,1.),
  .UNSPECIFIED.);
#148 = CARTESIAN_POINT('',(0.,8.));
#149 = CARTESIAN_POINT('',(0.131226153264,8.));
#150 = CARTESIAN_POINT('',(0.259429333906,7.994349373926));
#151 = CARTESIAN_POINT('',(0.384686080046,7.983518282573));
#152 = CARTESIAN_POINT('',(0.506824572956,7.96886216133));
#153 = CARTESIAN_POINT('',(0.625433040681,7.952329954698));
#154 = CARTESIAN_POINT('',(0.739727557383,7.935769614961));
#155 = CARTESIAN_POINT('',(0.957920344951,7.905022575294));
#156 = CARTESIAN_POINT('',(1.064286734877,7.890498309909));
#157 = CARTESIAN_POINT('',(1.168124369222,7.877963405463));
#158 = CARTESIAN_POINT('',(1.270069391165,7.868143194979));
#159 = CARTESIAN_POINT('',(1.370741878055,7.861460389731));
#160 = CARTESIAN_POINT('',(1.470749679348,7.858116822751));
#161 = CARTESIAN_POINT('',(1.670848725763,7.858116822751));
#162 = CARTESIAN_POINT('',(1.770855162826,7.86146076861));
#163 = CARTESIAN_POINT('',(1.87152235966,7.868143507426));
#164 = CARTESIAN_POINT('',(1.97346087605,7.877962834985));
#165 = CARTESIAN_POINT('',(2.077294148678,7.890496742203));
#166 = CARTESIAN_POINT('',(2.18366170203,7.905021080645));
#167 = CARTESIAN_POINT('',(2.401847542203,7.935767141307));
#168 = CARTESIAN_POINT('',(2.51614565277,7.952327838376));
#169 = CARTESIAN_POINT('',(2.63476866171,7.968862685278));
#170 = CARTESIAN_POINT('',(2.756924206971,7.983521327621));
#171 = CARTESIAN_POINT('',(2.882192904037,7.994351760739));
#172 = CARTESIAN_POINT('',(3.010394164289,8.));
#173 = CARTESIAN_POINT('',(3.14159265359,8.));
#174 = ( GEOMETRIC_REPRESENTATION_CONTEXT(2) 
PARAMETRIC_REPRESENTATION_CONTEXT() REPRESENTATION_CONTEXT('2D SPACE',''
  ) );
#175 = ORIENTED_EDGE('',*,*,#176,.F.);
#176 = EDGE_CURVE('',#177,#80,#179,.T.);
#177 = VERTEX_POINT('',#178);
#178 = CARTESIAN_POINT('',(8.,-1.959434878636E-15,-4.5));
#179 = SEAM_CURVE('',#180,(#184,#191),.PCURVE_S1.);
#180 = LINE('',#181,#182);
#181 = CARTESIAN_POINT('',(8.,-1.959434878636E-15,-4.5));
#182 = VECTOR('',#183,1.);
#183 = DIRECTION('',(0.,0.,1.));
#184 = PCURVE('',#32,#185);
#185 = DEFINITIONAL_REPRESENTATION('',(#186),#190);
#186 = LINE('',#187,#188);
#187 = CARTESIAN_POINT('',(6.28318530718,-0.));
#188 = VECTOR('',#189,1.);
#189 = DIRECTION('',(0.,1.));
#190 = ( GEOMETRIC_REPRESENTATION_CONTEXT(2) 
PARAMETRIC_REPRESENTATION_CONTEXT() REPRESENTATION_CONTEXT('2D SPACE',''
  ) );
#191 = PCURVE('',#32,#192);
#192 = DEFINITIONAL_REPRESENTATION('',(#193),#197);
#193 = LINE('',#194,#195);
#194 = CARTESIAN_POINT('',(0.,-0.));
#195 = VECTOR('',#196,1.);
#196 = DIRECTION('',(0.,1.));
#197 = ( GEOMETRIC_REPRESENTATION_CONTEXT(2) 
PARAMETRIC_REPRESENTATION_CONTEXT() REPRESENTATION_CONTEXT('2D SPACE',''
  ) );
#198 = ORIENTED_EDGE('',*,*,#199,.T.);
#199 = EDGE_CURVE('',#177,#177,#200,.T.);
#200 = SURFACE_CURVE('',#201,(#206,#213),.PCURVE_S1.);
#201 = CIRCLE('',#202,8.);
#202 = AXIS2_PLACEMENT_3D('',#203,#204,#205);
#203 = CARTESIAN_POINT('',(0.,0.,-4.5));
#204 = DIRECTION('',(0.,0.,1.));
#205 = DIRECTION('',(1.,0.,-0.));
#206 = PCURVE('',#32,#207);
#207 = DEFINITIONAL_REPRESENTATION('',(#208),#212);
#208 = LINE('',#209,#210);
#209 = CARTESIAN_POINT('',(0.,0.));
#210 = VECTOR('',#211,1.);
#211 = DIRECTION('',(1.,0.));
#212 = ( GEOMETRIC_REPRESENTATION_CONTEXT(2) 
PARAMETRIC_REPRESENTATION_CONTEXT() REPRESENTATION_CONTEXT('2D SPACE',''
  ) );
#213 = PCURVE('',#214,#219);
#214 = PLANE('',#215);
#215 = AXIS2_PLACEMENT_3D('',#216,#217,#218);
#216 = CARTESIAN_POINT('',(0.,0.,-4.5));
#217 = DIRECTION('',(0.,0.,1.));
#218 = DIRECTION('',(1.,0.,-0.));
#219 = DEFINITIONAL_REPRESENTATION('',(#220),#224);
#220 = CIRCLE('',#221,8.);
#221 = AXIS2_PLACEMENT_2D('',#222,#223);
#222 = CARTESIAN_POINT('',(0.,0.));
#223 = DIRECTION('',(1.,0.));
#224 = ( GEOMETRIC_REPRESENTATION_CONTEXT(2) 
PARAMETRIC_REPRESENTATION_CONTEXT() REPRESENTATION_CONTEXT('2D SPACE',''
  ) );
#225 = ORIENTED_EDGE('',*,*,#176,.T.);
#226 = ORIENTED_EDGE('',*,*,#227,.F.);
#227 = EDGE_CURVE('',#22,#80,#228,.T.);
#228 = SURFACE_CURVE('',#229,(#256,#286),.PCURVE_S1.);
#229 = B_SPLINE_CURVE_WITH_KNOTS('',7,(#230,#231,#232,#233,#234,#235,
    #236,#237,#238,#239,#240,#241,#242,#243,#244,#245,#246,#247,#248,
    #249,#250,#251,#252,#253,#254,#255),.UNSPECIFIED.,.F.,.F.,(8,6,6,6,8
    ),(0.,0.248601530579,0.500043847921,0.751437286048,1.),
  .UNSPECIFIED.);
#230 = CARTESIAN_POINT('',(8.,-6.661338147751E-16,1.5));
#231 = CARTESIAN_POINT('',(8.,-0.196839229896,1.5));
#232 = CARTESIAN_POINT('',(7.994349373926,-0.389144131693,1.469864702519
    ));
#233 = CARTESIAN_POINT('',(7.983518282573,-0.57149236684,1.412091561445)
  );
#234 = CARTESIAN_POINT('',(7.96886216133,-0.739238956373,1.330265420363)
  );
#235 = CARTESIAN_POINT('',(7.952329954698,-0.888705496017,1.229027120577
    ));
#236 = CARTESIAN_POINT('',(7.935769614961,-1.01753565903,1.114051141449)
  );
#237 = CARTESIAN_POINT('',(7.905015248231,-1.234027456066,0.868489399772
    ));
#238 = CARTESIAN_POINT('',(7.890492477364,-1.323722889328,0.734880430242
    ));
#239 = CARTESIAN_POINT('',(7.877963623771,-1.394690081978,0.594179409152
    ));
#240 = CARTESIAN_POINT('',(7.868146115827,-1.447459427442,0.448660763829
    ));
#241 = CARTESIAN_POINT('',(7.86146206666,-1.482475042075,0.300130434669)
  );
#242 = CARTESIAN_POINT('',(7.858116822751,-1.5,0.150107778705));
#243 = CARTESIAN_POINT('',(7.858116822751,-1.5,-0.150078598452));
#244 = CARTESIAN_POINT('',(7.86146076861,-1.482481858175,-0.300088369657
    ));
#245 = CARTESIAN_POINT('',(7.868143507426,-1.44747301273,-0.448634816557
    ));
#246 = CARTESIAN_POINT('',(7.877962834985,-1.394695464647,
    -0.594191878186));
#247 = CARTESIAN_POINT('',(7.890496742203,-1.323702352366,
    -0.734927730892));
#248 = CARTESIAN_POINT('',(7.905021080645,-1.233986399464,
    -0.868535969346));
#249 = CARTESIAN_POINT('',(7.935764433253,-1.017572135063,
    -1.114009767511));
#250 = CARTESIAN_POINT('',(7.952326295246,-0.888739537584,
    -1.229009650426));
#251 = CARTESIAN_POINT('',(7.968864409532,-0.739235037669,
    -1.330283628502));
#252 = CARTESIAN_POINT('',(7.983524873616,-0.571436193451,
    -1.412126629085));
#253 = CARTESIAN_POINT('',(7.994353983334,-0.389051856206,
    -1.469889297888));
#254 = CARTESIAN_POINT('',(8.,-0.196758896714,-1.5));
#255 = CARTESIAN_POINT('',(8.,-1.110223024625E-15,-1.5));
#256 = PCURVE('',#32,#257);
#257 = DEFINITIONAL_REPRESENTATION('',(#258),#285);
#258 = B_SPLINE_CURVE_WITH_KNOTS('',7,(#259,#260,#261,#262,#263,#264,
    #265,#266,#267,#268,#269,#270,#271,#272,#273,#274,#275,#276,#277,
    #278,#279,#280,#281,#282,#283,#284),.UNSPECIFIED.,.F.,.F.,(8,6,6,6,8
    ),(0.,0.248601530579,0.500043847921,0.751437286048,1.),
  .UNSPECIFIED.);
#259 = CARTESIAN_POINT('',(6.28318530718,6.));
#260 = CARTESIAN_POINT('',(6.258580403443,6.));
#261 = CARTESIAN_POINT('',(6.23454226318,5.969864702519));
#262 = CARTESIAN_POINT('',(6.21172455515,5.912091561445));
#263 = CARTESIAN_POINT('',(6.190687848695,5.830265420363));
#264 = CARTESIAN_POINT('',(6.171895373668,5.729027120577));
#265 = CARTESIAN_POINT('',(6.155660555737,5.614051141449));
#266 = CARTESIAN_POINT('',(6.128327388712,5.368489399772));
#267 = CARTESIAN_POINT('',(6.116971586027,5.234880430242));
#268 = CARTESIAN_POINT('',(6.107964353591,5.094179409152));
#269 = CARTESIAN_POINT('',(6.101255075654,4.948660763829));
#270 = CARTESIAN_POINT('',(6.096799093496,4.800130434669));
#271 = CARTESIAN_POINT('',(6.094568921004,4.650107778705));
#272 = CARTESIAN_POINT('',(6.094568921004,4.349921401548));
#273 = CARTESIAN_POINT('',(6.096798226453,4.199911630343));
#274 = CARTESIAN_POINT('',(6.101253345305,4.051365183443));
#275 = CARTESIAN_POINT('',(6.107963676827,3.905808121814));
#276 = CARTESIAN_POINT('',(6.116974202945,3.765072269108));
#277 = CARTESIAN_POINT('',(6.128332572312,3.631464030654));
#278 = CARTESIAN_POINT('',(6.155655950456,3.385990232489));
#279 = CARTESIAN_POINT('',(6.171891095835,3.270990349574));
#280 = CARTESIAN_POINT('',(6.190688371571,3.169716371498));
#281 = CARTESIAN_POINT('',(6.211731608797,3.087873370915));
#282 = CARTESIAN_POINT('',(6.234553797257,3.030110702112));
#283 = CARTESIAN_POINT('',(6.25859044509,3.));
#284 = CARTESIAN_POINT('',(6.28318530718,3.));
#285 = ( GEOMETRIC_REPRESENTATION_CONTEXT(2) 
PARAMETRIC_REPRESENTATION_CONTEXT() REPRESENTATION_CONTEXT('2D SPACE',''
  ) );
#286 = PCURVE('',#141,#287);
#287 = DEFINITIONAL_REPRESENTATION('',(#288),#315);
#288 = B_SPLINE_CURVE_WITH_KNOTS('',7,(#289,#290,#291,#292,#293,#294,
    #295,#296,#297,#298,#299,#300,#301,#302,#303,#304,#305,#306,#307,
    #308,#309,#310,#311,#312,#313,#314),.UNSPECIFIED.,.F.,.F.,(8,6,6,6,8
    ),(0.,0.248601530579,0.500043847921,0.751437286048,1.),
  .UNSPECIFIED.);
#289 = CARTESIAN_POINT('',(3.14159265359,8.));
#290 = CARTESIAN_POINT('',(3.272818806854,8.));
#291 = CARTESIAN_POINT('',(3.401021987496,7.994349373926));
#292 = CARTESIAN_POINT('',(3.526278733636,7.983518282573));
#293 = CARTESIAN_POINT('',(3.648417226546,7.96886216133));
#294 = CARTESIAN_POINT('',(3.767025694271,7.952329954698));
#295 = CARTESIAN_POINT('',(3.881320210973,7.935769614961));
#296 = CARTESIAN_POINT('',(4.099564994196,7.905015248231));
#297 = CARTESIAN_POINT('',(4.205923880572,7.890492477364));
#298 = CARTESIAN_POINT('',(4.309730667387,7.877963623771));
#299 = CARTESIAN_POINT('',(4.411644639916,7.868146115827));
#300 = CARTESIAN_POINT('',(4.512302111861,7.86146206666));
#301 = CARTESIAN_POINT('',(4.612317127915,7.858116822751));
#302 = CARTESIAN_POINT('',(4.812441379353,7.858116822751));
#303 = CARTESIAN_POINT('',(4.912447816415,7.86146076861));
#304 = CARTESIAN_POINT('',(5.013115013249,7.868143507426));
#305 = CARTESIAN_POINT('',(5.11505352964,7.877962834985));
#306 = CARTESIAN_POINT('',(5.218886802268,7.890496742203));
#307 = CARTESIAN_POINT('',(5.32525435562,7.905021080645));
#308 = CARTESIAN_POINT('',(5.543420978408,7.935764433253));
#309 = CARTESIAN_POINT('',(5.657728533194,7.952326295246));
#310 = CARTESIAN_POINT('',(5.776369393366,7.968864409532));
#311 = CARTESIAN_POINT('',(5.898541140263,7.983524873616));
#312 = CARTESIAN_POINT('',(6.023817500822,7.994353983334));
#313 = CARTESIAN_POINT('',(6.15201270937,8.));
#314 = CARTESIAN_POINT('',(6.28318530718,8.));
#315 = ( GEOMETRIC_REPRESENTATION_CONTEXT(2) 
PARAMETRIC_REPRESENTATION_CONTEXT() REPRESENTATION_CONTEXT('2D SPACE',''
  ) );
#316 = ADVANCED_FACE('',(#317),#141,.F.);
#317 = FACE_BOUND('',#318,.F.);
#318 = EDGE_LOOP('',(#319,#320,#343,#494,#638,#639));
#319 = ORIENTED_EDGE('',*,*,#79,.F.);
#320 = ORIENTED_EDGE('',*,*,#321,.F.);
#321 = EDGE_CURVE('',#322,#80,#324,.T.);
#322 = VERTEX_POINT('',#323);
#323 = CARTESIAN_POINT('',(4.025,-6.766173565289E-16,-1.5));
#324 = SEAM_CURVE('',#325,(#329,#336),.PCURVE_S1.);
#325 = LINE('',#326,#327);
#326 = CARTESIAN_POINT('',(0.,-3.673940397442E-16,-1.5));
#327 = VECTOR('',#328,1.);
#328 = DIRECTION('',(1.,0.,0.));
#329 = PCURVE('',#141,#330);
#330 = DEFINITIONAL_REPRESENTATION('',(#331),#335);
#331 = LINE('',#332,#333);
#332 = CARTESIAN_POINT('',(6.28318530718,-0.));
#333 = VECTOR('',#334,1.);
#334 = DIRECTION('',(0.,1.));
#335 = ( GEOMETRIC_REPRESENTATION_CONTEXT(2) 
PARAMETRIC_REPRESENTATION_CONTEXT() REPRESENTATION_CONTEXT('2D SPACE',''
  ) );
#336 = PCURVE('',#141,#337);
#337 = DEFINITIONAL_REPRESENTATION('',(#338),#342);
#338 = LINE('',#339,#340);
#339 = CARTESIAN_POINT('',(0.,-0.));
#340 = VECTOR('',#341,1.);
#341 = DIRECTION('',(0.,1.));
#342 = ( GEOMETRIC_REPRESENTATION_CONTEXT(2) 
PARAMETRIC_REPRESENTATION_CONTEXT() REPRESENTATION_CONTEXT('2D SPACE',''
  ) );
#343 = ORIENTED_EDGE('',*,*,#344,.T.);
#344 = EDGE_CURVE('',#322,#345,#347,.T.);
#345 = VERTEX_POINT('',#346);
#346 = CARTESIAN_POINT('',(4.025,-9.858406733136E-16,1.5));
#347 = SURFACE_CURVE('',#348,(#393,#441),.PCURVE_S1.);
#348 = B_SPLINE_CURVE_WITH_KNOTS('',7,(#349,#350,#351,#352,#353,#354,
    #355,#356,#357,#358,#359,#360,#361,#362,#363,#364,#365,#366,#367,
    #368,#369,#370,#371,#372,#373,#374,#375,#376,#377,#378,#379,#380,
    #381,#382,#383,#384,#385,#386,#387,#388,#389,#390,#391,#392),
  .UNSPECIFIED.,.F.,.F.,(8,6,6,6,6,6,6,8),(0.,0.144974388373,
    0.210730557954,0.48125045373,0.519337881442,0.790506283081,
    0.85564701229,1.),.UNSPECIFIED.);
#349 = CARTESIAN_POINT('',(4.025,-1.836970198721E-16,-1.5));
#350 = CARTESIAN_POINT('',(4.025,0.113090254305,-1.5));
#351 = CARTESIAN_POINT('',(4.021292949706,0.22552359094,-1.490052654909)
  );
#352 = CARTESIAN_POINT('',(4.01395625566,0.335923853122,-1.470366144222)
  );
#353 = CARTESIAN_POINT('',(4.003316107731,0.442952231739,-1.441456928921
    ));
#354 = CARTESIAN_POINT('',(3.989929348722,0.54535932811,-1.404145964777)
  );
#355 = CARTESIAN_POINT('',(3.974518325933,0.642042155892,-1.359569738624
    ));
#356 = CARTESIAN_POINT('',(3.950302413682,0.772956461786,-1.286362657201
    ));
#357 = CARTESIAN_POINT('',(3.942465556899,0.812573209366,-1.262256962237
    ));
#358 = CARTESIAN_POINT('',(3.934402964832,0.850937045203,-1.236968954305
    ));
#359 = CARTESIAN_POINT('',(3.926168339481,0.888032203366,-1.210575651202
    ));
#360 = CARTESIAN_POINT('',(3.917813842691,0.92384624511,-1.183151314284)
  );
#361 = CARTESIAN_POINT('',(3.909389664485,0.958369872318,-1.154767585849
    ));
#362 = CARTESIAN_POINT('',(3.866196573387,1.128291580361,-1.005060996719
    ));
#363 = CARTESIAN_POINT('',(3.831015840669,1.243287500647,-0.869342701727
    ));
#364 = CARTESIAN_POINT('',(3.79858646927,1.336555299184,-0.722559506095)
  );
#365 = CARTESIAN_POINT('',(3.771446265529,1.408421185773,-0.567881910071
    ));
#366 = CARTESIAN_POINT('',(3.751379218874,1.459213534579,-0.407827565235
    ));
#367 = CARTESIAN_POINT('',(3.739427399343,1.489092739355,-0.244505657013
    ));
#368 = CARTESIAN_POINT('',(3.735411955825,1.499107832564,
    -5.669650694213E-02));
#369 = CARTESIAN_POINT('',(3.735083723737,1.499925109032,
    -3.350086510804E-02));
#370 = CARTESIAN_POINT('',(3.734923511055,1.500323624412,
    -1.029526646282E-02));
#371 = CARTESIAN_POINT('',(3.734931650739,1.50030337695,
    1.291346834047E-02));
#372 = CARTESIAN_POINT('',(3.7351081317,1.499864366706,
    3.611851822041E-02));
#373 = CARTESIAN_POINT('',(3.735452598799,1.499006595562,
    5.931306166722E-02));
#374 = CARTESIAN_POINT('',(3.739607852448,1.488641657416,0.247503477794)
  );
#375 = CARTESIAN_POINT('',(3.751720584764,1.458352787409,0.411171603223)
  );
#376 = CARTESIAN_POINT('',(3.771975561458,1.407051964619,0.571524799887)
  );
#377 = CARTESIAN_POINT('',(3.799314657171,1.334574781701,0.726438883745)
  );
#378 = CARTESIAN_POINT('',(3.831931936066,1.240587186812,0.873373594011)
  );
#379 = CARTESIAN_POINT('',(3.867259934332,1.124758425204,1.009124841775)
  );
#380 = CARTESIAN_POINT('',(3.910442263747,0.954059450689,1.158317230526)
  );
#381 = CARTESIAN_POINT('',(3.918780534956,0.919723706205,1.186335144621)
  );
#382 = CARTESIAN_POINT('',(3.927046260746,0.884121989902,1.213405735989)
  );
#383 = CARTESIAN_POINT('',(3.935190448407,0.847263763669,1.239458952543)
  );
#384 = CARTESIAN_POINT('',(3.943162232802,0.809161554488,1.264422270984)
  );
#385 = CARTESIAN_POINT('',(3.950909295567,0.76983113142,1.288220564306)
  );
#386 = CARTESIAN_POINT('',(3.974929693132,0.639455559656,1.360759138653)
  );
#387 = CARTESIAN_POINT('',(3.990226762891,0.543078482414,1.404974725488)
  );
#388 = CARTESIAN_POINT('',(4.003505005236,0.44104697013,1.441970120375)
  );
#389 = CARTESIAN_POINT('',(4.01405381998,0.334451293573,1.470627933619)
  );
#390 = CARTESIAN_POINT('',(4.021325760434,0.224524896426,1.490140699881)
  );
#391 = CARTESIAN_POINT('',(4.025,0.112588658392,1.5));
#392 = CARTESIAN_POINT('',(4.025,2.755455298082E-16,1.5));
#393 = PCURVE('',#141,#394);
#394 = DEFINITIONAL_REPRESENTATION('',(#395),#440);
#395 = B_SPLINE_CURVE_WITH_KNOTS('',7,(#396,#397,#398,#399,#400,#401,
    #402,#403,#404,#405,#406,#407,#408,#409,#410,#411,#412,#413,#414,
    #415,#416,#417,#418,#419,#420,#421,#422,#423,#424,#425,#426,#427,
    #428,#429,#430,#431,#432,#433,#434,#435,#436,#437,#438,#439),
  .UNSPECIFIED.,.F.,.F.,(8,6,6,6,6,6,6,8),(0.,0.144974388373,
    0.210730557954,0.48125045373,0.519337881442,0.790506283081,
    0.85564701229,1.),.UNSPECIFIED.);
#396 = CARTESIAN_POINT('',(0.,4.025));
#397 = CARTESIAN_POINT('',(7.539350287026E-02,4.025));
#398 = CARTESIAN_POINT('',(0.150348934324,4.021292949706));
#399 = CARTESIAN_POINT('',(0.224649540601,4.01395625566));
#400 = CARTESIAN_POINT('',(0.298064348184,4.003316107731));
#401 = CARTESIAN_POINT('',(0.370324266589,3.989929348722));
#402 = CARTESIAN_POINT('',(0.441085168344,3.974518325933));
#403 = CARTESIAN_POINT('',(0.541080351024,3.950302413682));
#404 = CARTESIAN_POINT('',(0.57197565448,3.942465556899));
#405 = CARTESIAN_POINT('',(0.602576222478,3.934402964832));
#406 = CARTESIAN_POINT('',(0.632893087069,3.926168339481));
#407 = CARTESIAN_POINT('',(0.662936175266,3.917813842691));
#408 = CARTESIAN_POINT('',(0.692714537923,3.909389664485));
#409 = CARTESIAN_POINT('',(0.843689811386,3.866196573387));
#410 = CARTESIAN_POINT('',(0.961025515437,3.831015840669));
#411 = CARTESIAN_POINT('',(1.075293833845,3.79858646927));
#412 = CARTESIAN_POINT('',(1.187300125017,3.771446265529));
#413 = CARTESIAN_POINT('',(1.29782406312,3.751379218874));
#414 = CARTESIAN_POINT('',(1.407611417668,3.739427399343));
#415 = CARTESIAN_POINT('',(1.532995412645,3.735411955825));
#416 = CARTESIAN_POINT('',(1.548466251681,3.735083723737));
#417 = CARTESIAN_POINT('',(1.563934899353,3.734923511055));
#418 = CARTESIAN_POINT('',(1.579402856992,3.734931650739));
#419 = CARTESIAN_POINT('',(1.594871625847,3.7351081317));
#420 = CARTESIAN_POINT('',(1.610342707082,3.735452598799));
#421 = CARTESIAN_POINT('',(1.735993129842,3.739607852448));
#422 = CARTESIAN_POINT('',(1.846050398048,3.751720584764));
#423 = CARTESIAN_POINT('',(1.956856668127,3.771975561458));
#424 = CARTESIAN_POINT('',(2.069164472309,3.799314657171));
#425 = CARTESIAN_POINT('',(2.183761213448,3.831931936066));
#426 = CARTESIAN_POINT('',(2.301460221598,3.867259934332));
#427 = CARTESIAN_POINT('',(2.452598875764,3.910442263747));
#428 = CARTESIAN_POINT('',(2.48212623885,3.918780534956));
#429 = CARTESIAN_POINT('',(2.511914462492,3.927046260746));
#430 = CARTESIAN_POINT('',(2.541972194182,3.935190448407));
#431 = CARTESIAN_POINT('',(2.572308943163,3.943162232802));
#432 = CARTESIAN_POINT('',(2.602935293624,3.950909295567));
#433 = CARTESIAN_POINT('',(2.702399713797,3.974929693132));
#434 = CARTESIAN_POINT('',(2.772877308517,3.990226762891));
#435 = CARTESIAN_POINT('',(2.844834983323,4.003505005236));
#436 = CARTESIAN_POINT('',(2.917934098257,4.01405381998));
#437 = CARTESIAN_POINT('',(2.991909514535,4.021325760434));
#438 = CARTESIAN_POINT('',(3.066533547995,4.025));
#439 = CARTESIAN_POINT('',(3.14159265359,4.025));
#440 = ( GEOMETRIC_REPRESENTATION_CONTEXT(2) 
PARAMETRIC_REPRESENTATION_CONTEXT() REPRESENTATION_CONTEXT('2D SPACE',''
  ) );
#441 = PCURVE('',#442,#447);
#442 = CYLINDRICAL_SURFACE('',#443,4.025);
#443 = AXIS2_PLACEMENT_3D('',#444,#445,#446);
#444 = CARTESIAN_POINT('',(0.,0.,-5.5));
#445 = DIRECTION('',(0.,0.,1.));
#446 = DIRECTION('',(1.,0.,-0.));
#447 = DEFINITIONAL_REPRESENTATION('',(#448),#493);
#448 = B_SPLINE_CURVE_WITH_KNOTS('',7,(#449,#450,#451,#452,#453,#454,
    #455,#456,#457,#458,#459,#460,#461,#462,#463,#464,#465,#466,#467,
    #468,#469,#470,#471,#472,#473,#474,#475,#476,#477,#478,#479,#480,
    #481,#482,#483,#484,#485,#486,#487,#488,#489,#490,#491,#492),
  .UNSPECIFIED.,.F.,.F.,(8,6,6,6,6,6,6,8),(0.,0.144974388373,
    0.210730557954,0.48125045373,0.519337881442,0.790506283081,
    0.85564701229,1.),.UNSPECIFIED.);
#449 = CARTESIAN_POINT('',(0.,4.));
#450 = CARTESIAN_POINT('',(2.80969575914E-02,4.));
#451 = CARTESIAN_POINT('',(5.603074805784E-02,4.009947345091));
#452 = CARTESIAN_POINT('',(8.349545922739E-02,4.029633855778));
#453 = CARTESIAN_POINT('',(0.110193393681,4.058543071079));
#454 = CARTESIAN_POINT('',(0.135835806537,4.095854035223));
#455 = CARTESIAN_POINT('',(0.160152157607,4.140430261376));
#456 = CARTESIAN_POINT('',(0.193229211388,4.213637342799));
#457 = CARTESIAN_POINT('',(0.203261842182,4.237743037763));
#458 = CARTESIAN_POINT('',(0.213000382016,4.263031045695));
#459 = CARTESIAN_POINT('',(0.22243989257,4.289424348798));
#460 = CARTESIAN_POINT('',(0.231575909272,4.316848685716));
#461 = CARTESIAN_POINT('',(0.240404465059,4.345232414151));
#462 = CARTESIAN_POINT('',(0.283963594809,4.494939003281));
#463 = CARTESIAN_POINT('',(0.313806730564,4.630657298273));
#464 = CARTESIAN_POINT('',(0.338319932356,4.777440493905));
#465 = CARTESIAN_POINT('',(0.357402431852,4.932118089929));
#466 = CARTESIAN_POINT('',(0.370970586636,5.092172434765));
#467 = CARTESIAN_POINT('',(0.378965861658,5.255494342987));
#468 = CARTESIAN_POINT('',(0.381646627477,5.443303493058));
#469 = CARTESIAN_POINT('',(0.38186544121,5.466499134892));
#470 = CARTESIAN_POINT('',(0.38197215283,5.489704733537));
#471 = CARTESIAN_POINT('',(0.381966731135,5.51291346834));
#472 = CARTESIAN_POINT('',(0.381849177164,5.53611851822));
#473 = CARTESIAN_POINT('',(0.381619524199,5.559313061667));
#474 = CARTESIAN_POINT('',(0.378845156682,5.747503477794));
#475 = CARTESIAN_POINT('',(0.370740533457,5.911171603223));
#476 = CARTESIAN_POINT('',(0.3570377447,6.071524799887));
#477 = CARTESIAN_POINT('',(0.337795827123,6.226438883745));
#478 = CARTESIAN_POINT('',(0.313098828784,6.373373594011));
#479 = CARTESIAN_POINT('',(0.283047784922,6.509124841775));
#480 = CARTESIAN_POINT('',(0.239302127343,6.658317230526));
#481 = CARTESIAN_POINT('',(0.230523968141,6.686335144621));
#482 = CARTESIAN_POINT('',(0.221444315816,6.713405735989));
#483 = CARTESIAN_POINT('',(0.212067116236,6.739458952543));
#484 = CARTESIAN_POINT('',(0.202396800458,6.764422270984));
#485 = CARTESIAN_POINT('',(0.192438261841,6.788220564306));
#486 = CARTESIAN_POINT('',(0.15950164932,6.860759138653));
#487 = CARTESIAN_POINT('',(0.135264712984,6.904974725488));
#488 = CARTESIAN_POINT('',(0.109718142226,6.941970120375));
#489 = CARTESIAN_POINT('',(8.312912793025E-02,6.970627933619));
#490 = CARTESIAN_POINT('',(5.578262488987E-02,6.990140699881));
#491 = CARTESIAN_POINT('',(2.797233748874E-02,7.));
#492 = CARTESIAN_POINT('',(0.,7.));
#493 = ( GEOMETRIC_REPRESENTATION_CONTEXT(2) 
PARAMETRIC_REPRESENTATION_CONTEXT() REPRESENTATION_CONTEXT('2D SPACE',''
  ) );
#494 = ORIENTED_EDGE('',*,*,#495,.T.);
#495 = EDGE_CURVE('',#345,#322,#496,.T.);
#496 = SURFACE_CURVE('',#497,(#542,#590),.PCURVE_S1.);
#497 = B_SPLINE_CURVE_WITH_KNOTS('',7,(#498,#499,#500,#501,#502,#503,
    #504,#505,#506,#507,#508,#509,#510,#511,#512,#513,#514,#515,#516,
    #517,#518,#519,#520,#521,#522,#523,#524,#525,#526,#527,#528,#529,
    #530,#531,#532,#533,#534,#535,#536,#537,#538,#539,#540,#541),
  .UNSPECIFIED.,.F.,.F.,(8,6,6,6,6,6,6,8),(0.,0.144974388385,
    0.210730557972,0.481250453772,0.519337881487,0.790506283151,
    0.85564701235,1.),.UNSPECIFIED.);
#498 = CARTESIAN_POINT('',(4.025,-2.22044604925E-16,1.5));
#499 = CARTESIAN_POINT('',(4.025,-0.113090254305,1.5));
#500 = CARTESIAN_POINT('',(4.021292949706,-0.22552359094,1.490052654909)
  );
#501 = CARTESIAN_POINT('',(4.01395625566,-0.335923853122,1.470366144222)
  );
#502 = CARTESIAN_POINT('',(4.003316107731,-0.442952231739,1.441456928921
    ));
#503 = CARTESIAN_POINT('',(3.989929348722,-0.54535932811,1.404145964777)
  );
#504 = CARTESIAN_POINT('',(3.974518325933,-0.642042155892,1.359569738624
    ));
#505 = CARTESIAN_POINT('',(3.950302413682,-0.772956461786,1.286362657201
    ));
#506 = CARTESIAN_POINT('',(3.942465556899,-0.812573209366,1.262256962237
    ));
#507 = CARTESIAN_POINT('',(3.934402964832,-0.850937045203,1.236968954305
    ));
#508 = CARTESIAN_POINT('',(3.926168339481,-0.888032203366,1.210575651202
    ));
#509 = CARTESIAN_POINT('',(3.917813842691,-0.92384624511,1.183151314284)
  );
#510 = CARTESIAN_POINT('',(3.909389664485,-0.958369872318,1.154767585849
    ));
#511 = CARTESIAN_POINT('',(3.866196573387,-1.128291580361,1.005060996719
    ));
#512 = CARTESIAN_POINT('',(3.831015840669,-1.243287500646,0.869342701727
    ));
#513 = CARTESIAN_POINT('',(3.79858646927,-1.336555299184,0.722559506095)
  );
#514 = CARTESIAN_POINT('',(3.771446265529,-1.408421185772,0.567881910071
    ));
#515 = CARTESIAN_POINT('',(3.751379218874,-1.45921353458,0.407827565235)
  );
#516 = CARTESIAN_POINT('',(3.739427399343,-1.489092739355,0.244505657013
    ));
#517 = CARTESIAN_POINT('',(3.735411955825,-1.499107832564,
    5.669650694213E-02));
#518 = CARTESIAN_POINT('',(3.735083723737,-1.499925109032,
    3.350086510804E-02));
#519 = CARTESIAN_POINT('',(3.734923511055,-1.500323624412,
    1.029526646283E-02));
#520 = CARTESIAN_POINT('',(3.734931650739,-1.50030337695,
    -1.291346834047E-02));
#521 = CARTESIAN_POINT('',(3.7351081317,-1.499864366706,
    -3.611851822041E-02));
#522 = CARTESIAN_POINT('',(3.735452598799,-1.499006595562,
    -5.931306166723E-02));
#523 = CARTESIAN_POINT('',(3.739607852448,-1.488641657416,
    -0.247503477794));
#524 = CARTESIAN_POINT('',(3.751720584764,-1.458352787409,
    -0.411171603222));
#525 = CARTESIAN_POINT('',(3.771975561459,-1.407051964619,
    -0.571524799888));
#526 = CARTESIAN_POINT('',(3.799314657171,-1.334574781702,
    -0.726438883743));
#527 = CARTESIAN_POINT('',(3.831931936066,-1.240587186811,
    -0.873373594012));
#528 = CARTESIAN_POINT('',(3.867259934332,-1.124758425204,
    -1.009124841774));
#529 = CARTESIAN_POINT('',(3.910442263745,-0.954059450697,
    -1.158317230518));
#530 = CARTESIAN_POINT('',(3.918780534956,-0.919723706207,
    -1.186335144621));
#531 = CARTESIAN_POINT('',(3.927046260748,-0.884121989894,
    -1.213405735995));
#532 = CARTESIAN_POINT('',(3.935190448408,-0.847263763661,
    -1.239458952548));
#533 = CARTESIAN_POINT('',(3.943162232801,-0.809161554489,
    -1.264422270983));
#534 = CARTESIAN_POINT('',(3.950909295565,-0.76983113143,-1.288220564301
    ));
#535 = CARTESIAN_POINT('',(3.974929693132,-0.639455559656,
    -1.360759138653));
#536 = CARTESIAN_POINT('',(3.990226762891,-0.543078482414,
    -1.404974725488));
#537 = CARTESIAN_POINT('',(4.003505005236,-0.44104697013,-1.441970120376
    ));
#538 = CARTESIAN_POINT('',(4.01405381998,-0.334451293573,-1.470627933619
    ));
#539 = CARTESIAN_POINT('',(4.021325760434,-0.224524896426,-1.49014069988
    ));
#540 = CARTESIAN_POINT('',(4.025,-0.112588658392,-1.5));
#541 = CARTESIAN_POINT('',(4.025,-6.661338147751E-16,-1.5));
#542 = PCURVE('',#141,#543);
#543 = DEFINITIONAL_REPRESENTATION('',(#544),#589);
#544 = B_SPLINE_CURVE_WITH_KNOTS('',7,(#545,#546,#547,#548,#549,#550,
    #551,#552,#553,#554,#555,#556,#557,#558,#559,#560,#561,#562,#563,
    #564,#565,#566,#567,#568,#569,#570,#571,#572,#573,#574,#575,#576,
    #577,#578,#579,#580,#581,#582,#583,#584,#585,#586,#587,#588),
  .UNSPECIFIED.,.F.,.F.,(8,6,6,6,6,6,6,8),(0.,0.144974388385,
    0.210730557972,0.481250453772,0.519337881487,0.790506283151,
    0.85564701235,1.),.UNSPECIFIED.);
#545 = CARTESIAN_POINT('',(3.14159265359,4.025));
#546 = CARTESIAN_POINT('',(3.21698615646,4.025));
#547 = CARTESIAN_POINT('',(3.291941587913,4.021292949706));
#548 = CARTESIAN_POINT('',(3.366242194191,4.01395625566));
#549 = CARTESIAN_POINT('',(3.439657001774,4.003316107731));
#550 = CARTESIAN_POINT('',(3.511916920179,3.989929348722));
#551 = CARTESIAN_POINT('',(3.582677821934,3.974518325933));
#552 = CARTESIAN_POINT('',(3.682673004614,3.950302413682));
#553 = CARTESIAN_POINT('',(3.713568308069,3.942465556899));
#554 = CARTESIAN_POINT('',(3.744168876068,3.934402964832));
#555 = CARTESIAN_POINT('',(3.774485740659,3.926168339481));
#556 = CARTESIAN_POINT('',(3.804528828856,3.917813842691));
#557 = CARTESIAN_POINT('',(3.834307191513,3.909389664485));
#558 = CARTESIAN_POINT('',(3.985282464976,3.866196573387));
#559 = CARTESIAN_POINT('',(4.102618169027,3.831015840669));
#560 = CARTESIAN_POINT('',(4.216886487436,3.79858646927));
#561 = CARTESIAN_POINT('',(4.328892778606,3.771446265529));
#562 = CARTESIAN_POINT('',(4.43941671671,3.751379218874));
#563 = CARTESIAN_POINT('',(4.549204071257,3.739427399343));
#564 = CARTESIAN_POINT('',(4.674588066235,3.735411955825));
#565 = CARTESIAN_POINT('',(4.690058905271,3.735083723737));
#566 = CARTESIAN_POINT('',(4.705527552943,3.734923511055));
#567 = CARTESIAN_POINT('',(4.720995510582,3.734931650739));
#568 = CARTESIAN_POINT('',(4.736464279437,3.7351081317));
#569 = CARTESIAN_POINT('',(4.751935360671,3.735452598799));
#570 = CARTESIAN_POINT('',(4.877585783432,3.739607852448));
#571 = CARTESIAN_POINT('',(4.987643051637,3.751720584764));
#572 = CARTESIAN_POINT('',(5.098449321718,3.771975561459));
#573 = CARTESIAN_POINT('',(5.210757125897,3.799314657171));
#574 = CARTESIAN_POINT('',(5.325353867038,3.831931936066));
#575 = CARTESIAN_POINT('',(5.443052875188,3.867259934332));
#576 = CARTESIAN_POINT('',(5.594191529346,3.910442263745));
#577 = CARTESIAN_POINT('',(5.623718892439,3.918780534956));
#578 = CARTESIAN_POINT('',(5.653507116088,3.927046260748));
#579 = CARTESIAN_POINT('',(5.683564847778,3.935190448408));
#580 = CARTESIAN_POINT('',(5.713901596752,3.943162232801));
#581 = CARTESIAN_POINT('',(5.744527947205,3.950909295565));
#582 = CARTESIAN_POINT('',(5.843992367387,3.974929693132));
#583 = CARTESIAN_POINT('',(5.914469962107,3.990226762891));
#584 = CARTESIAN_POINT('',(5.986427636913,4.003505005236));
#585 = CARTESIAN_POINT('',(6.059526751847,4.01405381998));
#586 = CARTESIAN_POINT('',(6.133502168124,4.021325760434));
#587 = CARTESIAN_POINT('',(6.208126201585,4.025));
#588 = CARTESIAN_POINT('',(6.28318530718,4.025));
#589 = ( GEOMETRIC_REPRESENTATION_CONTEXT(2) 
PARAMETRIC_REPRESENTATION_CONTEXT() REPRESENTATION_CONTEXT('2D SPACE',''
  ) );
#590 = PCURVE('',#442,#591);
#591 = DEFINITIONAL_REPRESENTATION('',(#592),#637);
#592 = B_SPLINE_CURVE_WITH_KNOTS('',7,(#593,#594,#595,#596,#597,#598,
    #599,#600,#601,#602,#603,#604,#605,#606,#607,#608,#609,#610,#611,
    #612,#613,#614,#615,#616,#617,#618,#619,#620,#621,#622,#623,#624,
    #625,#626,#627,#628,#629,#630,#631,#632,#633,#634,#635,#636),
  .UNSPECIFIED.,.F.,.F.,(8,6,6,6,6,6,6,8),(0.,0.144974388385,
    0.210730557972,0.481250453772,0.519337881487,0.790506283151,
    0.85564701235,1.),.UNSPECIFIED.);
#593 = CARTESIAN_POINT('',(6.28318530718,7.));
#594 = CARTESIAN_POINT('',(6.255088349588,7.));
#595 = CARTESIAN_POINT('',(6.227154559122,6.990052654909));
#596 = CARTESIAN_POINT('',(6.199689847952,6.970366144222));
#597 = CARTESIAN_POINT('',(6.172991913498,6.941456928921));
#598 = CARTESIAN_POINT('',(6.147349500642,6.904145964777));
#599 = CARTESIAN_POINT('',(6.123033149572,6.859569738624));
#600 = CARTESIAN_POINT('',(6.089956095791,6.786362657201));
#601 = CARTESIAN_POINT('',(6.079923464998,6.762256962237));
#602 = CARTESIAN_POINT('',(6.070184925164,6.736968954305));
#603 = CARTESIAN_POINT('',(6.060745414609,6.710575651202));
#604 = CARTESIAN_POINT('',(6.051609397908,6.683151314284));
#605 = CARTESIAN_POINT('',(6.04278084212,6.654767585849));
#606 = CARTESIAN_POINT('',(5.999221712371,6.505060996719));
#607 = CARTESIAN_POINT('',(5.969378576616,6.369342701727));
#608 = CARTESIAN_POINT('',(5.944865374823,6.222559506095));
#609 = CARTESIAN_POINT('',(5.925782875328,6.067881910071));
#610 = CARTESIAN_POINT('',(5.912214720543,5.907827565235));
#611 = CARTESIAN_POINT('',(5.904219445522,5.744505657013));
#612 = CARTESIAN_POINT('',(5.901538679703,5.556696506942));
#613 = CARTESIAN_POINT('',(5.90131986597,5.533500865108));
#614 = CARTESIAN_POINT('',(5.901213154349,5.510295266463));
#615 = CARTESIAN_POINT('',(5.901218576044,5.48708653166));
#616 = CARTESIAN_POINT('',(5.901336130015,5.46388148178));
#617 = CARTESIAN_POINT('',(5.901565782981,5.440686938333));
#618 = CARTESIAN_POINT('',(5.904340150498,5.252496522206));
#619 = CARTESIAN_POINT('',(5.912444773723,5.088828396778));
#620 = CARTESIAN_POINT('',(5.92614756248,4.928475200112));
#621 = CARTESIAN_POINT('',(5.945389480057,4.773561116257));
#622 = CARTESIAN_POINT('',(5.970086478396,4.626626405988));
#623 = CARTESIAN_POINT('',(6.000137522258,4.490875158226));
#624 = CARTESIAN_POINT('',(6.043883179834,4.341682769482));
#625 = CARTESIAN_POINT('',(6.052661339038,4.313664855379));
#626 = CARTESIAN_POINT('',(6.061740991366,4.286594264005));
#627 = CARTESIAN_POINT('',(6.071118190945,4.260541047452));
#628 = CARTESIAN_POINT('',(6.080788506721,4.235577729017));
#629 = CARTESIAN_POINT('',(6.090747045335,4.211779435699));
#630 = CARTESIAN_POINT('',(6.12368365786,4.139240861347));
#631 = CARTESIAN_POINT('',(6.147920594195,4.095025274512));
#632 = CARTESIAN_POINT('',(6.173467164954,4.058029879624));
#633 = CARTESIAN_POINT('',(6.200056179249,4.029372066381));
#634 = CARTESIAN_POINT('',(6.22740268229,4.00985930012));
#635 = CARTESIAN_POINT('',(6.255212969691,4.));
#636 = CARTESIAN_POINT('',(6.28318530718,4.));
#637 = ( GEOMETRIC_REPRESENTATION_CONTEXT(2) 
PARAMETRIC_REPRESENTATION_CONTEXT() REPRESENTATION_CONTEXT('2D SPACE',''
  ) );
#638 = ORIENTED_EDGE('',*,*,#321,.T.);
#639 = ORIENTED_EDGE('',*,*,#227,.F.);
#640 = ADVANCED_FACE('',(#641,#644),#214,.F.);
#641 = FACE_BOUND('',#642,.F.);
#642 = EDGE_LOOP('',(#643));
#643 = ORIENTED_EDGE('',*,*,#199,.T.);
#644 = FACE_BOUND('',#645,.F.);
#645 = EDGE_LOOP('',(#646));
#646 = ORIENTED_EDGE('',*,*,#647,.F.);
#647 = EDGE_CURVE('',#648,#648,#650,.T.);
#648 = VERTEX_POINT('',#649);
#649 = CARTESIAN_POINT('',(4.025,-9.858406733136E-16,-4.5));
#650 = SURFACE_CURVE('',#651,(#656,#663),.PCURVE_S1.);
#651 = CIRCLE('',#652,4.025);
#652 = AXIS2_PLACEMENT_3D('',#653,#654,#655);
#653 = CARTESIAN_POINT('',(0.,0.,-4.5));
#654 = DIRECTION('',(0.,0.,1.));
#655 = DIRECTION('',(1.,0.,-0.));
#656 = PCURVE('',#214,#657);
#657 = DEFINITIONAL_REPRESENTATION('',(#658),#662);
#658 = CIRCLE('',#659,4.025);
#659 = AXIS2_PLACEMENT_2D('',#660,#661);
#660 = CARTESIAN_POINT('',(0.,0.));
#661 = DIRECTION('',(1.,0.));
#662 = ( GEOMETRIC_REPRESENTATION_CONTEXT(2) 
PARAMETRIC_REPRESENTATION_CONTEXT() REPRESENTATION_CONTEXT('2D SPACE',''
  ) );
#663 = PCURVE('',#442,#664);
#664 = DEFINITIONAL_REPRESENTATION('',(#665),#669);
#665 = LINE('',#666,#667);
#666 = CARTESIAN_POINT('',(0.,1.));
#667 = VECTOR('',#668,1.);
#668 = DIRECTION('',(1.,0.));
#669 = ( GEOMETRIC_REPRESENTATION_CONTEXT(2) 
PARAMETRIC_REPRESENTATION_CONTEXT() REPRESENTATION_CONTEXT('2D SPACE',''
  ) );
#670 = ADVANCED_FACE('',(#671,#674),#66,.T.);
#671 = FACE_BOUND('',#672,.T.);
#672 = EDGE_LOOP('',(#673));
#673 = ORIENTED_EDGE('',*,*,#51,.T.);
#674 = FACE_BOUND('',#675,.T.);
#675 = EDGE_LOOP('',(#676));
#676 = ORIENTED_EDGE('',*,*,#677,.F.);
#677 = EDGE_CURVE('',#678,#678,#680,.T.);
#678 = VERTEX_POINT('',#679);
#679 = CARTESIAN_POINT('',(4.025,-9.858406733136E-16,4.5));
#680 = SURFACE_CURVE('',#681,(#686,#693),.PCURVE_S1.);
#681 = CIRCLE('',#682,4.025);
#682 = AXIS2_PLACEMENT_3D('',#683,#684,#685);
#683 = CARTESIAN_POINT('',(0.,0.,4.5));
#684 = DIRECTION('',(0.,0.,1.));
#685 = DIRECTION('',(1.,0.,-0.));
#686 = PCURVE('',#66,#687);
#687 = DEFINITIONAL_REPRESENTATION('',(#688),#692);
#688 = CIRCLE('',#689,4.025);
#689 = AXIS2_PLACEMENT_2D('',#690,#691);
#690 = CARTESIAN_POINT('',(0.,0.));
#691 = DIRECTION('',(1.,0.));
#692 = ( GEOMETRIC_REPRESENTATION_CONTEXT(2) 
PARAMETRIC_REPRESENTATION_CONTEXT() REPRESENTATION_CONTEXT('2D SPACE',''
  ) );
#693 = PCURVE('',#442,#694);
#694 = DEFINITIONAL_REPRESENTATION('',(#695),#699);
#695 = LINE('',#696,#697);
#696 = CARTESIAN_POINT('',(0.,10.));
#697 = VECTOR('',#698,1.);
#698 = DIRECTION('',(1.,0.));
#699 = ( GEOMETRIC_REPRESENTATION_CONTEXT(2) 
PARAMETRIC_REPRESENTATION_CONTEXT() REPRESENTATION_CONTEXT('2D SPACE',''
  ) );
#700 = ADVANCED_FACE('',(#701),#442,.F.);
#701 = FACE_BOUND('',#702,.F.);
#702 = EDGE_LOOP('',(#703,#724,#725,#726,#727,#748,#749,#750));
#703 = ORIENTED_EDGE('',*,*,#704,.T.);
#704 = EDGE_CURVE('',#345,#678,#705,.T.);
#705 = SEAM_CURVE('',#706,(#710,#717),.PCURVE_S1.);
#706 = LINE('',#707,#708);
#707 = CARTESIAN_POINT('',(4.025,-9.858406733136E-16,-5.5));
#708 = VECTOR('',#709,1.);
#709 = DIRECTION('',(0.,0.,1.));
#710 = PCURVE('',#442,#711);
#711 = DEFINITIONAL_REPRESENTATION('',(#712),#716);
#712 = LINE('',#713,#714);
#713 = CARTESIAN_POINT('',(6.28318530718,-0.));
#714 = VECTOR('',#715,1.);
#715 = DIRECTION('',(0.,1.));
#716 = ( GEOMETRIC_REPRESENTATION_CONTEXT(2) 
PARAMETRIC_REPRESENTATION_CONTEXT() REPRESENTATION_CONTEXT('2D SPACE',''
  ) );
#717 = PCURVE('',#442,#718);
#718 = DEFINITIONAL_REPRESENTATION('',(#719),#723);
#719 = LINE('',#720,#721);
#720 = CARTESIAN_POINT('',(0.,-0.));
#721 = VECTOR('',#722,1.);
#722 = DIRECTION('',(0.,1.));
#723 = ( GEOMETRIC_REPRESENTATION_CONTEXT(2) 
PARAMETRIC_REPRESENTATION_CONTEXT() REPRESENTATION_CONTEXT('2D SPACE',''
  ) );
#724 = ORIENTED_EDGE('',*,*,#677,.F.);
#725 = ORIENTED_EDGE('',*,*,#704,.F.);
#726 = ORIENTED_EDGE('',*,*,#344,.F.);
#727 = ORIENTED_EDGE('',*,*,#728,.F.);
#728 = EDGE_CURVE('',#648,#322,#729,.T.);
#729 = SEAM_CURVE('',#730,(#734,#741),.PCURVE_S1.);
#730 = LINE('',#731,#732);
#731 = CARTESIAN_POINT('',(4.025,-9.858406733136E-16,-5.5));
#732 = VECTOR('',#733,1.);
#733 = DIRECTION('',(0.,0.,1.));
#734 = PCURVE('',#442,#735);
#735 = DEFINITIONAL_REPRESENTATION('',(#736),#740);
#736 = LINE('',#737,#738);
#737 = CARTESIAN_POINT('',(6.28318530718,-0.));
#738 = VECTOR('',#739,1.);
#739 = DIRECTION('',(0.,1.));
#740 = ( GEOMETRIC_REPRESENTATION_CONTEXT(2) 
PARAMETRIC_REPRESENTATION_CONTEXT() REPRESENTATION_CONTEXT('2D SPACE',''
  ) );
#741 = PCURVE('',#442,#742);
#742 = DEFINITIONAL_REPRESENTATION('',(#743),#747);
#743 = LINE('',#744,#745);
#744 = CARTESIAN_POINT('',(0.,-0.));
#745 = VECTOR('',#746,1.);
#746 = DIRECTION('',(0.,1.));
#747 = ( GEOMETRIC_REPRESENTATION_CONTEXT(2) 
PARAMETRIC_REPRESENTATION_CONTEXT() REPRESENTATION_CONTEXT('2D SPACE',''
  ) );
#748 = ORIENTED_EDGE('',*,*,#647,.T.);
#749 = ORIENTED_EDGE('',*,*,#728,.T.);
#750 = ORIENTED_EDGE('',*,*,#495,.F.);
#751 = ( GEOMETRIC_REPRESENTATION_CONTEXT(3) 
GLOBAL_UNCERTAINTY_ASSIGNED_CONTEXT((#755)) GLOBAL_UNIT_ASSIGNED_CONTEXT
((#752,#753,#754)) REPRESENTATION_CONTEXT('Context #1',
  '3D Context with UNIT and UNCERTAINTY') );
#752 = ( LENGTH_UNIT() NAMED_UNIT(*) SI_UNIT(.MILLI.,.METRE.) );
#753 = ( NAMED_UNIT(*) PLANE_ANGLE_UNIT() SI_UNIT($,.RADIAN.) );
#754 = ( NAMED_UNIT(*) SI_UNIT($,.STERADIAN.) SOLID_ANGLE_UNIT() );
#755 = UNCERTAINTY_MEASURE_WITH_UNIT(LENGTH_MEASURE(1.E-07),#752,
  'distance_accuracy_value','confusion accuracy');
#756 = PRODUCT_RELATED_PRODUCT_CATEGORY('part',$,(#7));
ENDSEC;
END-ISO-10303-21;
