ISO-10303-21;
HEADER;
FILE_DESCRIPTION(('Open CASCADE Model'),'2;1');
FILE_NAME('shaft8_socket_holder','2026-07-11T16:47:30',('Author'),(
    'Open CASCADE'),'Open CASCADE STEP processor 7.9','build123d',
  'Unknown');
FILE_SCHEMA(('AUTOMOTIVE_DESIGN { 1 0 10303 214 1 1 1 1 }'));
ENDSEC;
DATA;
#1 = APPLICATION_PROTOCOL_DEFINITION('international standard',
  'automotive_design',2000,#2);
#2 = APPLICATION_CONTEXT(
  'core data for automotive mechanical design processes');
#3 = SHAPE_DEFINITION_REPRESENTATION(#4,#10);
#4 = PRODUCT_DEFINITION_SHAPE('','',#5);
#5 = PRODUCT_DEFINITION('design','',#6,#9);
#6 = PRODUCT_DEFINITION_FORMATION('','',#7);
#7 = PRODUCT('shaft8_socket_holder','shaft8_socket_holder','',(#8));
#8 = PRODUCT_CONTEXT('',#2,'mechanical');
#9 = PRODUCT_DEFINITION_CONTEXT('part definition',#2,'design');
#10 = ADVANCED_BREP_SHAPE_REPRESENTATION('',(#11,#15),#1503);
#11 = AXIS2_PLACEMENT_3D('',#12,#13,#14);
#12 = CARTESIAN_POINT('',(0.,0.,0.));
#13 = DIRECTION('',(0.,0.,1.));
#14 = DIRECTION('',(1.,0.,-0.));
#15 = MANIFOLD_SOLID_BREP('',#16);
#16 = CLOSED_SHELL('',(#17,#490,#862,#897,#932,#1308,#1413,#1468,#1495,
    #1499));
#17 = ADVANCED_FACE('',(#18,#316),#55,.T.);
#18 = FACE_BOUND('',#19,.T.);
#19 = EDGE_LOOP('',(#20,#124,#147,#174,#175,#265,#288,#315));
#20 = ORIENTED_EDGE('',*,*,#21,.T.);
#21 = EDGE_CURVE('',#22,#24,#26,.T.);
#22 = VERTEX_POINT('',#23);
#23 = CARTESIAN_POINT('',(8.,-1.959434878636E-15,-6.65));
#24 = VERTEX_POINT('',#25);
#25 = CARTESIAN_POINT('',(8.,-1.181784161177E-15,-3.35));
#26 = SURFACE_CURVE('',#27,(#54,#89),.PCURVE_S1.);
#27 = B_SPLINE_CURVE_WITH_KNOTS('',7,(#28,#29,#30,#31,#32,#33,#34,#35,
    #36,#37,#38,#39,#40,#41,#42,#43,#44,#45,#46,#47,#48,#49,#50,#51,#52,
    #53),.UNSPECIFIED.,.F.,.F.,(8,6,6,6,8),(0.,0.237628961413,
    0.500040484258,0.762452336298,1.),.UNSPECIFIED.);
#28 = CARTESIAN_POINT('',(8.,-6.661338147751E-16,-6.65));
#29 = CARTESIAN_POINT('',(8.,-0.20844840268,-6.65));
#30 = CARTESIAN_POINT('',(7.993663208822,-0.412208443946,-6.619277489506
    ));
#31 = CARTESIAN_POINT('',(7.981504359526,-0.605884943828,-6.560318471028
    ));
#32 = CARTESIAN_POINT('',(7.964965647289,-0.784820833839,-6.476699118764
    ));
#33 = CARTESIAN_POINT('',(7.946124445157,-0.94529311002,-6.373059031189)
  );
#34 = CARTESIAN_POINT('',(7.926998833085,-1.084859752527,-6.255094452689
    ));
#35 = CARTESIAN_POINT('',(7.88925647031,-1.333036639975,-5.990812910288)
  );
#36 = CARTESIAN_POINT('',(7.87041144367,-1.440119763155,-5.839393725111)
  );
#37 = CARTESIAN_POINT('',(7.854042755584,-1.524685578677,-5.679209836695
    ));
#38 = CARTESIAN_POINT('',(7.841170896524,-1.587489277477,-5.513124561454
    ));
#39 = CARTESIAN_POINT('',(7.832390690907,-1.629143911849,-5.343356137173
    ));
#40 = CARTESIAN_POINT('',(7.827994634643,-1.65,-5.171746775883));
#41 = CARTESIAN_POINT('',(7.827994634643,-1.65,-4.828253008661));
#42 = CARTESIAN_POINT('',(7.832390698657,-1.629143874052,-4.656641747731
    ));
#43 = CARTESIAN_POINT('',(7.841171088857,-1.587488355468,-4.486872000051
    ));
#44 = CARTESIAN_POINT('',(7.85404310012,-1.524683980355,-4.320787722669)
  );
#45 = CARTESIAN_POINT('',(7.870411451886,-1.440119213304,-4.16060682508)
  );
#46 = CARTESIAN_POINT('',(7.889256171224,-1.333038606631,-4.009189183987
    ));
#47 = CARTESIAN_POINT('',(7.9269929451,-1.084898469279,-3.744946776464)
  );
#48 = CARTESIAN_POINT('',(7.946120539124,-0.945327834217,-3.626957792392
    ));
#49 = CARTESIAN_POINT('',(7.964968341647,-0.784815265087,-3.523282127964
    ));
#50 = CARTESIAN_POINT('',(7.981511624423,-0.605825572855,-3.4396464034)
  );
#51 = CARTESIAN_POINT('',(7.993668229354,-0.412112799106,-3.380698147561
    ));
#52 = CARTESIAN_POINT('',(8.,-0.208365755871,-3.35));
#53 = CARTESIAN_POINT('',(8.,-1.110223024625E-15,-3.35));
#54 = PCURVE('',#55,#60);
#55 = CYLINDRICAL_SURFACE('',#56,8.);
#56 = AXIS2_PLACEMENT_3D('',#57,#58,#59);
#57 = CARTESIAN_POINT('',(0.,0.,-16.));
#58 = DIRECTION('',(0.,0.,1.));
#59 = DIRECTION('',(1.,0.,-0.));
#60 = DEFINITIONAL_REPRESENTATION('',(#61),#88);
#61 = B_SPLINE_CURVE_WITH_KNOTS('',7,(#62,#63,#64,#65,#66,#67,#68,#69,
    #70,#71,#72,#73,#74,#75,#76,#77,#78,#79,#80,#81,#82,#83,#84,#85,#86,
    #87),.UNSPECIFIED.,.F.,.F.,(8,6,6,6,8),(0.,0.237628961413,
    0.500040484258,0.762452336298,1.),.UNSPECIFIED.);
#62 = CARTESIAN_POINT('',(6.28318530718,9.35));
#63 = CARTESIAN_POINT('',(6.257129256845,9.35));
#64 = CARTESIAN_POINT('',(6.231659223263,9.380722510494));
#65 = CARTESIAN_POINT('',(6.207420922743,9.439681528972));
#66 = CARTESIAN_POINT('',(6.184972658242,9.523300881236));
#67 = CARTESIAN_POINT('',(6.164781996069,9.626940968811));
#68 = CARTESIAN_POINT('',(6.147175057741,9.744905547311));
#69 = CARTESIAN_POINT('',(6.11579625981,10.009187089712));
#70 = CARTESIAN_POINT('',(6.102208855376,10.160606274889));
#71 = CARTESIAN_POINT('',(6.091443360919,10.320790163305));
#72 = CARTESIAN_POINT('',(6.083429844158,10.486875438546));
#73 = CARTESIAN_POINT('',(6.078108599473,10.656643862827));
#74 = CARTESIAN_POINT('',(6.075444305131,10.828253224117));
#75 = CARTESIAN_POINT('',(6.075444305131,11.171746991339));
#76 = CARTESIAN_POINT('',(6.078108604248,11.343358252269));
#77 = CARTESIAN_POINT('',(6.083429962087,11.513127999949));
#78 = CARTESIAN_POINT('',(6.091443564884,11.679212277331));
#79 = CARTESIAN_POINT('',(6.10220892342,11.83939317492));
#80 = CARTESIAN_POINT('',(6.115796011152,11.990810816013));
#81 = CARTESIAN_POINT('',(6.147170162502,12.255053223536));
#82 = CARTESIAN_POINT('',(6.164777630913,12.373042207608));
#83 = CARTESIAN_POINT('',(6.184973394175,12.476717872037));
#84 = CARTESIAN_POINT('',(6.207428380961,12.5603535966));
#85 = CARTESIAN_POINT('',(6.231671178326,12.619301852439));
#86 = CARTESIAN_POINT('',(6.257139587696,12.65));
#87 = CARTESIAN_POINT('',(6.28318530718,12.65));
#88 = ( GEOMETRIC_REPRESENTATION_CONTEXT(2) 
PARAMETRIC_REPRESENTATION_CONTEXT() REPRESENTATION_CONTEXT('2D SPACE',''
  ) );
#89 = PCURVE('',#90,#95);
#90 = CYLINDRICAL_SURFACE('',#91,1.65);
#91 = AXIS2_PLACEMENT_3D('',#92,#93,#94);
#92 = CARTESIAN_POINT('',(8.5,0.,-5.));
#93 = DIRECTION('',(-1.,0.,0.));
#94 = DIRECTION('',(0.,0.,1.));
#95 = DEFINITIONAL_REPRESENTATION('',(#96),#123);
#96 = B_SPLINE_CURVE_WITH_KNOTS('',7,(#97,#98,#99,#100,#101,#102,#103,
    #104,#105,#106,#107,#108,#109,#110,#111,#112,#113,#114,#115,#116,
    #117,#118,#119,#120,#121,#122),.UNSPECIFIED.,.F.,.F.,(8,6,6,6,8),(0.
    ,0.237628961413,0.500040484258,0.762452336298,1.),.UNSPECIFIED.);
#97 = CARTESIAN_POINT('',(3.14159265359,0.5));
#98 = CARTESIAN_POINT('',(3.26792501885,0.5));
#99 = CARTESIAN_POINT('',(3.391415847256,0.506336791178));
#100 = CARTESIAN_POINT('',(3.512089197219,0.518495640474));
#101 = CARTESIAN_POINT('',(3.629747541095,0.535034352711));
#102 = CARTESIAN_POINT('',(3.743970721409,0.553875554843));
#103 = CARTESIAN_POINT('',(3.853990454717,0.573001166915));
#104 = CARTESIAN_POINT('',(4.073712711249,0.61074352969));
#105 = CARTESIAN_POINT('',(4.185036036246,0.62958855633));
#106 = CARTESIAN_POINT('',(4.293392674171,0.645957244416));
#107 = CARTESIAN_POINT('',(4.399561845421,0.658829103476));
#108 = CARTESIAN_POINT('',(4.504294507399,0.667609309093));
#109 = CARTESIAN_POINT('',(4.608300025304,0.672005365357));
#110 = CARTESIAN_POINT('',(4.816478066045,0.672005365357));
#111 = CARTESIAN_POINT('',(4.920484726342,0.667609301343));
#112 = CARTESIAN_POINT('',(5.02521822862,0.658828911143));
#113 = CARTESIAN_POINT('',(5.131386925579,0.64595689988));
#114 = CARTESIAN_POINT('',(5.23974190743,0.629588548114));
#115 = CARTESIAN_POINT('',(5.351063508351,0.610743828776));
#116 = CARTESIAN_POINT('',(5.570753228355,0.5730070549));
#117 = CARTESIAN_POINT('',(5.680785409521,0.553879460876));
#118 = CARTESIAN_POINT('',(5.795039140584,0.535031658353));
#119 = CARTESIAN_POINT('',(5.91272861738,0.518488375577));
#120 = CARTESIAN_POINT('',(6.033420089435,0.506331770646));
#121 = CARTESIAN_POINT('',(6.156903030894,0.5));
#122 = CARTESIAN_POINT('',(6.28318530718,0.5));
#123 = ( GEOMETRIC_REPRESENTATION_CONTEXT(2) 
PARAMETRIC_REPRESENTATION_CONTEXT() REPRESENTATION_CONTEXT('2D SPACE',''
  ) );
#124 = ORIENTED_EDGE('',*,*,#125,.T.);
#125 = EDGE_CURVE('',#24,#126,#128,.T.);
#126 = VERTEX_POINT('',#127);
#127 = CARTESIAN_POINT('',(8.,-1.959434878636E-15,0.));
#128 = SEAM_CURVE('',#129,(#133,#140),.PCURVE_S1.);
#129 = LINE('',#130,#131);
#130 = CARTESIAN_POINT('',(8.,-1.959434878636E-15,-16.));
#131 = VECTOR('',#132,1.);
#132 = DIRECTION('',(0.,0.,1.));
#133 = PCURVE('',#55,#134);
#134 = DEFINITIONAL_REPRESENTATION('',(#135),#139);
#135 = LINE('',#136,#137);
#136 = CARTESIAN_POINT('',(0.,-0.));
#137 = VECTOR('',#138,1.);
#138 = DIRECTION('',(0.,1.));
#139 = ( GEOMETRIC_REPRESENTATION_CONTEXT(2) 
PARAMETRIC_REPRESENTATION_CONTEXT() REPRESENTATION_CONTEXT('2D SPACE',''
  ) );
#140 = PCURVE('',#55,#141);
#141 = DEFINITIONAL_REPRESENTATION('',(#142),#146);
#142 = LINE('',#143,#144);
#143 = CARTESIAN_POINT('',(6.28318530718,-0.));
#144 = VECTOR('',#145,1.);
#145 = DIRECTION('',(0.,1.));
#146 = ( GEOMETRIC_REPRESENTATION_CONTEXT(2) 
PARAMETRIC_REPRESENTATION_CONTEXT() REPRESENTATION_CONTEXT('2D SPACE',''
  ) );
#147 = ORIENTED_EDGE('',*,*,#148,.F.);
#148 = EDGE_CURVE('',#126,#126,#149,.T.);
#149 = SURFACE_CURVE('',#150,(#155,#162),.PCURVE_S1.);
#150 = CIRCLE('',#151,8.);
#151 = AXIS2_PLACEMENT_3D('',#152,#153,#154);
#152 = CARTESIAN_POINT('',(0.,0.,0.));
#153 = DIRECTION('',(0.,0.,1.));
#154 = DIRECTION('',(1.,0.,-0.));
#155 = PCURVE('',#55,#156);
#156 = DEFINITIONAL_REPRESENTATION('',(#157),#161);
#157 = LINE('',#158,#159);
#158 = CARTESIAN_POINT('',(0.,16.));
#159 = VECTOR('',#160,1.);
#160 = DIRECTION('',(1.,0.));
#161 = ( GEOMETRIC_REPRESENTATION_CONTEXT(2) 
PARAMETRIC_REPRESENTATION_CONTEXT() REPRESENTATION_CONTEXT('2D SPACE',''
  ) );
#162 = PCURVE('',#163,#168);
#163 = PLANE('',#164);
#164 = AXIS2_PLACEMENT_3D('',#165,#166,#167);
#165 = CARTESIAN_POINT('',(0.,0.,0.));
#166 = DIRECTION('',(0.,0.,1.));
#167 = DIRECTION('',(1.,0.,-0.));
#168 = DEFINITIONAL_REPRESENTATION('',(#169),#173);
#169 = CIRCLE('',#170,8.);
#170 = AXIS2_PLACEMENT_2D('',#171,#172);
#171 = CARTESIAN_POINT('',(0.,0.));
#172 = DIRECTION('',(1.,0.));
#173 = ( GEOMETRIC_REPRESENTATION_CONTEXT(2) 
PARAMETRIC_REPRESENTATION_CONTEXT() REPRESENTATION_CONTEXT('2D SPACE',''
  ) );
#174 = ORIENTED_EDGE('',*,*,#125,.F.);
#175 = ORIENTED_EDGE('',*,*,#176,.T.);
#176 = EDGE_CURVE('',#24,#22,#177,.T.);
#177 = SURFACE_CURVE('',#178,(#205,#235),.PCURVE_S1.);
#178 = B_SPLINE_CURVE_WITH_KNOTS('',7,(#179,#180,#181,#182,#183,#184,
    #185,#186,#187,#188,#189,#190,#191,#192,#193,#194,#195,#196,#197,
    #198,#199,#200,#201,#202,#203,#204),.UNSPECIFIED.,.F.,.F.,(8,6,6,6,8
    ),(0.,0.237612968695,0.500010025751,0.76241862594,1.),
  .UNSPECIFIED.);
#179 = CARTESIAN_POINT('',(8.,-2.020667218593E-16,-3.35));
#180 = CARTESIAN_POINT('',(8.,0.20844840268,-3.35));
#181 = CARTESIAN_POINT('',(7.993663208822,0.412208443945,-3.380722510494
    ));
#182 = CARTESIAN_POINT('',(7.981504359526,0.605884943828,-3.439681528972
    ));
#183 = CARTESIAN_POINT('',(7.964965647289,0.784820833839,-3.523300881236
    ));
#184 = CARTESIAN_POINT('',(7.946124445157,0.945293110021,-3.626940968811
    ));
#185 = CARTESIAN_POINT('',(7.926998833085,1.084859752527,-3.744905547311
    ));
#186 = CARTESIAN_POINT('',(7.889256229153,1.333038225717,-4.009188778355
    ));
#187 = CARTESIAN_POINT('',(7.870411681518,1.440117794746,-4.160605061113
    ));
#188 = CARTESIAN_POINT('',(7.854043212893,1.524683817745,-4.320786209462
    ));
#189 = CARTESIAN_POINT('',(7.841170729015,1.587490010958,-4.486873719597
    ));
#190 = CARTESIAN_POINT('',(7.83239032302,1.629145675325,-4.656647899074)
  );
#191 = CARTESIAN_POINT('',(7.827994634643,1.65,-4.828260563667));
#192 = CARTESIAN_POINT('',(7.827994634643,1.65,-5.171746991339));
#193 = CARTESIAN_POINT('',(7.832390698657,1.629143874052,-5.343358252268
    ));
#194 = CARTESIAN_POINT('',(7.841171088857,1.587488355467,-5.513127999949
    ));
#195 = CARTESIAN_POINT('',(7.85404310012,1.524683980355,-5.67921227733)
  );
#196 = CARTESIAN_POINT('',(7.870411451886,1.440119213304,-5.83939317492)
  );
#197 = CARTESIAN_POINT('',(7.889256171224,1.333038606631,-5.990810816013
    ));
#198 = CARTESIAN_POINT('',(7.926995711773,1.084880276881,-6.255072596473
    ));
#199 = CARTESIAN_POINT('',(7.946121878122,0.945314791583,-6.373046636059
    ));
#200 = CARTESIAN_POINT('',(7.964966357853,0.784823913249,-6.476705669279
    ));
#201 = CARTESIAN_POINT('',(7.981508054031,0.605858320574,-6.560336430803
    ));
#202 = CARTESIAN_POINT('',(7.993666094662,0.412157704924,-6.619291456566
    ));
#203 = CARTESIAN_POINT('',(8.,0.208401020211,-6.65));
#204 = CARTESIAN_POINT('',(8.,3.03100082789E-16,-6.65));
#205 = PCURVE('',#55,#206);
#206 = DEFINITIONAL_REPRESENTATION('',(#207),#234);
#207 = B_SPLINE_CURVE_WITH_KNOTS('',7,(#208,#209,#210,#211,#212,#213,
    #214,#215,#216,#217,#218,#219,#220,#221,#222,#223,#224,#225,#226,
    #227,#228,#229,#230,#231,#232,#233),.UNSPECIFIED.,.F.,.F.,(8,6,6,6,8
    ),(0.,0.237612968695,0.500010025751,0.76241862594,1.),
  .UNSPECIFIED.);
#208 = CARTESIAN_POINT('',(0.,12.65));
#209 = CARTESIAN_POINT('',(2.605605033498E-02,12.65));
#210 = CARTESIAN_POINT('',(5.15260839164E-02,12.619277489506));
#211 = CARTESIAN_POINT('',(7.576438443696E-02,12.560318471027));
#212 = CARTESIAN_POINT('',(9.821264893762E-02,12.476699118764));
#213 = CARTESIAN_POINT('',(0.118403311111,12.373059031189));
#214 = CARTESIAN_POINT('',(0.136010249439,12.255094452689));
#215 = CARTESIAN_POINT('',(0.167389247866,11.990811221645));
#216 = CARTESIAN_POINT('',(0.180976204193,11.839394938887));
#217 = CARTESIAN_POINT('',(0.191741719762,11.679213790538));
#218 = CARTESIAN_POINT('',(0.19975555668,11.513126280403));
#219 = CARTESIAN_POINT('',(0.205076932995,11.343352100926));
#220 = CARTESIAN_POINT('',(0.207741002049,11.171739436333));
#221 = CARTESIAN_POINT('',(0.207741002049,10.828253008661));
#222 = CARTESIAN_POINT('',(0.205076702931,10.656641747732));
#223 = CARTESIAN_POINT('',(0.199755345092,10.486872000051));
#224 = CARTESIAN_POINT('',(0.191741742295,10.32078772267));
#225 = CARTESIAN_POINT('',(0.180976383759,10.16060682508));
#226 = CARTESIAN_POINT('',(0.167389296028,10.009189183987));
#227 = CARTESIAN_POINT('',(0.136012844481,9.744927403527));
#228 = CARTESIAN_POINT('',(0.118406039443,9.626953363941));
#229 = CARTESIAN_POINT('',(9.821301639686E-02,9.523294330721));
#230 = CARTESIAN_POINT('',(7.576103617264E-02,9.439663569197));
#231 = CARTESIAN_POINT('',(5.151974136568E-02,9.380708543434));
#232 = CARTESIAN_POINT('',(2.60501275264E-02,9.35));
#233 = CARTESIAN_POINT('',(0.,9.35));
#234 = ( GEOMETRIC_REPRESENTATION_CONTEXT(2) 
PARAMETRIC_REPRESENTATION_CONTEXT() REPRESENTATION_CONTEXT('2D SPACE',''
  ) );
#235 = PCURVE('',#90,#236);
#236 = DEFINITIONAL_REPRESENTATION('',(#237),#264);
#237 = B_SPLINE_CURVE_WITH_KNOTS('',7,(#238,#239,#240,#241,#242,#243,
    #244,#245,#246,#247,#248,#249,#250,#251,#252,#253,#254,#255,#256,
    #257,#258,#259,#260,#261,#262,#263),.UNSPECIFIED.,.F.,.F.,(8,6,6,6,8
    ),(0.,0.237612968695,0.500010025751,0.76241862594,1.),
  .UNSPECIFIED.);
#238 = CARTESIAN_POINT('',(0.,0.5));
#239 = CARTESIAN_POINT('',(0.126332365261,0.5));
#240 = CARTESIAN_POINT('',(0.249823193666,0.506336791178));
#241 = CARTESIAN_POINT('',(0.37049654363,0.518495640474));
#242 = CARTESIAN_POINT('',(0.488154887505,0.535034352711));
#243 = CARTESIAN_POINT('',(0.602378067819,0.553875554843));
#244 = CARTESIAN_POINT('',(0.712397801127,0.573001166915));
#245 = CARTESIAN_POINT('',(0.932121461588,0.610743770847));
#246 = CARTESIAN_POINT('',(1.043442039571,0.629588318482));
#247 = CARTESIAN_POINT('',(1.151797591653,0.645956787107));
#248 = CARTESIAN_POINT('',(1.257968383586,0.658829270985));
#249 = CARTESIAN_POINT('',(1.362704293244,0.66760967698));
#250 = CARTESIAN_POINT('',(1.466711819927,0.672005365357));
#251 = CARTESIAN_POINT('',(1.674885412455,0.672005365357));
#252 = CARTESIAN_POINT('',(1.778892072752,0.667609301343));
#253 = CARTESIAN_POINT('',(1.88362557503,0.658828911143));
#254 = CARTESIAN_POINT('',(1.989794271989,0.64595689988));
#255 = CARTESIAN_POINT('',(2.098149253841,0.629588548114));
#256 = CARTESIAN_POINT('',(2.209470854761,0.610743828776));
#257 = CARTESIAN_POINT('',(2.429176681321,0.573004288227));
#258 = CARTESIAN_POINT('',(2.539200118788,0.553878121878));
#259 = CARTESIAN_POINT('',(2.653438390364,0.535033642147));
#260 = CARTESIAN_POINT('',(2.771114464376,0.518491945969));
#261 = CARTESIAN_POINT('',(2.891800215579,0.506333905338));
#262 = CARTESIAN_POINT('',(3.015289004977,0.5));
#263 = CARTESIAN_POINT('',(3.14159265359,0.5));
#264 = ( GEOMETRIC_REPRESENTATION_CONTEXT(2) 
PARAMETRIC_REPRESENTATION_CONTEXT() REPRESENTATION_CONTEXT('2D SPACE',''
  ) );
#265 = ORIENTED_EDGE('',*,*,#266,.F.);
#266 = EDGE_CURVE('',#267,#22,#269,.T.);
#267 = VERTEX_POINT('',#268);
#268 = CARTESIAN_POINT('',(8.,-1.959434878636E-15,-16.));
#269 = SEAM_CURVE('',#270,(#274,#281),.PCURVE_S1.);
#270 = LINE('',#271,#272);
#271 = CARTESIAN_POINT('',(8.,-1.959434878636E-15,-16.));
#272 = VECTOR('',#273,1.);
#273 = DIRECTION('',(0.,0.,1.));
#274 = PCURVE('',#55,#275);
#275 = DEFINITIONAL_REPRESENTATION('',(#276),#280);
#276 = LINE('',#277,#278);
#277 = CARTESIAN_POINT('',(6.28318530718,-0.));
#278 = VECTOR('',#279,1.);
#279 = DIRECTION('',(0.,1.));
#280 = ( GEOMETRIC_REPRESENTATION_CONTEXT(2) 
PARAMETRIC_REPRESENTATION_CONTEXT() REPRESENTATION_CONTEXT('2D SPACE',''
  ) );
#281 = PCURVE('',#55,#282);
#282 = DEFINITIONAL_REPRESENTATION('',(#283),#287);
#283 = LINE('',#284,#285);
#284 = CARTESIAN_POINT('',(0.,-0.));
#285 = VECTOR('',#286,1.);
#286 = DIRECTION('',(0.,1.));
#287 = ( GEOMETRIC_REPRESENTATION_CONTEXT(2) 
PARAMETRIC_REPRESENTATION_CONTEXT() REPRESENTATION_CONTEXT('2D SPACE',''
  ) );
#288 = ORIENTED_EDGE('',*,*,#289,.T.);
#289 = EDGE_CURVE('',#267,#267,#290,.T.);
#290 = SURFACE_CURVE('',#291,(#296,#303),.PCURVE_S1.);
#291 = CIRCLE('',#292,8.);
#292 = AXIS2_PLACEMENT_3D('',#293,#294,#295);
#293 = CARTESIAN_POINT('',(0.,0.,-16.));
#294 = DIRECTION('',(0.,0.,1.));
#295 = DIRECTION('',(1.,0.,-0.));
#296 = PCURVE('',#55,#297);
#297 = DEFINITIONAL_REPRESENTATION('',(#298),#302);
#298 = LINE('',#299,#300);
#299 = CARTESIAN_POINT('',(0.,0.));
#300 = VECTOR('',#301,1.);
#301 = DIRECTION('',(1.,0.));
#302 = ( GEOMETRIC_REPRESENTATION_CONTEXT(2) 
PARAMETRIC_REPRESENTATION_CONTEXT() REPRESENTATION_CONTEXT('2D SPACE',''
  ) );
#303 = PCURVE('',#304,#309);
#304 = PLANE('',#305);
#305 = AXIS2_PLACEMENT_3D('',#306,#307,#308);
#306 = CARTESIAN_POINT('',(0.,0.,-16.));
#307 = DIRECTION('',(0.,0.,1.));
#308 = DIRECTION('',(1.,0.,-0.));
#309 = DEFINITIONAL_REPRESENTATION('',(#310),#314);
#310 = CIRCLE('',#311,8.);
#311 = AXIS2_PLACEMENT_2D('',#312,#313);
#312 = CARTESIAN_POINT('',(0.,0.));
#313 = DIRECTION('',(1.,0.));
#314 = ( GEOMETRIC_REPRESENTATION_CONTEXT(2) 
PARAMETRIC_REPRESENTATION_CONTEXT() REPRESENTATION_CONTEXT('2D SPACE',''
  ) );
#315 = ORIENTED_EDGE('',*,*,#266,.T.);
#316 = FACE_BOUND('',#317,.T.);
#317 = EDGE_LOOP('',(#318));
#318 = ORIENTED_EDGE('',*,*,#319,.T.);
#319 = EDGE_CURVE('',#320,#320,#322,.T.);
#320 = VERTEX_POINT('',#321);
#321 = CARTESIAN_POINT('',(1.65,7.827994634643,-10.));
#322 = SURFACE_CURVE('',#323,(#375,#430),.PCURVE_S1.);
#323 = B_SPLINE_CURVE_WITH_KNOTS('',8,(#324,#325,#326,#327,#328,#329,
    #330,#331,#332,#333,#334,#335,#336,#337,#338,#339,#340,#341,#342,
    #343,#344,#345,#346,#347,#348,#349,#350,#351,#352,#353,#354,#355,
    #356,#357,#358,#359,#360,#361,#362,#363,#364,#365,#366,#367,#368,
    #369,#370,#371,#372,#373,#374),.UNSPECIFIED.,.T.,.F.,(9,7,7,7,7,7,7,
    9),(0.,0.152415941347,0.2863892166,0.423246891173,0.577162039552,
    0.705434731077,0.828579480785,1.),.UNSPECIFIED.);
#324 = CARTESIAN_POINT('',(1.65,7.827994634643,-10.));
#325 = CARTESIAN_POINT('',(1.65,7.827994634643,-9.828085856434));
#326 = CARTESIAN_POINT('',(1.629529790885,7.832309184011,-9.654903756415
    ));
#327 = CARTESIAN_POINT('',(1.588058602064,7.84105138212,-9.482743417662)
  );
#328 = CARTESIAN_POINT('',(1.5251622244,7.853994333815,-9.313966075753)
  );
#329 = CARTESIAN_POINT('',(1.44044681153,7.870558899604,-9.151072278025)
  );
#330 = CARTESIAN_POINT('',(1.333512146816,7.889795983203,-8.996843136689
    ));
#331 = CARTESIAN_POINT('',(1.203997048181,7.910371551084,-8.854603206139
    ));
#332 = CARTESIAN_POINT('',(0.917924398085,7.948310447282,-8.617943328205
    ));
#333 = CARTESIAN_POINT('',(0.76171076042,7.966401170069,-8.515828587528)
  );
#334 = CARTESIAN_POINT('',(0.585491478987,7.98300484749,-8.430718812766)
  );
#335 = CARTESIAN_POINT('',(0.393558374238,7.995966444386,-8.368812820836
    ));
#336 = CARTESIAN_POINT('',(0.191612581143,8.003395902433,-8.334156293673
    ));
#337 = CARTESIAN_POINT('',(-1.395818471133E-02,8.004444981027,
    -8.328671914245));
#338 = CARTESIAN_POINT('',(-0.216612375742,7.999419217366,
    -8.352097417367));
#339 = CARTESIAN_POINT('',(-0.608235105851,7.979305515041,
    -8.452649044188));
#340 = CARTESIAN_POINT('',(-0.790682514503,7.964317887856,
    -8.529344922802));
#341 = CARTESIAN_POINT('',(-0.95550695693,7.946126032373,-8.627012116803
    ));
#342 = CARTESIAN_POINT('',(-1.101523775886,7.926466477015,
    -8.741430493845));
#343 = CARTESIAN_POINT('',(-1.228183961262,7.906895643863,
    -8.868867982964));
#344 = CARTESIAN_POINT('',(-1.335396420577,7.888659556535,
    -9.005974962811));
#345 = CARTESIAN_POINT('',(-1.423450647391,7.872661228186,
    -9.149739422367));
#346 = CARTESIAN_POINT('',(-1.571142612281,7.844605995553,
    -9.463600824063));
#347 = CARTESIAN_POINT('',(-1.62737647579,7.833003196167,-9.63794677507)
  );
#348 = CARTESIAN_POINT('',(-1.661265348511,7.82562158434,-9.817649959905
    ));
#349 = CARTESIAN_POINT('',(-1.67258555589,7.823088876778,-10.));
#350 = CARTESIAN_POINT('',(-1.661265348511,7.82562158434,-10.18235004009
    ));
#351 = CARTESIAN_POINT('',(-1.62737647579,7.833003196167,-10.36205322492
    ));
#352 = CARTESIAN_POINT('',(-1.571142612281,7.844605995553,
    -10.53639917593));
#353 = CARTESIAN_POINT('',(-1.427811209709,7.8718329056,-10.84099391101)
  );
#354 = CARTESIAN_POINT('',(-1.346508343213,7.886637327761,
    -10.97568017868));
#355 = CARTESIAN_POINT('',(-1.2485907527,7.903408242281,-11.10456356713)
  );
#356 = CARTESIAN_POINT('',(-1.133770294246,7.921437200519,
    -11.22533745392));
#357 = CARTESIAN_POINT('',(-1.001991137976,7.93976301451,-11.33539019111
    ));
#358 = CARTESIAN_POINT('',(-0.853503078024,7.95717771189,-11.43175919434
    ));
#359 = CARTESIAN_POINT('',(-0.689000939202,7.972295377322,
    -11.51104269412));
#360 = CARTESIAN_POINT('',(-0.337915916603,7.994717281817,
    -11.62511713301));
#361 = CARTESIAN_POINT('',(-0.154778641133,8.002163010007,
    -11.66081224128));
#362 = CARTESIAN_POINT('',(3.463432858172E-02,8.004815648558,
    -11.67271245275));
#363 = CARTESIAN_POINT('',(0.224698965823,8.001963777502,-11.65932729494
    ));
#364 = CARTESIAN_POINT('',(0.409631791895,7.993797376958,-11.62118228583
    ));
#365 = CARTESIAN_POINT('',(0.583982422163,7.981480447496,-11.56076385608
    ));
#366 = CARTESIAN_POINT('',(0.743208962027,7.966664309161,-11.48256226765
    ));
#367 = CARTESIAN_POINT('',(1.08025778356,7.929186030697,-11.26866458129)
  );
#368 = CARTESIAN_POINT('',(1.246614075633,7.905089533435,-11.11882071155
    ));
#369 = CARTESIAN_POINT('',(1.383171456148,7.88162354922,-10.9513223867)
  );
#370 = CARTESIAN_POINT('',(1.490849610262,7.861019401716,-10.7715793635)
  );
#371 = CARTESIAN_POINT('',(1.570675819666,7.84471406389,-10.58367984693)
  );
#372 = CARTESIAN_POINT('',(1.623542400271,7.833571558075,-10.39078460229
    ));
#373 = CARTESIAN_POINT('',(1.65,7.827994634643,-10.19544327374));
#374 = CARTESIAN_POINT('',(1.65,7.827994634643,-10.));
#375 = PCURVE('',#55,#376);
#376 = DEFINITIONAL_REPRESENTATION('',(#377),#429);
#377 = B_SPLINE_CURVE_WITH_KNOTS('',8,(#378,#379,#380,#381,#382,#383,
    #384,#385,#386,#387,#388,#389,#390,#391,#392,#393,#394,#395,#396,
    #397,#398,#399,#400,#401,#402,#403,#404,#405,#406,#407,#408,#409,
    #410,#411,#412,#413,#414,#415,#416,#417,#418,#419,#420,#421,#422,
    #423,#424,#425,#426,#427,#428),.UNSPECIFIED.,.F.,.F.,(9,7,7,7,7,7,7,
    9),(0.,0.152415941347,0.2863892166,0.423246891173,0.577162039552,
    0.705434731077,0.828579480785,1.),.UNSPECIFIED.);
#378 = CARTESIAN_POINT('',(1.363055324746,6.));
#379 = CARTESIAN_POINT('',(1.363055324746,6.171914143566));
#380 = CARTESIAN_POINT('',(1.365670323764,6.345096243585));
#381 = CARTESIAN_POINT('',(1.370968134617,6.517256582338));
#382 = CARTESIAN_POINT('',(1.378994853563,6.686033924247));
#383 = CARTESIAN_POINT('',(1.389783634015,6.848927721975));
#384 = CARTESIAN_POINT('',(1.403361376812,7.003156863311));
#385 = CARTESIAN_POINT('',(1.419748372962,7.145396793861));
#386 = CARTESIAN_POINT('',(1.455820549085,7.382056671795));
#387 = CARTESIAN_POINT('',(1.475475052453,7.484171412472));
#388 = CARTESIAN_POINT('',(1.497591515829,7.569281187234));
#389 = CARTESIAN_POINT('',(1.521619841309,7.631187179164));
#390 = CARTESIAN_POINT('',(1.54685522369,7.665843706326));
#391 = CARTESIAN_POINT('',(1.572532836854,7.671328085756));
#392 = CARTESIAN_POINT('',(1.597863473658,7.647902582633));
#393 = CARTESIAN_POINT('',(1.646880837253,7.547350955812));
#394 = CARTESIAN_POINT('',(1.66975281686,7.470655077198));
#395 = CARTESIAN_POINT('',(1.69046863658,7.372987883197));
#396 = CARTESIAN_POINT('',(1.708877154263,7.258569506155));
#397 = CARTESIAN_POINT('',(1.724893737695,7.131132017036));
#398 = CARTESIAN_POINT('',(1.73848622293,6.994025037189));
#399 = CARTESIAN_POINT('',(1.749672859874,6.850260577633));
#400 = CARTESIAN_POINT('',(1.768464485574,6.536399175937));
#401 = CARTESIAN_POINT('',(1.775640885677,6.36205322493));
#402 = CARTESIAN_POINT('',(1.779976306884,6.182350040095));
#403 = CARTESIAN_POINT('',(1.781426479449,5.999999999999));
#404 = CARTESIAN_POINT('',(1.779976306884,5.817649959904));
#405 = CARTESIAN_POINT('',(1.775640885677,5.637946775071));
#406 = CARTESIAN_POINT('',(1.768464485574,5.463600824064));
#407 = CARTESIAN_POINT('',(1.750227677159,5.159006088988));
#408 = CARTESIAN_POINT('',(1.739897994127,5.024319821315));
#409 = CARTESIAN_POINT('',(1.72748128507,4.895436432868));
#410 = CARTESIAN_POINT('',(1.712955807372,4.774662546071));
#411 = CARTESIAN_POINT('',(1.696330953372,4.664609808889));
#412 = CARTESIAN_POINT('',(1.677651675802,4.568240805659));
#413 = CARTESIAN_POINT('',(1.657010288131,4.488957305877));
#414 = CARTESIAN_POINT('',(1.613035253507,4.374882866982));
#415 = CARTESIAN_POINT('',(1.590130331047,4.339187758713));
#416 = CARTESIAN_POINT('',(1.566465406998,4.327287547247));
#417 = CARTESIAN_POINT('',(1.542724811007,4.340672705054));
#418 = CARTESIAN_POINT('',(1.519602648597,4.378817714161));
#419 = CARTESIAN_POINT('',(1.497763618671,4.439236143913));
#420 = CARTESIAN_POINT('',(1.477777555503,4.517437732344));
#421 = CARTESIAN_POINT('',(1.435386789731,4.731335418704));
#422 = CARTESIAN_POINT('',(1.414386761174,4.88117928845));
#423 = CARTESIAN_POINT('',(1.397074557151,5.048677613291));
#424 = CARTESIAN_POINT('',(1.383372722541,5.228420636492));
#425 = CARTESIAN_POINT('',(1.373188740939,5.416320153071));
#426 = CARTESIAN_POINT('',(1.366435190131,5.609215397703));
#427 = CARTESIAN_POINT('',(1.363055324746,5.804556726258));
#428 = CARTESIAN_POINT('',(1.363055324746,6.));
#429 = ( GEOMETRIC_REPRESENTATION_CONTEXT(2) 
PARAMETRIC_REPRESENTATION_CONTEXT() REPRESENTATION_CONTEXT('2D SPACE',''
  ) );
#430 = PCURVE('',#431,#436);
#431 = CYLINDRICAL_SURFACE('',#432,1.65);
#432 = AXIS2_PLACEMENT_3D('',#433,#434,#435);
#433 = CARTESIAN_POINT('',(0.,8.5,-10.));
#434 = DIRECTION('',(0.,-1.,0.));
#435 = DIRECTION('',(1.,0.,0.));
#436 = DEFINITIONAL_REPRESENTATION('',(#437),#489);
#437 = B_SPLINE_CURVE_WITH_KNOTS('',8,(#438,#439,#440,#441,#442,#443,
    #444,#445,#446,#447,#448,#449,#450,#451,#452,#453,#454,#455,#456,
    #457,#458,#459,#460,#461,#462,#463,#464,#465,#466,#467,#468,#469,
    #470,#471,#472,#473,#474,#475,#476,#477,#478,#479,#480,#481,#482,
    #483,#484,#485,#486,#487,#488),.UNSPECIFIED.,.F.,.F.,(9,7,7,7,7,7,7,
    9),(0.,0.152415941347,0.2863892166,0.423246891173,0.577162039552,
    0.705434731077,0.828579480785,1.),.UNSPECIFIED.);
#438 = CARTESIAN_POINT('',(0.,0.672005365357));
#439 = CARTESIAN_POINT('',(0.10419039004,0.672005365357));
#440 = CARTESIAN_POINT('',(0.20914862104,0.667690815989));
#441 = CARTESIAN_POINT('',(0.315214066364,0.65894861788));
#442 = CARTESIAN_POINT('',(0.422777321359,0.646005666185));
#443 = CARTESIAN_POINT('',(0.532330374618,0.629441100396));
#444 = CARTESIAN_POINT('',(0.64446201347,0.610204016797));
#445 = CARTESIAN_POINT('',(0.759893048643,0.589628448916));
#446 = CARTESIAN_POINT('',(0.984908472219,0.551689552718));
#447 = CARTESIAN_POINT('',(1.097305671162,0.533598829931));
#448 = CARTESIAN_POINT('',(1.214251512789,0.51699515251));
#449 = CARTESIAN_POINT('',(1.33414400496,0.504033555614));
#450 = CARTESIAN_POINT('',(1.455852360423,0.496604097567));
#451 = CARTESIAN_POINT('',(1.578412755727,0.495555018973));
#452 = CARTESIAN_POINT('',(1.700905795023,0.500580782634));
#453 = CARTESIAN_POINT('',(1.945951464494,0.520694484959));
#454 = CARTESIAN_POINT('',(2.064612077911,0.535682112144));
#455 = CARTESIAN_POINT('',(2.17897809899,0.553873967627));
#456 = CARTESIAN_POINT('',(2.28961083394,0.573533522985));
#457 = CARTESIAN_POINT('',(2.396932079293,0.593104356137));
#458 = CARTESIAN_POINT('',(2.501263256087,0.611340443465));
#459 = CARTESIAN_POINT('',(2.60282243114,0.627338771814));
#460 = CARTESIAN_POINT('',(2.813049380934,0.655394004447));
#461 = CARTESIAN_POINT('',(2.923168254012,0.666996803833));
#462 = CARTESIAN_POINT('',(3.032558607622,0.67437841566));
#463 = CARTESIAN_POINT('',(3.14159265359,0.676911123222));
#464 = CARTESIAN_POINT('',(3.250626699558,0.67437841566));
#465 = CARTESIAN_POINT('',(3.360017053167,0.666996803833));
#466 = CARTESIAN_POINT('',(3.470135926245,0.655394004447));
#467 = CARTESIAN_POINT('',(3.674155986477,0.6281670944));
#468 = CARTESIAN_POINT('',(3.768994930613,0.613362672239));
#469 = CARTESIAN_POINT('',(3.866156276075,0.596591757719));
#470 = CARTESIAN_POINT('',(3.965890885005,0.578562799481));
#471 = CARTESIAN_POINT('',(4.06851516548,0.56023698549));
#472 = CARTESIAN_POINT('',(4.17441616766,0.54282228811));
#473 = CARTESIAN_POINT('',(4.284083677904,0.527704622678));
#474 = CARTESIAN_POINT('',(4.507812549879,0.505282718183));
#475 = CARTESIAN_POINT('',(4.620057756162,0.497836989993));
#476 = CARTESIAN_POINT('',(4.733467874526,0.495184351442));
#477 = CARTESIAN_POINT('',(4.846941710688,0.498036222498));
#478 = CARTESIAN_POINT('',(4.959445748543,0.506202623042));
#479 = CARTESIAN_POINT('',(5.06985948331,0.518519552504));
#480 = CARTESIAN_POINT('',(5.176733532509,0.533335690839));
#481 = CARTESIAN_POINT('',(5.418667983426,0.570813969303));
#482 = CARTESIAN_POINT('',(5.552455993036,0.594910466565));
#483 = CARTESIAN_POINT('',(5.680978666751,0.61837645078));
#484 = CARTESIAN_POINT('',(5.805438956554,0.638980598284));
#485 = CARTESIAN_POINT('',(5.926909059812,0.65528593611));
#486 = CARTESIAN_POINT('',(6.046345816745,0.666428441925));
#487 = CARTESIAN_POINT('',(6.164734838245,0.672005365357));
#488 = CARTESIAN_POINT('',(6.28318530718,0.672005365357));
#489 = ( GEOMETRIC_REPRESENTATION_CONTEXT(2) 
PARAMETRIC_REPRESENTATION_CONTEXT() REPRESENTATION_CONTEXT('2D SPACE',''
  ) );
#490 = ADVANCED_FACE('',(#491),#90,.F.);
#491 = FACE_BOUND('',#492,.F.);
#492 = EDGE_LOOP('',(#493,#670,#691,#692,#693,#694));
#493 = ORIENTED_EDGE('',*,*,#494,.F.);
#494 = EDGE_CURVE('',#495,#497,#499,.T.);
#495 = VERTEX_POINT('',#496);
#496 = CARTESIAN_POINT('',(4.05,-6.98048675514E-16,-3.35));
#497 = VERTEX_POINT('',#498);
#498 = CARTESIAN_POINT('',(4.05,-9.919639073094E-16,-6.65));
#499 = SURFACE_CURVE('',#500,(#553,#609),.PCURVE_S1.);
#500 = B_SPLINE_CURVE_WITH_KNOTS('',6,(#501,#502,#503,#504,#505,#506,
    #507,#508,#509,#510,#511,#512,#513,#514,#515,#516,#517,#518,#519,
    #520,#521,#522,#523,#524,#525,#526,#527,#528,#529,#530,#531,#532,
    #533,#534,#535,#536,#537,#538,#539,#540,#541,#542,#543,#544,#545,
    #546,#547,#548,#549,#550,#551,#552),.UNSPECIFIED.,.F.,.F.,(7,5,5,5,5
    ,5,5,5,5,5,7),(0.,0.136862622439,0.198600984591,0.244311191597,
    0.399299815021,0.499992788265,0.601528525305,0.757001161566,
    0.802628447586,0.8639935591,1.),.UNSPECIFIED.);
#501 = CARTESIAN_POINT('',(4.05,-2.020667218593E-16,-3.35));
#502 = CARTESIAN_POINT('',(4.05,0.138281008847,-3.35));
#503 = CARTESIAN_POINT('',(4.04433431303,0.27553225208,-3.363906680195)
  );
#504 = CARTESIAN_POINT('',(4.033161287028,0.409429325276,-3.391331458813
    ));
#505 = CARTESIAN_POINT('',(4.0172121044,0.537730298349,-3.431212255705)
  );
#506 = CARTESIAN_POINT('',(3.997733050446,0.658435332971,-3.481821436288
    ));
#507 = CARTESIAN_POINT('',(3.966391380477,0.82028395784,-3.567215871317)
  );
#508 = CARTESIAN_POINT('',(3.956184431947,0.868899520564,-3.595527414381
    ));
#509 = CARTESIAN_POINT('',(3.945611040998,0.915787103354,-3.625469455603
    ));
#510 = CARTESIAN_POINT('',(3.93476626254,0.960923950046,-3.656913823911)
  );
#511 = CARTESIAN_POINT('',(3.92374142565,1.004294248156,-3.689738503729)
  );
#512 = CARTESIAN_POINT('',(3.904390707487,1.076684426768,-3.749065939034
    ));
#513 = CARTESIAN_POINT('',(3.896105762746,1.106512039343,-3.775002012018
    ));
#514 = CARTESIAN_POINT('',(3.887801560106,1.135372480718,-3.801592956505
    ));
#515 = CARTESIAN_POINT('',(3.879509891808,1.163268100145,-3.828799592225
    ));
#516 = CARTESIAN_POINT('',(3.871260736568,1.190202529611,-3.856585993609
    ));
#517 = CARTESIAN_POINT('',(3.835351672175,1.304264256999,-3.980989270632
    ));
#518 = CARTESIAN_POINT('',(3.808419286406,1.381397517045,-4.083397768883
    ));
#519 = CARTESIAN_POINT('',(3.78339922843,1.447695676384,-4.190836079644)
  );
#520 = CARTESIAN_POINT('',(3.761201536073,1.503304875616,-4.302272747676
    ));
#521 = CARTESIAN_POINT('',(3.742533472676,1.548336223304,-4.416870813517
    ));
#522 = CARTESIAN_POINT('',(3.718394316125,1.60519014758,-4.609939511739)
  );
#523 = CARTESIAN_POINT('',(3.710595287908,1.623110065658,-4.686968093028
    ));
#524 = CARTESIAN_POINT('',(3.704647261865,1.636553282747,-4.764733564297
    ));
#525 = CARTESIAN_POINT('',(3.700648198892,1.645517047987,-4.842987293076
    ));
#526 = CARTESIAN_POINT('',(3.698648401781,1.65,-4.921487882464));
#527 = CARTESIAN_POINT('',(3.698648401781,1.65,-5.079169235585));
#528 = CARTESIAN_POINT('',(3.700681810276,1.645441695077,-5.158326473118
    ));
#529 = CARTESIAN_POINT('',(3.704748069759,1.636327328481,-5.237230635126
    ));
#530 = CARTESIAN_POINT('',(3.710795173856,1.622658277348,-5.31563432361)
  );
#531 = CARTESIAN_POINT('',(3.718721884276,1.604437326263,-5.39328259432)
  );
#532 = CARTESIAN_POINT('',(3.743168480729,1.546810801267,-5.587247107198
    ));
#533 = CARTESIAN_POINT('',(3.762006327045,1.501317088578,-5.702111912592
    ));
#534 = CARTESIAN_POINT('',(3.784379384318,1.445178632522,-5.813774173115
    ));
#535 = CARTESIAN_POINT('',(3.809570161962,1.378281332168,-5.921387928993
    ));
#536 = CARTESIAN_POINT('',(3.83665597775,1.30047585732,-6.023908364907)
  );
#537 = CARTESIAN_POINT('',(3.872680770163,1.185575843038,-6.148209441112
    ));
#538 = CARTESIAN_POINT('',(3.880921541595,1.158553009743,-6.175863036363
    ));
#539 = CARTESIAN_POINT('',(3.889201301572,1.130572011378,-6.202934962716
    ));
#540 = CARTESIAN_POINT('',(3.89749007931,1.101629332636,-6.229389211376)
  );
#541 = CARTESIAN_POINT('',(3.905756100296,1.071722781603,-6.255186527912
    ));
#542 = CARTESIAN_POINT('',(3.925007168339,0.999332029979,-6.314039092976
    ));
#543 = CARTESIAN_POINT('',(3.935949285842,0.956057823044,-6.346536672613
    ));
#544 = CARTESIAN_POINT('',(3.946706981981,0.911038916552,-6.377661997098
    ));
#545 = CARTESIAN_POINT('',(3.957190208026,0.864291704317,-6.407294498614
    ));
#546 = CARTESIAN_POINT('',(3.967305358229,0.815839456056,-6.435307740766
    ));
#547 = CARTESIAN_POINT('',(3.99834712538,0.654614838543,-6.519772972278)
  );
#548 = CARTESIAN_POINT('',(4.017613203615,0.534490459143,-6.569790644238
    ));
#549 = CARTESIAN_POINT('',(4.033372202086,0.406895041408,-6.609186247731
    ));
#550 = CARTESIAN_POINT('',(4.044405889217,0.273798157701,-6.636269006118
    ));
#551 = CARTESIAN_POINT('',(4.05,0.137404759086,-6.65));
#552 = CARTESIAN_POINT('',(4.05,3.03100082789E-16,-6.65));
#553 = PCURVE('',#90,#554);
#554 = DEFINITIONAL_REPRESENTATION('',(#555),#608);
#555 = B_SPLINE_CURVE_WITH_KNOTS('',6,(#556,#557,#558,#559,#560,#561,
    #562,#563,#564,#565,#566,#567,#568,#569,#570,#571,#572,#573,#574,
    #575,#576,#577,#578,#579,#580,#581,#582,#583,#584,#585,#586,#587,
    #588,#589,#590,#591,#592,#593,#594,#595,#596,#597,#598,#599,#600,
    #601,#602,#603,#604,#605,#606,#607),.UNSPECIFIED.,.F.,.F.,(7,5,5,5,5
    ,5,5,5,5,5,7),(0.,0.136862622439,0.198600984591,0.244311191597,
    0.399299815021,0.499992788265,0.601528525305,0.757001161566,
    0.802628447586,0.8639935591,1.),.UNSPECIFIED.);
#556 = CARTESIAN_POINT('',(0.,4.45));
#557 = CARTESIAN_POINT('',(8.380667202826E-02,4.45));
#558 = CARTESIAN_POINT('',(0.166989088881,4.45566568697));
#559 = CARTESIAN_POINT('',(0.249199096099,4.466838712972));
#560 = CARTESIAN_POINT('',(0.330054822004,4.4827878956));
#561 = CARTESIAN_POINT('',(0.409068903966,4.502266949554));
#562 = CARTESIAN_POINT('',(0.519974992526,4.533608619523));
#563 = CARTESIAN_POINT('',(0.554041200583,4.543815568053));
#564 = CARTESIAN_POINT('',(0.587716029454,4.554388959002));
#565 = CARTESIAN_POINT('',(0.621016108437,4.56523373746));
#566 = CARTESIAN_POINT('',(0.653956026932,4.57625857435));
#567 = CARTESIAN_POINT('',(0.710680458806,4.595609292513));
#568 = CARTESIAN_POINT('',(0.734625950799,4.603894237254));
#569 = CARTESIAN_POINT('',(0.758394822793,4.612198439894));
#570 = CARTESIAN_POINT('',(0.781996604052,4.620490108192));
#571 = CARTESIAN_POINT('',(0.80544105465,4.628739263432));
#572 = CARTESIAN_POINT('',(0.907731181994,4.664648327825));
#573 = CARTESIAN_POINT('',(0.985071395459,4.691580713594));
#574 = CARTESIAN_POINT('',(1.061105272758,4.71660077157));
#575 = CARTESIAN_POINT('',(1.136141076242,4.738798463927));
#576 = CARTESIAN_POINT('',(1.210474769532,4.757466527324));
#577 = CARTESIAN_POINT('',(1.332453995117,4.781605683875));
#578 = CARTESIAN_POINT('',(1.380304569611,4.789404712092));
#579 = CARTESIAN_POINT('',(1.428016702554,4.795352738135));
#580 = CARTESIAN_POINT('',(1.475637105269,4.799351801108));
#581 = CARTESIAN_POINT('',(1.523213225258,4.801351598219));
#582 = CARTESIAN_POINT('',(1.618777681695,4.801351598219));
#583 = CARTESIAN_POINT('',(1.666751770511,4.799318189724));
#584 = CARTESIAN_POINT('',(1.714771284012,4.795251930241));
#585 = CARTESIAN_POINT('',(1.762884932348,4.789204826144));
#586 = CARTESIAN_POINT('',(1.811140663225,4.781278115724));
#587 = CARTESIAN_POINT('',(1.933773322062,4.756831519271));
#588 = CARTESIAN_POINT('',(2.008357379765,4.737993672955));
#589 = CARTESIAN_POINT('',(2.083654590627,4.715620615682));
#590 = CARTESIAN_POINT('',(2.159964755967,4.690429838038));
#591 = CARTESIAN_POINT('',(2.237600326535,4.66334402225));
#592 = CARTESIAN_POINT('',(2.340188989306,4.627319229837));
#593 = CARTESIAN_POINT('',(2.363613154122,4.619078458405));
#594 = CARTESIAN_POINT('',(2.387195202255,4.610798698428));
#595 = CARTESIAN_POINT('',(2.410944815684,4.60250992069));
#596 = CARTESIAN_POINT('',(2.434871438638,4.594243899704));
#597 = CARTESIAN_POINT('',(2.491414149719,4.574992831661));
#598 = CARTESIAN_POINT('',(2.524188593064,4.564050714158));
#599 = CARTESIAN_POINT('',(2.557320291704,4.553293018019));
#600 = CARTESIAN_POINT('',(2.590823277733,4.542809791974));
#601 = CARTESIAN_POINT('',(2.624713608982,4.532694641771));
#602 = CARTESIAN_POINT('',(2.735022887237,4.50165287462));
#603 = CARTESIAN_POINT('',(2.81357898597,4.482386796385));
#604 = CARTESIAN_POINT('',(2.89394952135,4.466627797914));
#605 = CARTESIAN_POINT('',(2.975654525003,4.455594110783));
#606 = CARTESIAN_POINT('',(3.058317042023,4.45));
#607 = CARTESIAN_POINT('',(3.14159265359,4.45));
#608 = ( GEOMETRIC_REPRESENTATION_CONTEXT(2) 
PARAMETRIC_REPRESENTATION_CONTEXT() REPRESENTATION_CONTEXT('2D SPACE',''
  ) );
#609 = PCURVE('',#610,#615);
#610 = CYLINDRICAL_SURFACE('',#611,4.05);
#611 = AXIS2_PLACEMENT_3D('',#612,#613,#614);
#612 = CARTESIAN_POINT('',(0.,0.,-14.));
#613 = DIRECTION('',(0.,0.,1.));
#614 = DIRECTION('',(1.,0.,-0.));
#615 = DEFINITIONAL_REPRESENTATION('',(#616),#669);
#616 = B_SPLINE_CURVE_WITH_KNOTS('',6,(#617,#618,#619,#620,#621,#622,
    #623,#624,#625,#626,#627,#628,#629,#630,#631,#632,#633,#634,#635,
    #636,#637,#638,#639,#640,#641,#642,#643,#644,#645,#646,#647,#648,
    #649,#650,#651,#652,#653,#654,#655,#656,#657,#658,#659,#660,#661,
    #662,#663,#664,#665,#666,#667,#668),.UNSPECIFIED.,.F.,.F.,(7,5,5,5,5
    ,5,5,5,5,5,7),(0.,0.136862622439,0.198600984591,0.244311191597,
    0.399299815021,0.499992788265,0.601528525305,0.757001161566,
    0.802628447586,0.8639935591,1.),.UNSPECIFIED.);
#617 = CARTESIAN_POINT('',(0.,10.65));
#618 = CARTESIAN_POINT('',(3.414345897448E-02,10.65));
#619 = CARTESIAN_POINT('',(6.803271941428E-02,10.636093319805));
#620 = CARTESIAN_POINT('',(0.101165066159,10.608668541186));
#621 = CARTESIAN_POINT('',(0.133054746513,10.568787744295));
#622 = CARTESIAN_POINT('',(0.163229320367,10.518178563712));
#623 = CARTESIAN_POINT('',(0.203934338486,10.432784128683));
#624 = CARTESIAN_POINT('',(0.216198386613,10.404472585619));
#625 = CARTESIAN_POINT('',(0.228064406952,10.374530544397));
#626 = CARTESIAN_POINT('',(0.239524935314,10.343086176089));
#627 = CARTESIAN_POINT('',(0.250573396368,10.310261496271));
#628 = CARTESIAN_POINT('',(0.26907509779,10.250934060966));
#629 = CARTESIAN_POINT('',(0.276718411593,10.224997987982));
#630 = CARTESIAN_POINT('',(0.284133107356,10.198407043495));
#631 = CARTESIAN_POINT('',(0.291318359105,10.171200407775));
#632 = CARTESIAN_POINT('',(0.298273549916,10.143414006391));
#633 = CARTESIAN_POINT('',(0.327799643259,10.019010729368));
#634 = CARTESIAN_POINT('',(0.347962955904,9.916602231117));
#635 = CARTESIAN_POINT('',(0.365453500158,9.809163920356));
#636 = CARTESIAN_POINT('',(0.380235972351,9.697727252324));
#637 = CARTESIAN_POINT('',(0.392271822029,9.583129186483));
#638 = CARTESIAN_POINT('',(0.407522743849,9.390060488261));
#639 = CARTESIAN_POINT('',(0.41234811827,9.313031906972));
#640 = CARTESIAN_POINT('',(0.415977765821,9.235266435703));
#641 = CARTESIAN_POINT('',(0.418401354943,9.157012706924));
#642 = CARTESIAN_POINT('',(0.41961338357,9.078512117536));
#643 = CARTESIAN_POINT('',(0.41961338357,8.920830764415));
#644 = CARTESIAN_POINT('',(0.418380982974,8.841673526882));
#645 = CARTESIAN_POINT('',(0.415916672718,8.762769364874));
#646 = CARTESIAN_POINT('',(0.412226136595,8.68436567639));
#647 = CARTESIAN_POINT('',(0.40732003612,8.60671740568));
#648 = CARTESIAN_POINT('',(0.391863852522,8.412752892802));
#649 = CARTESIAN_POINT('',(0.379706504702,8.297888087408));
#650 = CARTESIAN_POINT('',(0.364786666836,8.186225826885));
#651 = CARTESIAN_POINT('',(0.347142993311,8.078612071007));
#652 = CARTESIAN_POINT('',(0.326810713796,7.976091635093));
#653 = CARTESIAN_POINT('',(0.29707858763,7.851790558888));
#654 = CARTESIAN_POINT('',(0.290103128713,7.824136963637));
#655 = CARTESIAN_POINT('',(0.282898504953,7.797065037284));
#656 = CARTESIAN_POINT('',(0.275465346146,7.770610788624));
#657 = CARTESIAN_POINT('',(0.267804499202,7.744813472088));
#658 = CARTESIAN_POINT('',(0.24930899986,7.685960907024));
#659 = CARTESIAN_POINT('',(0.238288551788,7.653463327387));
#660 = CARTESIAN_POINT('',(0.226861340838,7.622338002902));
#661 = CARTESIAN_POINT('',(0.21503400111,7.592705501386));
#662 = CARTESIAN_POINT('',(0.202814048435,7.564692259234));
#663 = CARTESIAN_POINT('',(0.162274350989,7.480227027722));
#664 = CARTESIAN_POINT('',(0.132249513367,7.430209355762));
#665 = CARTESIAN_POINT('',(0.100537971697,7.390813752269));
#666 = CARTESIAN_POINT('',(6.760454549616E-02,7.363730993882));
#667 = CARTESIAN_POINT('',(3.39271010088E-02,7.35));
#668 = CARTESIAN_POINT('',(0.,7.35));
#669 = ( GEOMETRIC_REPRESENTATION_CONTEXT(2) 
PARAMETRIC_REPRESENTATION_CONTEXT() REPRESENTATION_CONTEXT('2D SPACE',''
  ) );
#670 = ORIENTED_EDGE('',*,*,#671,.F.);
#671 = EDGE_CURVE('',#24,#495,#672,.T.);
#672 = SEAM_CURVE('',#673,(#677,#684),.PCURVE_S1.);
#673 = LINE('',#674,#675);
#674 = CARTESIAN_POINT('',(8.5,-4.041334437186E-16,-3.35));
#675 = VECTOR('',#676,1.);
#676 = DIRECTION('',(-1.,0.,0.));
#677 = PCURVE('',#90,#678);
#678 = DEFINITIONAL_REPRESENTATION('',(#679),#683);
#679 = LINE('',#680,#681);
#680 = CARTESIAN_POINT('',(6.28318530718,-0.));
#681 = VECTOR('',#682,1.);
#682 = DIRECTION('',(0.,1.));
#683 = ( GEOMETRIC_REPRESENTATION_CONTEXT(2) 
PARAMETRIC_REPRESENTATION_CONTEXT() REPRESENTATION_CONTEXT('2D SPACE',''
  ) );
#684 = PCURVE('',#90,#685);
#685 = DEFINITIONAL_REPRESENTATION('',(#686),#690);
#686 = LINE('',#687,#688);
#687 = CARTESIAN_POINT('',(0.,-0.));
#688 = VECTOR('',#689,1.);
#689 = DIRECTION('',(0.,1.));
#690 = ( GEOMETRIC_REPRESENTATION_CONTEXT(2) 
PARAMETRIC_REPRESENTATION_CONTEXT() REPRESENTATION_CONTEXT('2D SPACE',''
  ) );
#691 = ORIENTED_EDGE('',*,*,#176,.T.);
#692 = ORIENTED_EDGE('',*,*,#21,.T.);
#693 = ORIENTED_EDGE('',*,*,#671,.T.);
#694 = ORIENTED_EDGE('',*,*,#695,.F.);
#695 = EDGE_CURVE('',#497,#495,#696,.T.);
#696 = SURFACE_CURVE('',#697,(#750,#806),.PCURVE_S1.);
#697 = B_SPLINE_CURVE_WITH_KNOTS('',6,(#698,#699,#700,#701,#702,#703,
    #704,#705,#706,#707,#708,#709,#710,#711,#712,#713,#714,#715,#716,
    #717,#718,#719,#720,#721,#722,#723,#724,#725,#726,#727,#728,#729,
    #730,#731,#732,#733,#734,#735,#736,#737,#738,#739,#740,#741,#742,
    #743,#744,#745,#746,#747,#748,#749),.UNSPECIFIED.,.F.,.F.,(7,5,5,5,5
    ,5,5,5,5,5,7),(0.,0.136862622441,0.198600984595,0.2443111916,
    0.399299815023,0.499992788267,0.601528525306,0.757001161567,
    0.802628447587,0.863993559101,1.),.UNSPECIFIED.);
#698 = CARTESIAN_POINT('',(4.05,-2.22044604925E-16,-6.65));
#699 = CARTESIAN_POINT('',(4.05,-0.138281008853,-6.65));
#700 = CARTESIAN_POINT('',(4.044334313029,-0.275532252079,
    -6.636093319804));
#701 = CARTESIAN_POINT('',(4.033161287029,-0.409429325271,
    -6.608668541188));
#702 = CARTESIAN_POINT('',(4.017212104401,-0.537730298347,
    -6.568787744297));
#703 = CARTESIAN_POINT('',(3.997733050445,-0.658435332975,-6.51817856371
    ));
#704 = CARTESIAN_POINT('',(3.966391380478,-0.820283957838,
    -6.432784128684));
#705 = CARTESIAN_POINT('',(3.956184431947,-0.868899520565,
    -6.404472585619));
#706 = CARTESIAN_POINT('',(3.945611040998,-0.915787103355,
    -6.374530544396));
#707 = CARTESIAN_POINT('',(3.93476626254,-0.960923950046,-6.343086176088
    ));
#708 = CARTESIAN_POINT('',(3.92374142565,-1.004294248155,-6.310261496272
    ));
#709 = CARTESIAN_POINT('',(3.904390707487,-1.076684426768,
    -6.250934060966));
#710 = CARTESIAN_POINT('',(3.896105762746,-1.106512039343,
    -6.224997987982));
#711 = CARTESIAN_POINT('',(3.887801560106,-1.135372480718,
    -6.198407043495));
#712 = CARTESIAN_POINT('',(3.879509891808,-1.163268100145,
    -6.171200407775));
#713 = CARTESIAN_POINT('',(3.871260736568,-1.190202529611,
    -6.143414006391));
#714 = CARTESIAN_POINT('',(3.835351672175,-1.304264256999,
    -6.019010729368));
#715 = CARTESIAN_POINT('',(3.808419286406,-1.381397517045,
    -5.916602231117));
#716 = CARTESIAN_POINT('',(3.78339922843,-1.447695676385,-5.809163920356
    ));
#717 = CARTESIAN_POINT('',(3.761201536073,-1.503304875616,
    -5.697727252324));
#718 = CARTESIAN_POINT('',(3.742533472676,-1.548336223304,
    -5.583129186484));
#719 = CARTESIAN_POINT('',(3.718394316125,-1.60519014758,-5.390060488261
    ));
#720 = CARTESIAN_POINT('',(3.710595287908,-1.623110065658,
    -5.313031906972));
#721 = CARTESIAN_POINT('',(3.704647261865,-1.636553282747,
    -5.235266435703));
#722 = CARTESIAN_POINT('',(3.700648198892,-1.645517047987,
    -5.157012706924));
#723 = CARTESIAN_POINT('',(3.698648401781,-1.65,-5.078512117536));
#724 = CARTESIAN_POINT('',(3.698648401781,-1.65,-4.920830764415));
#725 = CARTESIAN_POINT('',(3.700681810276,-1.645441695077,
    -4.841673526882));
#726 = CARTESIAN_POINT('',(3.704748069759,-1.636327328481,
    -4.762769364874));
#727 = CARTESIAN_POINT('',(3.710795173856,-1.622658277348,-4.68436567639
    ));
#728 = CARTESIAN_POINT('',(3.718721884276,-1.604437326263,-4.60671740568
    ));
#729 = CARTESIAN_POINT('',(3.743168480729,-1.546810801267,
    -4.412752892802));
#730 = CARTESIAN_POINT('',(3.762006327045,-1.501317088578,
    -4.297888087408));
#731 = CARTESIAN_POINT('',(3.784379384318,-1.445178632522,
    -4.186225826885));
#732 = CARTESIAN_POINT('',(3.809570161962,-1.378281332168,
    -4.078612071007));
#733 = CARTESIAN_POINT('',(3.83665597775,-1.30047585732,-3.976091635094)
  );
#734 = CARTESIAN_POINT('',(3.872680770163,-1.185575843038,
    -3.851790558888));
#735 = CARTESIAN_POINT('',(3.880921541595,-1.158553009743,
    -3.824136963637));
#736 = CARTESIAN_POINT('',(3.889201301572,-1.130572011378,
    -3.797065037284));
#737 = CARTESIAN_POINT('',(3.89749007931,-1.101629332636,-3.770610788624
    ));
#738 = CARTESIAN_POINT('',(3.905756100296,-1.071722781604,
    -3.744813472088));
#739 = CARTESIAN_POINT('',(3.925007168339,-0.999332029979,
    -3.685960907024));
#740 = CARTESIAN_POINT('',(3.935949285842,-0.956057823044,
    -3.653463327387));
#741 = CARTESIAN_POINT('',(3.946706981981,-0.911038916552,
    -3.622338002902));
#742 = CARTESIAN_POINT('',(3.957190208026,-0.864291704317,
    -3.592705501386));
#743 = CARTESIAN_POINT('',(3.967305358229,-0.815839456056,
    -3.564692259234));
#744 = CARTESIAN_POINT('',(3.99834712538,-0.654614838543,-3.480227027723
    ));
#745 = CARTESIAN_POINT('',(4.017613203615,-0.534490459143,
    -3.430209355762));
#746 = CARTESIAN_POINT('',(4.033372202086,-0.406895041408,
    -3.390813752269));
#747 = CARTESIAN_POINT('',(4.044405889217,-0.273798157701,
    -3.363730993882));
#748 = CARTESIAN_POINT('',(4.05,-0.137404759086,-3.35));
#749 = CARTESIAN_POINT('',(4.05,-6.661338147751E-16,-3.35));
#750 = PCURVE('',#90,#751);
#751 = DEFINITIONAL_REPRESENTATION('',(#752),#805);
#752 = B_SPLINE_CURVE_WITH_KNOTS('',6,(#753,#754,#755,#756,#757,#758,
    #759,#760,#761,#762,#763,#764,#765,#766,#767,#768,#769,#770,#771,
    #772,#773,#774,#775,#776,#777,#778,#779,#780,#781,#782,#783,#784,
    #785,#786,#787,#788,#789,#790,#791,#792,#793,#794,#795,#796,#797,
    #798,#799,#800,#801,#802,#803,#804),.UNSPECIFIED.,.F.,.F.,(7,5,5,5,5
    ,5,5,5,5,5,7),(0.,0.136862622441,0.198600984595,0.2443111916,
    0.399299815023,0.499992788267,0.601528525306,0.757001161567,
    0.802628447587,0.863993559101,1.),.UNSPECIFIED.);
#753 = CARTESIAN_POINT('',(3.14159265359,4.45));
#754 = CARTESIAN_POINT('',(3.225399325622,4.45));
#755 = CARTESIAN_POINT('',(3.308581742471,4.455665686971));
#756 = CARTESIAN_POINT('',(3.390791749686,4.466838712971));
#757 = CARTESIAN_POINT('',(3.471647475592,4.482787895599));
#758 = CARTESIAN_POINT('',(3.550661557559,4.502266949555));
#759 = CARTESIAN_POINT('',(3.661567646115,4.533608619522));
#760 = CARTESIAN_POINT('',(3.695633854173,4.543815568053));
#761 = CARTESIAN_POINT('',(3.729308683045,4.554388959002));
#762 = CARTESIAN_POINT('',(3.762608762027,4.56523373746));
#763 = CARTESIAN_POINT('',(3.795548680521,4.57625857435));
#764 = CARTESIAN_POINT('',(3.852273112396,4.595609292513));
#765 = CARTESIAN_POINT('',(3.876218604388,4.603894237254));
#766 = CARTESIAN_POINT('',(3.899987476383,4.612198439894));
#767 = CARTESIAN_POINT('',(3.923589257641,4.620490108192));
#768 = CARTESIAN_POINT('',(3.94703370824,4.628739263432));
#769 = CARTESIAN_POINT('',(4.049323835583,4.664648327825));
#770 = CARTESIAN_POINT('',(4.126664049049,4.691580713594));
#771 = CARTESIAN_POINT('',(4.202697926348,4.71660077157));
#772 = CARTESIAN_POINT('',(4.277733729832,4.738798463927));
#773 = CARTESIAN_POINT('',(4.352067423122,4.757466527324));
#774 = CARTESIAN_POINT('',(4.474046648707,4.781605683875));
#775 = CARTESIAN_POINT('',(4.521897223201,4.789404712092));
#776 = CARTESIAN_POINT('',(4.569609356143,4.795352738135));
#777 = CARTESIAN_POINT('',(4.617229758859,4.799351801108));
#778 = CARTESIAN_POINT('',(4.664805878848,4.801351598219));
#779 = CARTESIAN_POINT('',(4.760370335285,4.801351598219));
#780 = CARTESIAN_POINT('',(4.808344424101,4.799318189724));
#781 = CARTESIAN_POINT('',(4.856363937601,4.795251930241));
#782 = CARTESIAN_POINT('',(4.904477585938,4.789204826144));
#783 = CARTESIAN_POINT('',(4.952733316815,4.781278115724));
#784 = CARTESIAN_POINT('',(5.075365975652,4.756831519271));
#785 = CARTESIAN_POINT('',(5.149950033355,4.737993672955));
#786 = CARTESIAN_POINT('',(5.225247244217,4.715620615682));
#787 = CARTESIAN_POINT('',(5.301557409557,4.690429838038));
#788 = CARTESIAN_POINT('',(5.379192980124,4.66334402225));
#789 = CARTESIAN_POINT('',(5.481781642896,4.627319229837));
#790 = CARTESIAN_POINT('',(5.505205807712,4.619078458405));
#791 = CARTESIAN_POINT('',(5.528787855844,4.610798698428));
#792 = CARTESIAN_POINT('',(5.552537469274,4.60250992069));
#793 = CARTESIAN_POINT('',(5.576464092227,4.594243899704));
#794 = CARTESIAN_POINT('',(5.633006803309,4.574992831661));
#795 = CARTESIAN_POINT('',(5.665781246654,4.564050714158));
#796 = CARTESIAN_POINT('',(5.698912945294,4.553293018019));
#797 = CARTESIAN_POINT('',(5.732415931323,4.542809791974));
#798 = CARTESIAN_POINT('',(5.766306262571,4.532694641771));
#799 = CARTESIAN_POINT('',(5.876615540827,4.50165287462));
#800 = CARTESIAN_POINT('',(5.95517163956,4.482386796385));
#801 = CARTESIAN_POINT('',(6.03554217494,4.466627797914));
#802 = CARTESIAN_POINT('',(6.117247178593,4.455594110783));
#803 = CARTESIAN_POINT('',(6.199909695612,4.45));
#804 = CARTESIAN_POINT('',(6.28318530718,4.45));
#805 = ( GEOMETRIC_REPRESENTATION_CONTEXT(2) 
PARAMETRIC_REPRESENTATION_CONTEXT() REPRESENTATION_CONTEXT('2D SPACE',''
  ) );
#806 = PCURVE('',#610,#807);
#807 = DEFINITIONAL_REPRESENTATION('',(#808),#861);
#808 = B_SPLINE_CURVE_WITH_KNOTS('',6,(#809,#810,#811,#812,#813,#814,
    #815,#816,#817,#818,#819,#820,#821,#822,#823,#824,#825,#826,#827,
    #828,#829,#830,#831,#832,#833,#834,#835,#836,#837,#838,#839,#840,
    #841,#842,#843,#844,#845,#846,#847,#848,#849,#850,#851,#852,#853,
    #854,#855,#856,#857,#858,#859,#860),.UNSPECIFIED.,.F.,.F.,(7,5,5,5,5
    ,5,5,5,5,5,7),(0.,0.136862622441,0.198600984595,0.2443111916,
    0.399299815023,0.499992788267,0.601528525306,0.757001161567,
    0.802628447587,0.863993559101,1.),.UNSPECIFIED.);
#809 = CARTESIAN_POINT('',(6.28318530718,7.35));
#810 = CARTESIAN_POINT('',(6.249041848203,7.35));
#811 = CARTESIAN_POINT('',(6.215152587765,7.363906680196));
#812 = CARTESIAN_POINT('',(6.182020241022,7.391331458812));
#813 = CARTESIAN_POINT('',(6.150130560667,7.431212255703));
#814 = CARTESIAN_POINT('',(6.119955986812,7.48182143629));
#815 = CARTESIAN_POINT('',(6.079250968694,7.567215871316));
#816 = CARTESIAN_POINT('',(6.066986920566,7.595527414381));
#817 = CARTESIAN_POINT('',(6.055120900228,7.625469455604));
#818 = CARTESIAN_POINT('',(6.043660371866,7.656913823912));
#819 = CARTESIAN_POINT('',(6.032611910812,7.689738503728));
#820 = CARTESIAN_POINT('',(6.014110209389,7.749065939034));
#821 = CARTESIAN_POINT('',(6.006466895586,7.775002012018));
#822 = CARTESIAN_POINT('',(5.999052199824,7.801592956505));
#823 = CARTESIAN_POINT('',(5.991866948074,7.828799592225));
#824 = CARTESIAN_POINT('',(5.984911757263,7.856585993609));
#825 = CARTESIAN_POINT('',(5.95538566392,7.980989270632));
#826 = CARTESIAN_POINT('',(5.935222351276,8.083397768883));
#827 = CARTESIAN_POINT('',(5.917731807021,8.190836079644));
#828 = CARTESIAN_POINT('',(5.902949334829,8.302272747676));
#829 = CARTESIAN_POINT('',(5.89091348515,8.416870813516));
#830 = CARTESIAN_POINT('',(5.875662563331,8.609939511739));
#831 = CARTESIAN_POINT('',(5.870837188909,8.686968093028));
#832 = CARTESIAN_POINT('',(5.867207541359,8.764733564297));
#833 = CARTESIAN_POINT('',(5.864783952237,8.842987293076));
#834 = CARTESIAN_POINT('',(5.86357192361,8.921487882464));
#835 = CARTESIAN_POINT('',(5.86357192361,9.079169235585));
#836 = CARTESIAN_POINT('',(5.864804324206,9.158326473118));
#837 = CARTESIAN_POINT('',(5.867268634462,9.237230635126));
#838 = CARTESIAN_POINT('',(5.870959170585,9.31563432361));
#839 = CARTESIAN_POINT('',(5.87586527106,9.39328259432));
#840 = CARTESIAN_POINT('',(5.891321454658,9.587247107198));
#841 = CARTESIAN_POINT('',(5.903478802477,9.702111912592));
#842 = CARTESIAN_POINT('',(5.918398640344,9.813774173115));
#843 = CARTESIAN_POINT('',(5.936042313869,9.921387928993));
#844 = CARTESIAN_POINT('',(5.956374593384,10.023908364906));
#845 = CARTESIAN_POINT('',(5.98610671955,10.148209441112));
#846 = CARTESIAN_POINT('',(5.993082178467,10.175863036363));
#847 = CARTESIAN_POINT('',(6.000286802227,10.202934962716));
#848 = CARTESIAN_POINT('',(6.007719961033,10.229389211376));
#849 = CARTESIAN_POINT('',(6.015380807977,10.255186527912));
#850 = CARTESIAN_POINT('',(6.033876307319,10.314039092976));
#851 = CARTESIAN_POINT('',(6.044896755392,10.346536672613));
#852 = CARTESIAN_POINT('',(6.056323966341,10.377661997098));
#853 = CARTESIAN_POINT('',(6.06815130607,10.407294498614));
#854 = CARTESIAN_POINT('',(6.080371258744,10.435307740766));
#855 = CARTESIAN_POINT('',(6.120910956191,10.519772972277));
#856 = CARTESIAN_POINT('',(6.150935793812,10.569790644238));
#857 = CARTESIAN_POINT('',(6.182647335482,10.609186247731));
#858 = CARTESIAN_POINT('',(6.215580761683,10.636269006118));
#859 = CARTESIAN_POINT('',(6.249258206171,10.65));
#860 = CARTESIAN_POINT('',(6.28318530718,10.65));
#861 = ( GEOMETRIC_REPRESENTATION_CONTEXT(2) 
PARAMETRIC_REPRESENTATION_CONTEXT() REPRESENTATION_CONTEXT('2D SPACE',''
  ) );
#862 = ADVANCED_FACE('',(#863,#866),#304,.F.);
#863 = FACE_BOUND('',#864,.F.);
#864 = EDGE_LOOP('',(#865));
#865 = ORIENTED_EDGE('',*,*,#289,.T.);
#866 = FACE_BOUND('',#867,.F.);
#867 = EDGE_LOOP('',(#868));
#868 = ORIENTED_EDGE('',*,*,#869,.F.);
#869 = EDGE_CURVE('',#870,#870,#872,.T.);
#870 = VERTEX_POINT('',#871);
#871 = CARTESIAN_POINT('',(4.,-9.797174393179E-16,-16.));
#872 = SURFACE_CURVE('',#873,(#878,#885),.PCURVE_S1.);
#873 = CIRCLE('',#874,4.);
#874 = AXIS2_PLACEMENT_3D('',#875,#876,#877);
#875 = CARTESIAN_POINT('',(0.,0.,-16.));
#876 = DIRECTION('',(0.,0.,1.));
#877 = DIRECTION('',(1.,0.,-0.));
#878 = PCURVE('',#304,#879);
#879 = DEFINITIONAL_REPRESENTATION('',(#880),#884);
#880 = CIRCLE('',#881,4.);
#881 = AXIS2_PLACEMENT_2D('',#882,#883);
#882 = CARTESIAN_POINT('',(0.,0.));
#883 = DIRECTION('',(1.,0.));
#884 = ( GEOMETRIC_REPRESENTATION_CONTEXT(2) 
PARAMETRIC_REPRESENTATION_CONTEXT() REPRESENTATION_CONTEXT('2D SPACE',''
  ) );
#885 = PCURVE('',#886,#891);
#886 = CYLINDRICAL_SURFACE('',#887,4.);
#887 = AXIS2_PLACEMENT_3D('',#888,#889,#890);
#888 = CARTESIAN_POINT('',(0.,0.,-116.));
#889 = DIRECTION('',(0.,0.,1.));
#890 = DIRECTION('',(1.,0.,-0.));
#891 = DEFINITIONAL_REPRESENTATION('',(#892),#896);
#892 = LINE('',#893,#894);
#893 = CARTESIAN_POINT('',(0.,100.));
#894 = VECTOR('',#895,1.);
#895 = DIRECTION('',(1.,0.));
#896 = ( GEOMETRIC_REPRESENTATION_CONTEXT(2) 
PARAMETRIC_REPRESENTATION_CONTEXT() REPRESENTATION_CONTEXT('2D SPACE',''
  ) );
#897 = ADVANCED_FACE('',(#898,#901),#163,.T.);
#898 = FACE_BOUND('',#899,.T.);
#899 = EDGE_LOOP('',(#900));
#900 = ORIENTED_EDGE('',*,*,#148,.T.);
#901 = FACE_BOUND('',#902,.T.);
#902 = EDGE_LOOP('',(#903));
#903 = ORIENTED_EDGE('',*,*,#904,.F.);
#904 = EDGE_CURVE('',#905,#905,#907,.T.);
#905 = VERTEX_POINT('',#906);
#906 = CARTESIAN_POINT('',(4.3,-1.053196247267E-15,0.));
#907 = SURFACE_CURVE('',#908,(#913,#920),.PCURVE_S1.);
#908 = CIRCLE('',#909,4.3);
#909 = AXIS2_PLACEMENT_3D('',#910,#911,#912);
#910 = CARTESIAN_POINT('',(0.,0.,0.));
#911 = DIRECTION('',(0.,0.,1.));
#912 = DIRECTION('',(1.,0.,-0.));
#913 = PCURVE('',#163,#914);
#914 = DEFINITIONAL_REPRESENTATION('',(#915),#919);
#915 = CIRCLE('',#916,4.3);
#916 = AXIS2_PLACEMENT_2D('',#917,#918);
#917 = CARTESIAN_POINT('',(0.,0.));
#918 = DIRECTION('',(1.,0.));
#919 = ( GEOMETRIC_REPRESENTATION_CONTEXT(2) 
PARAMETRIC_REPRESENTATION_CONTEXT() REPRESENTATION_CONTEXT('2D SPACE',''
  ) );
#920 = PCURVE('',#921,#926);
#921 = CONICAL_SURFACE('',#922,4.05,0.244978663127);
#922 = AXIS2_PLACEMENT_3D('',#923,#924,#925);
#923 = CARTESIAN_POINT('',(0.,0.,-1.));
#924 = DIRECTION('',(0.,0.,1.));
#925 = DIRECTION('',(1.,0.,-0.));
#926 = DEFINITIONAL_REPRESENTATION('',(#927),#931);
#927 = LINE('',#928,#929);
#928 = CARTESIAN_POINT('',(0.,1.));
#929 = VECTOR('',#930,1.);
#930 = DIRECTION('',(1.,0.));
#931 = ( GEOMETRIC_REPRESENTATION_CONTEXT(2) 
PARAMETRIC_REPRESENTATION_CONTEXT() REPRESENTATION_CONTEXT('2D SPACE',''
  ) );
#932 = ADVANCED_FACE('',(#933),#431,.F.);
#933 = FACE_BOUND('',#934,.F.);
#934 = EDGE_LOOP('',(#935,#1285,#1306,#1307));
#935 = ORIENTED_EDGE('',*,*,#936,.F.);
#936 = EDGE_CURVE('',#937,#937,#939,.T.);
#937 = VERTEX_POINT('',#938);
#938 = CARTESIAN_POINT('',(1.65,3.698648401781,-10.));
#939 = SURFACE_CURVE('',#940,(#1053,#1169),.PCURVE_S1.);
#940 = B_SPLINE_CURVE_WITH_KNOTS('',6,(#941,#942,#943,#944,#945,#946,
    #947,#948,#949,#950,#951,#952,#953,#954,#955,#956,#957,#958,#959,
    #960,#961,#962,#963,#964,#965,#966,#967,#968,#969,#970,#971,#972,
    #973,#974,#975,#976,#977,#978,#979,#980,#981,#982,#983,#984,#985,
    #986,#987,#988,#989,#990,#991,#992,#993,#994,#995,#996,#997,#998,
    #999,#1000,#1001,#1002,#1003,#1004,#1005,#1006,#1007,#1008,#1009,
    #1010,#1011,#1012,#1013,#1014,#1015,#1016,#1017,#1018,#1019,#1020,
    #1021,#1022,#1023,#1024,#1025,#1026,#1027,#1028,#1029,#1030,#1031,
    #1032,#1033,#1034,#1035,#1036,#1037,#1038,#1039,#1040,#1041,#1042,
    #1043,#1044,#1045,#1046,#1047,#1048,#1049,#1050,#1051,#1052),
  .UNSPECIFIED.,.T.,.F.,(7,5,5,5,5,5,5,5,5,5,5,5,5,5,5,5,5,5,5,5,5,5,7),
  (0.,4.982537053241E-02,0.128420947492,0.151220080378,0.181883080529,
    0.22086763139,0.279927926556,0.318514497262,0.349365790134,
    0.372207674538,0.448746650955,0.499976328104,0.549806416101,
    0.628409434486,0.651210725994,0.681876629316,0.720864871233,
    0.779930758225,0.818520982322,0.849375196219,0.872219243311,
    0.948765472821,1.),.UNSPECIFIED.);
#941 = CARTESIAN_POINT('',(1.65,3.698648401781,-10.));
#942 = CARTESIAN_POINT('',(1.65,3.698648401781,-9.922249682933));
#943 = CARTESIAN_POINT('',(1.645603619136,3.70060958338,-9.844510354827)
  );
#944 = CARTESIAN_POINT('',(1.636812877225,3.70453144592,-9.767010800172)
  );
#945 = CARTESIAN_POINT('',(1.623629114973,3.710365609276,-9.689985583099
    ));
#946 = CARTESIAN_POINT('',(1.606055042388,3.718017812475,-9.613676156502
    ));
#947 = CARTESIAN_POINT('',(1.549459378199,3.74207056092,-9.419482484399)
  );
#948 = CARTESIAN_POINT('',(1.503938155376,3.760960529636,-9.303122516381
    ));
#949 = CARTESIAN_POINT('',(1.447524404999,3.783495182538,-9.190008190778
    ));
#950 = CARTESIAN_POINT('',(1.380101266428,3.808936222036,-9.081012651042
    ));
#951 = CARTESIAN_POINT('',(1.301514849172,3.836330220908,-8.977215636741
    ));
#952 = CARTESIAN_POINT('',(1.185575859354,3.872680765048,-8.851790576539
    ));
#953 = CARTESIAN_POINT('',(1.15855305767,3.880921524491,-8.824137018478)
  );
#954 = CARTESIAN_POINT('',(1.130572075747,3.889201278616,-8.797065109484
    ));
#955 = CARTESIAN_POINT('',(1.101629386612,3.897490061219,-8.770610844874
    ));
#956 = CARTESIAN_POINT('',(1.071722805481,3.905756093946,-8.7448134915)
  );
#957 = CARTESIAN_POINT('',(0.999332052882,3.925007162249,-8.685960925644
    ));
#958 = CARTESIAN_POINT('',(0.956057867579,3.935949274623,-8.653463360629
    ));
#959 = CARTESIAN_POINT('',(0.911038975924,3.946706968039,-8.622338042896
    ));
#960 = CARTESIAN_POINT('',(0.86429176563,3.957190194846,-8.592705538099)
  );
#961 = CARTESIAN_POINT('',(0.815839499866,3.967305349794,-8.564692282185
    ));
#962 = CARTESIAN_POINT('',(0.701982454229,3.989227088258,-8.505042820042
    ));
#963 = CARTESIAN_POINT('',(0.635476057524,4.000761137543,-8.474450327919
    ));
#964 = CARTESIAN_POINT('',(0.5664066404,4.011327588583,-8.447021916517)
  );
#965 = CARTESIAN_POINT('',(0.495019840454,4.020707023794,-8.42308265372)
  );
#966 = CARTESIAN_POINT('',(0.421591240745,4.028703592353,-8.402917804765
    ));
#967 = CARTESIAN_POINT('',(0.232547283389,4.04493327129,-8.362322504457)
  );
#968 = CARTESIAN_POINT('',(0.114738123352,4.051162469213,-8.347115123371
    ));
#969 = CARTESIAN_POINT('',(-5.078498991859E-03,4.053218360533,
    -8.342186213561));
#970 = CARTESIAN_POINT('',(-0.124837838025,4.050857629073,
    -8.347854286747));
#971 = CARTESIAN_POINT('',(-0.242476446539,4.044342952294,
    -8.363772723296));
#972 = CARTESIAN_POINT('',(-0.430290702513,4.027766261921,
    -8.405281466039));
#973 = CARTESIAN_POINT('',(-0.502770588003,4.019717965535,
    -8.425603355131));
#974 = CARTESIAN_POINT('',(-0.573225264153,4.010330003535,
    -8.449599737322));
#975 = CARTESIAN_POINT('',(-0.641393406195,3.999793284987,
    -8.476992638641));
#976 = CARTESIAN_POINT('',(-0.707042377721,3.988320391204,
    -8.507467444268));
#977 = CARTESIAN_POINT('',(-0.820284003373,3.96639137166,-8.567215895342
    ));
#978 = CARTESIAN_POINT('',(-0.868899584155,3.956184418197,
    -8.595527452744));
#979 = CARTESIAN_POINT('',(-0.915787164767,3.945611026493,-8.6254694973)
  );
#980 = CARTESIAN_POINT('',(-0.960923995953,3.93476625091,-8.656913858457
    ));
#981 = CARTESIAN_POINT('',(-1.004294271657,3.923741419368,
    -8.689738522989));
#982 = CARTESIAN_POINT('',(-1.076684443173,3.904390703101,
    -8.749065952479));
#983 = CARTESIAN_POINT('',(-1.10651208058,3.896105749409,-8.775002053292
    ));
#984 = CARTESIAN_POINT('',(-1.135372538263,3.887801540756,
    -8.801593017718));
#985 = CARTESIAN_POINT('',(-1.163268156137,3.879509873203,-8.82879965315
    ));
#986 = CARTESIAN_POINT('',(-1.19020256446,3.871260725596,-8.856586031618
    ));
#987 = CARTESIAN_POINT('',(-1.30322860998,3.835677715944,-8.979859725377
    ));
#988 = CARTESIAN_POINT('',(-1.37958063186,3.80905322024,-9.080988787665)
  );
#989 = CARTESIAN_POINT('',(-1.445349472519,3.784283718901,
    -9.187043811178));
#990 = CARTESIAN_POINT('',(-1.500676946163,3.762249341475,
    -9.297027606927));
#991 = CARTESIAN_POINT('',(-1.545671388323,3.743637023608,
    -9.410129877637));
#992 = CARTESIAN_POINT('',(-1.603553161432,3.719106426856,
    -9.602968232266));
#993 = CARTESIAN_POINT('',(-1.62212766804,3.711029897296,-9.681337041521
    ));
#994 = CARTESIAN_POINT('',(-1.636061953086,3.704866465408,
    -9.760483219773));
#995 = CARTESIAN_POINT('',(-1.645353194913,3.700721285916,
    -9.840144338968));
#996 = CARTESIAN_POINT('',(-1.65,3.698648401781,-9.920065891879));
#997 = CARTESIAN_POINT('',(-1.65,3.698648401781,-10.07775031706));
#998 = CARTESIAN_POINT('',(-1.645603619136,3.70060958338,-10.15548964517
    ));
#999 = CARTESIAN_POINT('',(-1.636812877225,3.70453144592,-10.23298919982
    ));
#1000 = CARTESIAN_POINT('',(-1.623629114973,3.710365609276,
    -10.3100144169));
#1001 = CARTESIAN_POINT('',(-1.606055042388,3.718017812475,
    -10.38632384349));
#1002 = CARTESIAN_POINT('',(-1.549459378199,3.74207056092,-10.5805175156
    ));
#1003 = CARTESIAN_POINT('',(-1.503938155376,3.760960529636,
    -10.69687748361));
#1004 = CARTESIAN_POINT('',(-1.447524404999,3.783495182538,
    -10.80999180922));
#1005 = CARTESIAN_POINT('',(-1.380101266428,3.808936222036,
    -10.91898734895));
#1006 = CARTESIAN_POINT('',(-1.301514849172,3.836330220908,
    -11.02278436325));
#1007 = CARTESIAN_POINT('',(-1.185575859353,3.872680765048,
    -11.14820942346));
#1008 = CARTESIAN_POINT('',(-1.15855305767,3.880921524491,
    -11.17586298152));
#1009 = CARTESIAN_POINT('',(-1.130572075747,3.889201278616,
    -11.20293489051));
#1010 = CARTESIAN_POINT('',(-1.101629386612,3.897490061219,
    -11.22938915512));
#1011 = CARTESIAN_POINT('',(-1.071722805481,3.905756093946,
    -11.2551865085));
#1012 = CARTESIAN_POINT('',(-0.999332052882,3.925007162249,
    -11.31403907435));
#1013 = CARTESIAN_POINT('',(-0.956057867579,3.935949274623,
    -11.34653663937));
#1014 = CARTESIAN_POINT('',(-0.911038975924,3.946706968039,
    -11.3776619571));
#1015 = CARTESIAN_POINT('',(-0.86429176563,3.957190194846,-11.4072944619
    ));
#1016 = CARTESIAN_POINT('',(-0.815839499865,3.967305349794,
    -11.43530771781));
#1017 = CARTESIAN_POINT('',(-0.701982454229,3.989227088258,
    -11.49495717995));
#1018 = CARTESIAN_POINT('',(-0.635476057523,4.000761137543,
    -11.52554967208));
#1019 = CARTESIAN_POINT('',(-0.5664066404,4.011327588583,-11.55297808348
    ));
#1020 = CARTESIAN_POINT('',(-0.495019840453,4.020707023794,
    -11.57691734628));
#1021 = CARTESIAN_POINT('',(-0.421591240745,4.028703592353,
    -11.59708219523));
#1022 = CARTESIAN_POINT('',(-0.232547283389,4.04493327129,
    -11.63767749554));
#1023 = CARTESIAN_POINT('',(-0.114738123352,4.051162469213,
    -11.65288487662));
#1024 = CARTESIAN_POINT('',(5.078498992077E-03,4.053218360533,
    -11.65781378643));
#1025 = CARTESIAN_POINT('',(0.124837838025,4.050857629073,
    -11.65214571325));
#1026 = CARTESIAN_POINT('',(0.242476446539,4.044342952294,-11.6362272767
    ));
#1027 = CARTESIAN_POINT('',(0.430290702544,4.027766261918,
    -11.59471853395));
#1028 = CARTESIAN_POINT('',(0.502770587991,4.019717965535,
    -11.57439664486));
#1029 = CARTESIAN_POINT('',(0.573225264122,4.01033000354,-11.55040026268
    ));
#1030 = CARTESIAN_POINT('',(0.641393406189,3.99979328499,-11.52300736136
    ));
#1031 = CARTESIAN_POINT('',(0.707042377748,3.988320391199,
    -11.49253255571));
#1032 = CARTESIAN_POINT('',(0.820284003373,3.96639137166,-11.43278410465
    ));
#1033 = CARTESIAN_POINT('',(0.868899584155,3.956184418197,
    -11.40447254725));
#1034 = CARTESIAN_POINT('',(0.915787164767,3.945611026493,-11.3745305027
    ));
#1035 = CARTESIAN_POINT('',(0.960923995953,3.93476625091,-11.34308614154
    ));
#1036 = CARTESIAN_POINT('',(1.004294271657,3.923741419368,
    -11.31026147701));
#1037 = CARTESIAN_POINT('',(1.076684443174,3.904390703101,
    -11.25093404752));
#1038 = CARTESIAN_POINT('',(1.10651208058,3.896105749409,-11.2249979467)
  );
#1039 = CARTESIAN_POINT('',(1.135372538263,3.887801540756,
    -11.19840698228));
#1040 = CARTESIAN_POINT('',(1.163268156137,3.879509873203,
    -11.17120034685));
#1041 = CARTESIAN_POINT('',(1.19020256446,3.871260725596,-11.14341396838
    ));
#1042 = CARTESIAN_POINT('',(1.303228617169,3.83567771368,-11.02014026678
    ));
#1043 = CARTESIAN_POINT('',(1.379580622889,3.80905322333,-10.9190112267)
  );
#1044 = CARTESIAN_POINT('',(1.445349470697,3.784283719314,
    -10.81295618752));
#1045 = CARTESIAN_POINT('',(1.500676954317,3.762249338565,
    -10.70297237804));
#1046 = CARTESIAN_POINT('',(1.545671385164,3.743637024947,
    -10.58987013289));
#1047 = CARTESIAN_POINT('',(1.603553161432,3.719106426856,
    -10.39703176773));
#1048 = CARTESIAN_POINT('',(1.62212766804,3.711029897296,-10.31866295847
    ));
#1049 = CARTESIAN_POINT('',(1.636061953086,3.704866465408,
    -10.23951678022));
#1050 = CARTESIAN_POINT('',(1.645353194913,3.700721285916,
    -10.15985566103));
#1051 = CARTESIAN_POINT('',(1.65,3.698648401781,-10.07993410812));
#1052 = CARTESIAN_POINT('',(1.65,3.698648401781,-10.));
#1053 = PCURVE('',#431,#1054);
#1054 = DEFINITIONAL_REPRESENTATION('',(#1055),#1168);
#1055 = B_SPLINE_CURVE_WITH_KNOTS('',6,(#1056,#1057,#1058,#1059,#1060,
    #1061,#1062,#1063,#1064,#1065,#1066,#1067,#1068,#1069,#1070,#1071,
    #1072,#1073,#1074,#1075,#1076,#1077,#1078,#1079,#1080,#1081,#1082,
    #1083,#1084,#1085,#1086,#1087,#1088,#1089,#1090,#1091,#1092,#1093,
    #1094,#1095,#1096,#1097,#1098,#1099,#1100,#1101,#1102,#1103,#1104,
    #1105,#1106,#1107,#1108,#1109,#1110,#1111,#1112,#1113,#1114,#1115,
    #1116,#1117,#1118,#1119,#1120,#1121,#1122,#1123,#1124,#1125,#1126,
    #1127,#1128,#1129,#1130,#1131,#1132,#1133,#1134,#1135,#1136,#1137,
    #1138,#1139,#1140,#1141,#1142,#1143,#1144,#1145,#1146,#1147,#1148,
    #1149,#1150,#1151,#1152,#1153,#1154,#1155,#1156,#1157,#1158,#1159,
    #1160,#1161,#1162,#1163,#1164,#1165,#1166,#1167),.UNSPECIFIED.,.F.,
  .F.,(7,5,5,5,5,5,5,5,5,5,5,5,5,5,5,5,5,5,5,5,5,5,7),(0.,
    4.982537053241E-02,0.128420947492,0.151220080378,0.181883080529,
    0.22086763139,0.279927926556,0.318514497262,0.349365790134,
    0.372207674538,0.448746650955,0.499976328104,0.549806416101,
    0.628409434486,0.651210725994,0.681876629316,0.720864871233,
    0.779930758225,0.818520982322,0.849375196219,0.872219243311,
    0.948765472821,1.),.UNSPECIFIED.);
#1056 = CARTESIAN_POINT('',(0.,4.801351598219));
#1057 = CARTESIAN_POINT('',(4.712140428276E-02,4.801351598219));
#1058 = CARTESIAN_POINT('',(9.423615351513E-02,4.79939041662));
#1059 = CARTESIAN_POINT('',(0.141393892075,4.79546855408));
#1060 = CARTESIAN_POINT('',(0.188640629982,4.789634390724));
#1061 = CARTESIAN_POINT('',(0.23602167052,4.781982187525));
#1062 = CARTESIAN_POINT('',(0.358611195146,4.75792943908));
#1063 = CARTESIAN_POINT('',(0.434034451913,4.739039470364));
#1064 = CARTESIAN_POINT('',(0.510178114127,4.716504817462));
#1065 = CARTESIAN_POINT('',(0.587351312049,4.691063777964));
#1066 = CARTESIAN_POINT('',(0.665876334192,4.663669779092));
#1067 = CARTESIAN_POINT('',(0.769392647944,4.627319234952));
#1068 = CARTESIAN_POINT('',(0.79281677819,4.619078475509));
#1069 = CARTESIAN_POINT('',(0.81639880927,4.610798721384));
#1070 = CARTESIAN_POINT('',(0.840148436486,4.602509938781));
#1071 = CARTESIAN_POINT('',(0.864075093193,4.594243906054));
#1072 = CARTESIAN_POINT('',(0.920617805035,4.574992837751));
#1073 = CARTESIAN_POINT('',(0.953392232617,4.564050725377));
#1074 = CARTESIAN_POINT('',(0.986523921598,4.553293031961));
#1075 = CARTESIAN_POINT('',(1.020026907697,4.542809805154));
#1076 = CARTESIAN_POINT('',(1.053917252213,4.532694650206));
#1077 = CARTESIAN_POINT('',(1.131817815552,4.510772911742));
#1078 = CARTESIAN_POINT('',(1.176125854187,4.499238862457));
#1079 = CARTESIAN_POINT('',(1.221069331469,4.488672411417));
#1080 = CARTESIAN_POINT('',(1.266597838595,4.479292976206));
#1081 = CARTESIAN_POINT('',(1.312674046159,4.471296407647));
#1082 = CARTESIAN_POINT('',(1.429858017302,4.45506672871));
#1083 = CARTESIAN_POINT('',(1.501601061133,4.448837530787));
#1084 = CARTESIAN_POINT('',(1.573859493503,4.446781639467));
#1085 = CARTESIAN_POINT('',(1.646103449155,4.449142370927));
#1086 = CARTESIAN_POINT('',(1.717801490326,4.455657047706));
#1087 = CARTESIAN_POINT('',(1.834375117881,4.472233738079));
#1088 = CARTESIAN_POINT('',(1.879925199244,4.480282034465));
#1089 = CARTESIAN_POINT('',(1.924933165493,4.489669996465));
#1090 = CARTESIAN_POINT('',(1.96936468911,4.500206715013));
#1091 = CARTESIAN_POINT('',(2.013173003465,4.511679608796));
#1092 = CARTESIAN_POINT('',(2.090771350523,4.53360862834));
#1093 = CARTESIAN_POINT('',(2.124837572314,4.543815581803));
#1094 = CARTESIAN_POINT('',(2.158512401159,4.554388973507));
#1095 = CARTESIAN_POINT('',(2.191812470022,4.56523374909));
#1096 = CARTESIAN_POINT('',(2.224752372142,4.576258580632));
#1097 = CARTESIAN_POINT('',(2.281476798456,4.595609296899));
#1098 = CARTESIAN_POINT('',(2.305422316409,4.603894250591));
#1099 = CARTESIAN_POINT('',(2.329191205618,4.612198459244));
#1100 = CARTESIAN_POINT('',(2.35279298438,4.620490126797));
#1101 = CARTESIAN_POINT('',(2.376237412697,4.628739274404));
#1102 = CARTESIAN_POINT('',(2.477598744444,4.664322284056));
#1103 = CARTESIAN_POINT('',(2.554047401785,4.69094677976));
#1104 = CARTESIAN_POINT('',(2.629215731442,4.715716281099));
#1105 = CARTESIAN_POINT('',(2.70340257756,4.737750658525));
#1106 = CARTESIAN_POINT('',(2.776894826323,4.756362976392));
#1107 = CARTESIAN_POINT('',(2.898917766969,4.780893573144));
#1108 = CARTESIAN_POINT('',(2.947645253705,4.788970102704));
#1109 = CARTESIAN_POINT('',(2.996226336305,4.795133534592));
#1110 = CARTESIAN_POINT('',(3.044710429014,4.799278714084));
#1111 = CARTESIAN_POINT('',(3.093147739577,4.801351598219));
#1112 = CARTESIAN_POINT('',(3.188714057873,4.801351598219));
#1113 = CARTESIAN_POINT('',(3.235828807105,4.79939041662));
#1114 = CARTESIAN_POINT('',(3.282986545664,4.79546855408));
#1115 = CARTESIAN_POINT('',(3.330233283572,4.789634390724));
#1116 = CARTESIAN_POINT('',(3.37761432411,4.781982187525));
#1117 = CARTESIAN_POINT('',(3.500203848736,4.75792943908));
#1118 = CARTESIAN_POINT('',(3.575627105503,4.739039470364));
#1119 = CARTESIAN_POINT('',(3.651770767717,4.716504817462));
#1120 = CARTESIAN_POINT('',(3.728943965639,4.691063777964));
#1121 = CARTESIAN_POINT('',(3.807468987781,4.663669779092));
#1122 = CARTESIAN_POINT('',(3.910985301533,4.627319234952));
#1123 = CARTESIAN_POINT('',(3.93440943178,4.619078475509));
#1124 = CARTESIAN_POINT('',(3.95799146286,4.610798721384));
#1125 = CARTESIAN_POINT('',(3.981741090076,4.602509938781));
#1126 = CARTESIAN_POINT('',(4.005667746783,4.594243906054));
#1127 = CARTESIAN_POINT('',(4.062210458625,4.574992837751));
#1128 = CARTESIAN_POINT('',(4.094984886207,4.564050725377));
#1129 = CARTESIAN_POINT('',(4.128116575187,4.553293031961));
#1130 = CARTESIAN_POINT('',(4.161619561286,4.542809805154));
#1131 = CARTESIAN_POINT('',(4.195509905803,4.532694650206));
#1132 = CARTESIAN_POINT('',(4.273410469142,4.510772911742));
#1133 = CARTESIAN_POINT('',(4.317718507777,4.499238862457));
#1134 = CARTESIAN_POINT('',(4.362661985059,4.488672411417));
#1135 = CARTESIAN_POINT('',(4.408190492185,4.479292976206));
#1136 = CARTESIAN_POINT('',(4.454266699749,4.471296407647));
#1137 = CARTESIAN_POINT('',(4.571450670891,4.45506672871));
#1138 = CARTESIAN_POINT('',(4.643193714723,4.448837530787));
#1139 = CARTESIAN_POINT('',(4.715452147093,4.446781639467));
#1140 = CARTESIAN_POINT('',(4.787696102744,4.449142370927));
#1141 = CARTESIAN_POINT('',(4.859394143916,4.455657047706));
#1142 = CARTESIAN_POINT('',(4.97596777149,4.472233738082));
#1143 = CARTESIAN_POINT('',(5.021517852827,4.480282034465));
#1144 = CARTESIAN_POINT('',(5.066525819063,4.48966999646));
#1145 = CARTESIAN_POINT('',(5.110957342695,4.50020671501));
#1146 = CARTESIAN_POINT('',(5.154765657074,4.511679608801));
#1147 = CARTESIAN_POINT('',(5.232364004112,4.53360862834));
#1148 = CARTESIAN_POINT('',(5.266430225904,4.543815581803));
#1149 = CARTESIAN_POINT('',(5.300105054749,4.554388973507));
#1150 = CARTESIAN_POINT('',(5.333405123612,4.56523374909));
#1151 = CARTESIAN_POINT('',(5.366345025731,4.576258580632));
#1152 = CARTESIAN_POINT('',(5.423069452046,4.595609296899));
#1153 = CARTESIAN_POINT('',(5.447014969999,4.603894250591));
#1154 = CARTESIAN_POINT('',(5.470783859207,4.612198459244));
#1155 = CARTESIAN_POINT('',(5.49438563797,4.620490126797));
#1156 = CARTESIAN_POINT('',(5.517830066287,4.628739274404));
#1157 = CARTESIAN_POINT('',(5.619191404481,4.66432228632));
#1158 = CARTESIAN_POINT('',(5.695640044894,4.69094677667));
#1159 = CARTESIAN_POINT('',(5.770808385174,4.715716280686));
#1160 = CARTESIAN_POINT('',(5.844995241736,4.737750661435));
#1161 = CARTESIAN_POINT('',(5.918487473251,4.756362975053));
#1162 = CARTESIAN_POINT('',(6.040510420559,4.780893573144));
#1163 = CARTESIAN_POINT('',(6.089237907295,4.788970102704));
#1164 = CARTESIAN_POINT('',(6.137818989895,4.795133534592));
#1165 = CARTESIAN_POINT('',(6.186303082604,4.799278714084));
#1166 = CARTESIAN_POINT('',(6.234740393167,4.801351598219));
#1167 = CARTESIAN_POINT('',(6.28318530718,4.801351598219));
#1168 = ( GEOMETRIC_REPRESENTATION_CONTEXT(2) 
PARAMETRIC_REPRESENTATION_CONTEXT() REPRESENTATION_CONTEXT('2D SPACE',''
  ) );
#1169 = PCURVE('',#610,#1170);
#1170 = DEFINITIONAL_REPRESENTATION('',(#1171),#1284);
#1171 = B_SPLINE_CURVE_WITH_KNOTS('',6,(#1172,#1173,#1174,#1175,#1176,
    #1177,#1178,#1179,#1180,#1181,#1182,#1183,#1184,#1185,#1186,#1187,
    #1188,#1189,#1190,#1191,#1192,#1193,#1194,#1195,#1196,#1197,#1198,
    #1199,#1200,#1201,#1202,#1203,#1204,#1205,#1206,#1207,#1208,#1209,
    #1210,#1211,#1212,#1213,#1214,#1215,#1216,#1217,#1218,#1219,#1220,
    #1221,#1222,#1223,#1224,#1225,#1226,#1227,#1228,#1229,#1230,#1231,
    #1232,#1233,#1234,#1235,#1236,#1237,#1238,#1239,#1240,#1241,#1242,
    #1243,#1244,#1245,#1246,#1247,#1248,#1249,#1250,#1251,#1252,#1253,
    #1254,#1255,#1256,#1257,#1258,#1259,#1260,#1261,#1262,#1263,#1264,
    #1265,#1266,#1267,#1268,#1269,#1270,#1271,#1272,#1273,#1274,#1275,
    #1276,#1277,#1278,#1279,#1280,#1281,#1282,#1283),.UNSPECIFIED.,.T.,
  .F.,(7,5,5,5,5,5,5,5,5,5,5,5,5,5,5,5,5,5,5,5,5,5,7),(0.,
    4.982537053241E-02,0.128420947492,0.151220080378,0.181883080529,
    0.22086763139,0.279927926556,0.318514497262,0.349365790134,
    0.372207674538,0.448746650955,0.499976328104,0.549806416101,
    0.628409434486,0.651210725994,0.681876629316,0.720864871233,
    0.779930758225,0.818520982322,0.849375196219,0.872219243311,
    0.948765472821,1.),.UNSPECIFIED.);
#1172 = CARTESIAN_POINT('',(1.151182943225,4.));
#1173 = CARTESIAN_POINT('',(1.151182943225,4.077750317067));
#1174 = CARTESIAN_POINT('',(1.152371566932,4.155489645173));
#1175 = CARTESIAN_POINT('',(1.154748372373,4.232989199828));
#1176 = CARTESIAN_POINT('',(1.158308063082,4.310014416901));
#1177 = CARTESIAN_POINT('',(1.163040680769,4.386323843498));
#1178 = CARTESIAN_POINT('',(1.178224568925,4.580517515601));
#1179 = CARTESIAN_POINT('',(1.190393121208,4.696877483619));
#1180 = CARTESIAN_POINT('',(1.20539090868,4.809991809222));
#1181 = CARTESIAN_POINT('',(1.223177710775,4.918987348958));
#1182 = CARTESIAN_POINT('',(1.243716758056,5.022784363259));
#1183 = CARTESIAN_POINT('',(1.273717734943,5.148209423461));
#1184 = CARTESIAN_POINT('',(1.280693184875,5.175862981522));
#1185 = CARTESIAN_POINT('',(1.287897804001,5.202934890516));
#1186 = CARTESIAN_POINT('',(1.295330965939,5.229389155126));
#1187 = CARTESIAN_POINT('',(1.302991821492,5.2551865085));
#1188 = CARTESIAN_POINT('',(1.321487321083,5.314039074356));
#1189 = CARTESIAN_POINT('',(1.332507763668,5.346536639371));
#1190 = CARTESIAN_POINT('',(1.343934970901,5.377661957104));
#1191 = CARTESIAN_POINT('',(1.355762310204,5.407294461901));
#1192 = CARTESIAN_POINT('',(1.367982267344,5.435307717815));
#1193 = CARTESIAN_POINT('',(1.396611457187,5.494957179958));
#1194 = CARTESIAN_POINT('',(1.413275083461,5.525549672081));
#1195 = CARTESIAN_POINT('',(1.430522306787,5.552978083483));
#1196 = CARTESIAN_POINT('',(1.448293861823,5.57691734628));
#1197 = CARTESIAN_POINT('',(1.466526802068,5.597082195235));
#1198 = CARTESIAN_POINT('',(1.513376023869,5.637677495543));
#1199 = CARTESIAN_POINT('',(1.54248971289,5.652884876629));
#1200 = CARTESIAN_POINT('',(1.572049245717,5.657813786439));
#1201 = CARTESIAN_POINT('',(1.601596111249,5.652145713253));
#1202 = CARTESIAN_POINT('',(1.630671679104,5.636227276704));
#1203 = CARTESIAN_POINT('',(1.677225845815,5.594718533961));
#1204 = CARTESIAN_POINT('',(1.695227511052,5.574396644869));
#1205 = CARTESIAN_POINT('',(1.712771417458,5.550400262678));
#1206 = CARTESIAN_POINT('',(1.729797779545,5.523007361359));
#1207 = CARTESIAN_POINT('',(1.746250345634,5.492532555732));
#1208 = CARTESIAN_POINT('',(1.774730676733,5.432784104658));
#1209 = CARTESIAN_POINT('',(1.786994729469,5.404472547256));
#1210 = CARTESIAN_POINT('',(1.798860749324,5.3745305027));
#1211 = CARTESIAN_POINT('',(1.810321273801,5.343086141543));
#1212 = CARTESIAN_POINT('',(1.821369729169,5.310261477011));
#1213 = CARTESIAN_POINT('',(1.839871428778,5.250934047521));
#1214 = CARTESIAN_POINT('',(1.847514749529,5.224997946708));
#1215 = CARTESIAN_POINT('',(1.854929449794,5.198406982282));
#1216 = CARTESIAN_POINT('',(1.862114700903,5.17120034685));
#1217 = CARTESIAN_POINT('',(1.869069885732,5.143413968382));
#1218 = CARTESIAN_POINT('',(1.89832788179,5.020140274623));
#1219 = CARTESIAN_POINT('',(1.918284361986,4.919011212335));
#1220 = CARTESIAN_POINT('',(1.935630942992,4.812956188822));
#1221 = CARTESIAN_POINT('',(1.950333840105,4.702972393073));
#1222 = CARTESIAN_POINT('',(1.962356002832,4.589870122363));
#1223 = CARTESIAN_POINT('',(1.97787830677,4.397031767734));
#1224 = CARTESIAN_POINT('',(1.982879203863,4.318662958479));
#1225 = CARTESIAN_POINT('',(1.986641247714,4.239516780227));
#1226 = CARTESIAN_POINT('',(1.989153383418,4.159855661032));
#1227 = CARTESIAN_POINT('',(1.990409710365,4.079934108121));
#1228 = CARTESIAN_POINT('',(1.990409710365,3.922249682933));
#1229 = CARTESIAN_POINT('',(1.989221086657,3.844510354827));
#1230 = CARTESIAN_POINT('',(1.986844281217,3.767010800172));
#1231 = CARTESIAN_POINT('',(1.983284590508,3.689985583099));
#1232 = CARTESIAN_POINT('',(1.978551972821,3.613676156502));
#1233 = CARTESIAN_POINT('',(1.963368084664,3.419482484399));
#1234 = CARTESIAN_POINT('',(1.951199532382,3.303122516381));
#1235 = CARTESIAN_POINT('',(1.93620174491,3.190008190778));
#1236 = CARTESIAN_POINT('',(1.918414942815,3.081012651042));
#1237 = CARTESIAN_POINT('',(1.897875895534,2.977215636741));
#1238 = CARTESIAN_POINT('',(1.867874918647,2.851790576539));
#1239 = CARTESIAN_POINT('',(1.860899468714,2.824137018478));
#1240 = CARTESIAN_POINT('',(1.853694849589,2.797065109484));
#1241 = CARTESIAN_POINT('',(1.846261687651,2.770610844874));
#1242 = CARTESIAN_POINT('',(1.838600832098,2.7448134915));
#1243 = CARTESIAN_POINT('',(1.820105332507,2.685960925644));
#1244 = CARTESIAN_POINT('',(1.809084889922,2.653463360629));
#1245 = CARTESIAN_POINT('',(1.797657682688,2.622338042896));
#1246 = CARTESIAN_POINT('',(1.785830343386,2.592705538099));
#1247 = CARTESIAN_POINT('',(1.773610386246,2.564692282185));
#1248 = CARTESIAN_POINT('',(1.744981196402,2.505042820042));
#1249 = CARTESIAN_POINT('',(1.728317570128,2.474450327919));
#1250 = CARTESIAN_POINT('',(1.711070346803,2.447021916517));
#1251 = CARTESIAN_POINT('',(1.693298791767,2.42308265372));
#1252 = CARTESIAN_POINT('',(1.675065851522,2.402917804765));
#1253 = CARTESIAN_POINT('',(1.628216629721,2.362322504457));
#1254 = CARTESIAN_POINT('',(1.599102940699,2.347115123371));
#1255 = CARTESIAN_POINT('',(1.569543407873,2.342186213562));
#1256 = CARTESIAN_POINT('',(1.539996542341,2.347854286747));
#1257 = CARTESIAN_POINT('',(1.510920974485,2.363772723296));
#1258 = CARTESIAN_POINT('',(1.464366807768,2.405281466046));
#1259 = CARTESIAN_POINT('',(1.446365142541,2.425603355132));
#1260 = CARTESIAN_POINT('',(1.42882123614,2.449599737311));
#1261 = CARTESIAN_POINT('',(1.411794874046,2.476992638634));
#1262 = CARTESIAN_POINT('',(1.395342307949,2.507467444282));
#1263 = CARTESIAN_POINT('',(1.366861976857,2.567215895342));
#1264 = CARTESIAN_POINT('',(1.354597924121,2.595527452744));
#1265 = CARTESIAN_POINT('',(1.342731904266,2.6254694973));
#1266 = CARTESIAN_POINT('',(1.331271379789,2.656913858457));
#1267 = CARTESIAN_POINT('',(1.320222924421,2.689738522989));
#1268 = CARTESIAN_POINT('',(1.301721224812,2.749065952479));
#1269 = CARTESIAN_POINT('',(1.294077904061,2.775002053292));
#1270 = CARTESIAN_POINT('',(1.286663203796,2.801593017718));
#1271 = CARTESIAN_POINT('',(1.279477952687,2.82879965315));
#1272 = CARTESIAN_POINT('',(1.272522767858,2.856586031618));
#1273 = CARTESIAN_POINT('',(1.243264769939,2.979859733218));
#1274 = CARTESIAN_POINT('',(1.223308293948,3.080988773295));
#1275 = CARTESIAN_POINT('',(1.205961711055,3.18704381248));
#1276 = CARTESIAN_POINT('',(1.191258811345,3.297027621959));
#1277 = CARTESIAN_POINT('',(1.179236651605,3.41012986711));
#1278 = CARTESIAN_POINT('',(1.16371434682,3.602968232267));
#1279 = CARTESIAN_POINT('',(1.158713449727,3.681337041522));
#1280 = CARTESIAN_POINT('',(1.154951405876,3.760483219773));
#1281 = CARTESIAN_POINT('',(1.152439270172,3.840144338968));
#1282 = CARTESIAN_POINT('',(1.151182943225,3.920065891879));
#1283 = CARTESIAN_POINT('',(1.151182943225,4.));
#1284 = ( GEOMETRIC_REPRESENTATION_CONTEXT(2) 
PARAMETRIC_REPRESENTATION_CONTEXT() REPRESENTATION_CONTEXT('2D SPACE',''
  ) );
#1285 = ORIENTED_EDGE('',*,*,#1286,.F.);
#1286 = EDGE_CURVE('',#320,#937,#1287,.T.);
#1287 = SEAM_CURVE('',#1288,(#1292,#1299),.PCURVE_S1.);
#1288 = LINE('',#1289,#1290);
#1289 = CARTESIAN_POINT('',(1.65,8.5,-10.));
#1290 = VECTOR('',#1291,1.);
#1291 = DIRECTION('',(0.,-1.,0.));
#1292 = PCURVE('',#431,#1293);
#1293 = DEFINITIONAL_REPRESENTATION('',(#1294),#1298);
#1294 = LINE('',#1295,#1296);
#1295 = CARTESIAN_POINT('',(6.28318530718,-0.));
#1296 = VECTOR('',#1297,1.);
#1297 = DIRECTION('',(0.,1.));
#1298 = ( GEOMETRIC_REPRESENTATION_CONTEXT(2) 
PARAMETRIC_REPRESENTATION_CONTEXT() REPRESENTATION_CONTEXT('2D SPACE',''
  ) );
#1299 = PCURVE('',#431,#1300);
#1300 = DEFINITIONAL_REPRESENTATION('',(#1301),#1305);
#1301 = LINE('',#1302,#1303);
#1302 = CARTESIAN_POINT('',(0.,-0.));
#1303 = VECTOR('',#1304,1.);
#1304 = DIRECTION('',(0.,1.));
#1305 = ( GEOMETRIC_REPRESENTATION_CONTEXT(2) 
PARAMETRIC_REPRESENTATION_CONTEXT() REPRESENTATION_CONTEXT('2D SPACE',''
  ) );
#1306 = ORIENTED_EDGE('',*,*,#319,.T.);
#1307 = ORIENTED_EDGE('',*,*,#1286,.T.);
#1308 = ADVANCED_FACE('',(#1309,#1410),#610,.F.);
#1309 = FACE_BOUND('',#1310,.F.);
#1310 = EDGE_LOOP('',(#1311,#1312,#1335,#1357,#1358,#1359,#1382,#1409));
#1311 = ORIENTED_EDGE('',*,*,#695,.T.);
#1312 = ORIENTED_EDGE('',*,*,#1313,.T.);
#1313 = EDGE_CURVE('',#495,#1314,#1316,.T.);
#1314 = VERTEX_POINT('',#1315);
#1315 = CARTESIAN_POINT('',(4.05,-9.919639073094E-16,-1.));
#1316 = SEAM_CURVE('',#1317,(#1321,#1328),.PCURVE_S1.);
#1317 = LINE('',#1318,#1319);
#1318 = CARTESIAN_POINT('',(4.05,-9.919639073094E-16,-14.));
#1319 = VECTOR('',#1320,1.);
#1320 = DIRECTION('',(0.,0.,1.));
#1321 = PCURVE('',#610,#1322);
#1322 = DEFINITIONAL_REPRESENTATION('',(#1323),#1327);
#1323 = LINE('',#1324,#1325);
#1324 = CARTESIAN_POINT('',(0.,-0.));
#1325 = VECTOR('',#1326,1.);
#1326 = DIRECTION('',(0.,1.));
#1327 = ( GEOMETRIC_REPRESENTATION_CONTEXT(2) 
PARAMETRIC_REPRESENTATION_CONTEXT() REPRESENTATION_CONTEXT('2D SPACE',''
  ) );
#1328 = PCURVE('',#610,#1329);
#1329 = DEFINITIONAL_REPRESENTATION('',(#1330),#1334);
#1330 = LINE('',#1331,#1332);
#1331 = CARTESIAN_POINT('',(6.28318530718,-0.));
#1332 = VECTOR('',#1333,1.);
#1333 = DIRECTION('',(0.,1.));
#1334 = ( GEOMETRIC_REPRESENTATION_CONTEXT(2) 
PARAMETRIC_REPRESENTATION_CONTEXT() REPRESENTATION_CONTEXT('2D SPACE',''
  ) );
#1335 = ORIENTED_EDGE('',*,*,#1336,.F.);
#1336 = EDGE_CURVE('',#1314,#1314,#1337,.T.);
#1337 = SURFACE_CURVE('',#1338,(#1343,#1350),.PCURVE_S1.);
#1338 = CIRCLE('',#1339,4.05);
#1339 = AXIS2_PLACEMENT_3D('',#1340,#1341,#1342);
#1340 = CARTESIAN_POINT('',(0.,0.,-1.));
#1341 = DIRECTION('',(0.,0.,1.));
#1342 = DIRECTION('',(1.,0.,-0.));
#1343 = PCURVE('',#610,#1344);
#1344 = DEFINITIONAL_REPRESENTATION('',(#1345),#1349);
#1345 = LINE('',#1346,#1347);
#1346 = CARTESIAN_POINT('',(0.,13.));
#1347 = VECTOR('',#1348,1.);
#1348 = DIRECTION('',(1.,0.));
#1349 = ( GEOMETRIC_REPRESENTATION_CONTEXT(2) 
PARAMETRIC_REPRESENTATION_CONTEXT() REPRESENTATION_CONTEXT('2D SPACE',''
  ) );
#1350 = PCURVE('',#921,#1351);
#1351 = DEFINITIONAL_REPRESENTATION('',(#1352),#1356);
#1352 = LINE('',#1353,#1354);
#1353 = CARTESIAN_POINT('',(0.,0.));
#1354 = VECTOR('',#1355,1.);
#1355 = DIRECTION('',(1.,0.));
#1356 = ( GEOMETRIC_REPRESENTATION_CONTEXT(2) 
PARAMETRIC_REPRESENTATION_CONTEXT() REPRESENTATION_CONTEXT('2D SPACE',''
  ) );
#1357 = ORIENTED_EDGE('',*,*,#1313,.F.);
#1358 = ORIENTED_EDGE('',*,*,#494,.T.);
#1359 = ORIENTED_EDGE('',*,*,#1360,.F.);
#1360 = EDGE_CURVE('',#1361,#497,#1363,.T.);
#1361 = VERTEX_POINT('',#1362);
#1362 = CARTESIAN_POINT('',(4.05,-9.919639073094E-16,-14.));
#1363 = SEAM_CURVE('',#1364,(#1368,#1375),.PCURVE_S1.);
#1364 = LINE('',#1365,#1366);
#1365 = CARTESIAN_POINT('',(4.05,-9.919639073094E-16,-14.));
#1366 = VECTOR('',#1367,1.);
#1367 = DIRECTION('',(0.,0.,1.));
#1368 = PCURVE('',#610,#1369);
#1369 = DEFINITIONAL_REPRESENTATION('',(#1370),#1374);
#1370 = LINE('',#1371,#1372);
#1371 = CARTESIAN_POINT('',(6.28318530718,-0.));
#1372 = VECTOR('',#1373,1.);
#1373 = DIRECTION('',(0.,1.));
#1374 = ( GEOMETRIC_REPRESENTATION_CONTEXT(2) 
PARAMETRIC_REPRESENTATION_CONTEXT() REPRESENTATION_CONTEXT('2D SPACE',''
  ) );
#1375 = PCURVE('',#610,#1376);
#1376 = DEFINITIONAL_REPRESENTATION('',(#1377),#1381);
#1377 = LINE('',#1378,#1379);
#1378 = CARTESIAN_POINT('',(0.,-0.));
#1379 = VECTOR('',#1380,1.);
#1380 = DIRECTION('',(0.,1.));
#1381 = ( GEOMETRIC_REPRESENTATION_CONTEXT(2) 
PARAMETRIC_REPRESENTATION_CONTEXT() REPRESENTATION_CONTEXT('2D SPACE',''
  ) );
#1382 = ORIENTED_EDGE('',*,*,#1383,.T.);
#1383 = EDGE_CURVE('',#1361,#1361,#1384,.T.);
#1384 = SURFACE_CURVE('',#1385,(#1390,#1397),.PCURVE_S1.);
#1385 = CIRCLE('',#1386,4.05);
#1386 = AXIS2_PLACEMENT_3D('',#1387,#1388,#1389);
#1387 = CARTESIAN_POINT('',(0.,0.,-14.));
#1388 = DIRECTION('',(0.,0.,1.));
#1389 = DIRECTION('',(1.,0.,-0.));
#1390 = PCURVE('',#610,#1391);
#1391 = DEFINITIONAL_REPRESENTATION('',(#1392),#1396);
#1392 = LINE('',#1393,#1394);
#1393 = CARTESIAN_POINT('',(0.,0.));
#1394 = VECTOR('',#1395,1.);
#1395 = DIRECTION('',(1.,0.));
#1396 = ( GEOMETRIC_REPRESENTATION_CONTEXT(2) 
PARAMETRIC_REPRESENTATION_CONTEXT() REPRESENTATION_CONTEXT('2D SPACE',''
  ) );
#1397 = PCURVE('',#1398,#1403);
#1398 = PLANE('',#1399);
#1399 = AXIS2_PLACEMENT_3D('',#1400,#1401,#1402);
#1400 = CARTESIAN_POINT('',(0.,0.,-14.));
#1401 = DIRECTION('',(0.,0.,1.));
#1402 = DIRECTION('',(1.,0.,-0.));
#1403 = DEFINITIONAL_REPRESENTATION('',(#1404),#1408);
#1404 = CIRCLE('',#1405,4.05);
#1405 = AXIS2_PLACEMENT_2D('',#1406,#1407);
#1406 = CARTESIAN_POINT('',(0.,0.));
#1407 = DIRECTION('',(1.,0.));
#1408 = ( GEOMETRIC_REPRESENTATION_CONTEXT(2) 
PARAMETRIC_REPRESENTATION_CONTEXT() REPRESENTATION_CONTEXT('2D SPACE',''
  ) );
#1409 = ORIENTED_EDGE('',*,*,#1360,.T.);
#1410 = FACE_BOUND('',#1411,.F.);
#1411 = EDGE_LOOP('',(#1412));
#1412 = ORIENTED_EDGE('',*,*,#936,.T.);
#1413 = ADVANCED_FACE('',(#1414),#886,.T.);
#1414 = FACE_BOUND('',#1415,.T.);
#1415 = EDGE_LOOP('',(#1416,#1417,#1440,#1467));
#1416 = ORIENTED_EDGE('',*,*,#869,.F.);
#1417 = ORIENTED_EDGE('',*,*,#1418,.F.);
#1418 = EDGE_CURVE('',#1419,#870,#1421,.T.);
#1419 = VERTEX_POINT('',#1420);
#1420 = CARTESIAN_POINT('',(4.,-9.797174393179E-16,-116.));
#1421 = SEAM_CURVE('',#1422,(#1426,#1433),.PCURVE_S1.);
#1422 = LINE('',#1423,#1424);
#1423 = CARTESIAN_POINT('',(4.,-9.797174393179E-16,-116.));
#1424 = VECTOR('',#1425,1.);
#1425 = DIRECTION('',(0.,0.,1.));
#1426 = PCURVE('',#886,#1427);
#1427 = DEFINITIONAL_REPRESENTATION('',(#1428),#1432);
#1428 = LINE('',#1429,#1430);
#1429 = CARTESIAN_POINT('',(6.28318530718,-0.));
#1430 = VECTOR('',#1431,1.);
#1431 = DIRECTION('',(0.,1.));
#1432 = ( GEOMETRIC_REPRESENTATION_CONTEXT(2) 
PARAMETRIC_REPRESENTATION_CONTEXT() REPRESENTATION_CONTEXT('2D SPACE',''
  ) );
#1433 = PCURVE('',#886,#1434);
#1434 = DEFINITIONAL_REPRESENTATION('',(#1435),#1439);
#1435 = LINE('',#1436,#1437);
#1436 = CARTESIAN_POINT('',(0.,-0.));
#1437 = VECTOR('',#1438,1.);
#1438 = DIRECTION('',(0.,1.));
#1439 = ( GEOMETRIC_REPRESENTATION_CONTEXT(2) 
PARAMETRIC_REPRESENTATION_CONTEXT() REPRESENTATION_CONTEXT('2D SPACE',''
  ) );
#1440 = ORIENTED_EDGE('',*,*,#1441,.T.);
#1441 = EDGE_CURVE('',#1419,#1419,#1442,.T.);
#1442 = SURFACE_CURVE('',#1443,(#1448,#1455),.PCURVE_S1.);
#1443 = CIRCLE('',#1444,4.);
#1444 = AXIS2_PLACEMENT_3D('',#1445,#1446,#1447);
#1445 = CARTESIAN_POINT('',(0.,0.,-116.));
#1446 = DIRECTION('',(0.,0.,1.));
#1447 = DIRECTION('',(1.,0.,-0.));
#1448 = PCURVE('',#886,#1449);
#1449 = DEFINITIONAL_REPRESENTATION('',(#1450),#1454);
#1450 = LINE('',#1451,#1452);
#1451 = CARTESIAN_POINT('',(0.,0.));
#1452 = VECTOR('',#1453,1.);
#1453 = DIRECTION('',(1.,0.));
#1454 = ( GEOMETRIC_REPRESENTATION_CONTEXT(2) 
PARAMETRIC_REPRESENTATION_CONTEXT() REPRESENTATION_CONTEXT('2D SPACE',''
  ) );
#1455 = PCURVE('',#1456,#1461);
#1456 = PLANE('',#1457);
#1457 = AXIS2_PLACEMENT_3D('',#1458,#1459,#1460);
#1458 = CARTESIAN_POINT('',(0.,0.,-116.));
#1459 = DIRECTION('',(0.,0.,1.));
#1460 = DIRECTION('',(1.,0.,-0.));
#1461 = DEFINITIONAL_REPRESENTATION('',(#1462),#1466);
#1462 = CIRCLE('',#1463,4.);
#1463 = AXIS2_PLACEMENT_2D('',#1464,#1465);
#1464 = CARTESIAN_POINT('',(0.,0.));
#1465 = DIRECTION('',(1.,0.));
#1466 = ( GEOMETRIC_REPRESENTATION_CONTEXT(2) 
PARAMETRIC_REPRESENTATION_CONTEXT() REPRESENTATION_CONTEXT('2D SPACE',''
  ) );
#1467 = ORIENTED_EDGE('',*,*,#1418,.T.);
#1468 = ADVANCED_FACE('',(#1469),#921,.F.);
#1469 = FACE_BOUND('',#1470,.F.);
#1470 = EDGE_LOOP('',(#1471,#1472,#1493,#1494));
#1471 = ORIENTED_EDGE('',*,*,#904,.F.);
#1472 = ORIENTED_EDGE('',*,*,#1473,.F.);
#1473 = EDGE_CURVE('',#1314,#905,#1474,.T.);
#1474 = SEAM_CURVE('',#1475,(#1479,#1486),.PCURVE_S1.);
#1475 = LINE('',#1476,#1477);
#1476 = CARTESIAN_POINT('',(4.05,-9.919639073094E-16,-1.));
#1477 = VECTOR('',#1478,1.);
#1478 = DIRECTION('',(0.242535625036,-5.940409537599E-17,0.970142500145)
  );
#1479 = PCURVE('',#921,#1480);
#1480 = DEFINITIONAL_REPRESENTATION('',(#1481),#1485);
#1481 = LINE('',#1482,#1483);
#1482 = CARTESIAN_POINT('',(6.28318530718,-0.));
#1483 = VECTOR('',#1484,1.);
#1484 = DIRECTION('',(0.,1.));
#1485 = ( GEOMETRIC_REPRESENTATION_CONTEXT(2) 
PARAMETRIC_REPRESENTATION_CONTEXT() REPRESENTATION_CONTEXT('2D SPACE',''
  ) );
#1486 = PCURVE('',#921,#1487);
#1487 = DEFINITIONAL_REPRESENTATION('',(#1488),#1492);
#1488 = LINE('',#1489,#1490);
#1489 = CARTESIAN_POINT('',(0.,-0.));
#1490 = VECTOR('',#1491,1.);
#1491 = DIRECTION('',(0.,1.));
#1492 = ( GEOMETRIC_REPRESENTATION_CONTEXT(2) 
PARAMETRIC_REPRESENTATION_CONTEXT() REPRESENTATION_CONTEXT('2D SPACE',''
  ) );
#1493 = ORIENTED_EDGE('',*,*,#1336,.T.);
#1494 = ORIENTED_EDGE('',*,*,#1473,.T.);
#1495 = ADVANCED_FACE('',(#1496),#1398,.T.);
#1496 = FACE_BOUND('',#1497,.F.);
#1497 = EDGE_LOOP('',(#1498));
#1498 = ORIENTED_EDGE('',*,*,#1383,.F.);
#1499 = ADVANCED_FACE('',(#1500),#1456,.F.);
#1500 = FACE_BOUND('',#1501,.T.);
#1501 = EDGE_LOOP('',(#1502));
#1502 = ORIENTED_EDGE('',*,*,#1441,.F.);
#1503 = ( GEOMETRIC_REPRESENTATION_CONTEXT(3) 
GLOBAL_UNCERTAINTY_ASSIGNED_CONTEXT((#1507)) 
GLOBAL_UNIT_ASSIGNED_CONTEXT((#1504,#1505,#1506)) REPRESENTATION_CONTEXT
('Context #1','3D Context with UNIT and UNCERTAINTY') );
#1504 = ( LENGTH_UNIT() NAMED_UNIT(*) SI_UNIT(.MILLI.,.METRE.) );
#1505 = ( NAMED_UNIT(*) PLANE_ANGLE_UNIT() SI_UNIT($,.RADIAN.) );
#1506 = ( NAMED_UNIT(*) SI_UNIT($,.STERADIAN.) SOLID_ANGLE_UNIT() );
#1507 = UNCERTAINTY_MEASURE_WITH_UNIT(LENGTH_MEASURE(1.E-07),#1504,
  'distance_accuracy_value','confusion accuracy');
#1508 = PRODUCT_RELATED_PRODUCT_CATEGORY('part',$,(#7));
ENDSEC;
END-ISO-10303-21;
